<svg width="350" height="233" viewBox="0 0 350 233" fill="none" xmlns="http://www.w3.org/2000/svg">
<ellipse cx="99.0639" cy="104.46" rx="104.46" ry="99.0639" transform="rotate(-90 99.0639 104.46)" fill="#BEAEFF" fill-opacity="0.56"/>
<ellipse cx="250.936" cy="104.46" rx="104.46" ry="99.0639" transform="rotate(-90 250.936 104.46)" fill="#E99B9B" fill-opacity="0.42"/>
<path d="M54.9479 76.7852C54.8698 76.4596 54.8698 76.0885 54.9479 75.6719C55.039 75.2422 55.1627 74.8125 55.319 74.3828C55.4752 73.9531 55.6445 73.543 55.8268 73.1523C56.0091 72.7487 56.1588 72.4167 56.276 72.1562C56.3411 72 56.4388 71.7721 56.569 71.4727C56.7122 71.1732 56.8684 70.8346 57.0377 70.457C57.22 70.0794 57.4023 69.6823 57.5846 69.2656C57.7799 68.849 57.9622 68.4518 58.1315 68.0742C58.3138 67.6966 58.47 67.3646 58.6002 67.0781C58.7434 66.7786 58.8476 66.5573 58.9127 66.4141C58.6914 66.375 58.3724 66.3945 57.9557 66.4727C57.552 66.5508 57.1028 66.6549 56.608 66.7852C56.1132 66.9023 55.6054 67.026 55.0846 67.1562C54.5638 67.2865 54.0755 67.3841 53.6198 67.4492C53.177 67.5013 52.7929 67.5078 52.4674 67.4688C52.1549 67.4167 51.9596 67.2799 51.8815 67.0586C51.9726 66.8893 52.3046 66.694 52.8776 66.4727C53.4505 66.2513 54.1796 66.0234 55.0651 65.7891C55.9635 65.5417 56.9596 65.2943 58.0533 65.0469C59.1601 64.7995 60.2864 64.5651 61.4323 64.3438C62.5781 64.1224 63.6979 63.9206 64.7916 63.7383C65.8854 63.556 66.8619 63.4062 67.7213 63.2891C68.5807 63.1719 69.2708 63.0938 69.7916 63.0547C70.3255 63.0156 70.6054 63.0286 70.6315 63.0938C70.6705 63.1979 70.677 63.3281 70.651 63.4844C70.625 63.6276 70.5403 63.7188 70.3971 63.7578C69.7591 63.862 69.069 63.9792 68.3268 64.1094C67.5846 64.2266 66.8294 64.3568 66.0612 64.5C65.3059 64.6302 64.5638 64.7669 63.8346 64.9102C63.1054 65.0404 62.4283 65.1706 61.8033 65.3008C61.3997 65.3789 61.0091 65.6133 60.6315 66.0039C60.2539 66.3945 59.8893 66.8828 59.5377 67.4688C59.1862 68.0417 58.8476 68.6862 58.5221 69.4023C58.1966 70.1055 57.8841 70.8216 57.5846 71.5508C57.2981 72.2799 57.0312 72.9831 56.7838 73.6602C56.5364 74.3372 56.3086 74.9362 56.1002 75.457C55.8919 75.9648 55.7096 76.362 55.5533 76.6484C55.3971 76.9349 55.2669 77.0521 55.1627 77C55.1367 76.974 55.0976 76.9349 55.0455 76.8828C54.9934 76.8307 54.9609 76.7982 54.9479 76.7852ZM66.0885 76.7852C65.6979 76.6549 65.3984 76.4596 65.1901 76.1992C64.9948 75.9258 64.8645 75.6263 64.7994 75.3008C64.7343 74.9753 64.7213 74.6367 64.7604 74.2852C64.8125 73.9206 64.8906 73.5755 64.9948 73.25C65.3854 72.8333 65.8216 72.3581 66.3033 71.8242C66.7981 71.2773 67.319 70.7435 67.8658 70.2227C68.4127 69.7018 68.9791 69.2201 69.5651 68.7773C70.164 68.3216 70.7695 67.9766 71.3815 67.7422C71.5898 67.651 71.7526 67.6576 71.8698 67.7617C72 67.8529 72.0911 68.0026 72.1432 68.2109C72.1953 68.4193 72.2148 68.6602 72.2018 68.9336C72.2018 69.207 72.1823 69.474 72.1432 69.7344C72.1041 69.9948 72.052 70.2292 71.9869 70.4375C71.9218 70.6458 71.8567 70.7891 71.7916 70.8672C71.6354 71.0495 71.3294 71.2643 70.8737 71.5117C70.4309 71.7591 69.9362 72.0326 69.3893 72.332C68.8424 72.6185 68.2955 72.918 67.7487 73.2305C67.2018 73.543 66.7526 73.8555 66.401 74.168C66.0494 74.4674 65.8411 74.7669 65.776 75.0664C65.7109 75.3659 65.8932 75.6393 66.3229 75.8867C66.7656 75.9388 67.2994 75.9193 67.9244 75.8281C68.5625 75.724 69.207 75.5938 69.858 75.4375C70.5221 75.2682 71.1601 75.099 71.7721 74.9297C72.3841 74.7474 72.8854 74.6042 73.276 74.5L73.5104 74.7148C73.2239 75.0924 72.7552 75.4375 72.1041 75.75C71.4531 76.0625 70.75 76.3229 69.9948 76.5312C69.2395 76.7266 68.5039 76.8568 67.7877 76.9219C67.0716 76.974 66.5052 76.9284 66.0885 76.7852ZM70.7565 69.3242C70.7434 69.3112 70.6458 69.3698 70.4635 69.5C70.2812 69.6172 70.0533 69.7799 69.7799 69.9883C69.5195 70.1836 69.233 70.4049 68.9205 70.6523C68.6211 70.8867 68.3411 71.1081 68.0807 71.3164C67.8333 71.5247 67.625 71.707 67.4557 71.8633C67.2864 72.0065 67.2148 72.0781 67.2408 72.0781C67.4492 72.1172 67.7161 72.0911 68.0416 72C68.3802 71.8958 68.7252 71.7526 69.0768 71.5703C69.4414 71.388 69.7864 71.1862 70.1119 70.9648C70.4375 70.7305 70.6914 70.5026 70.8737 70.2812C71.069 70.0599 71.1666 69.8646 71.1666 69.6953C71.1796 69.526 71.0429 69.4023 70.7565 69.3242ZM76.9166 76.7852C76.2526 76.5638 75.8099 76.2188 75.5885 75.75C75.3802 75.2812 75.3216 74.7539 75.4127 74.168C75.5169 73.569 75.7448 72.944 76.0963 72.293C76.4479 71.6289 76.8645 70.9974 77.3463 70.3984C77.8281 69.7995 78.3359 69.2591 78.8698 68.7773C79.4036 68.2956 79.9049 67.931 80.3737 67.6836C80.8554 67.4362 81.2656 67.3385 81.6041 67.3906C81.9427 67.4427 82.151 67.7031 82.2291 68.1719C82.2682 68.3802 82.2421 68.6081 82.151 68.8555C82.0729 69.1029 81.9557 69.3438 81.7994 69.5781C81.6562 69.7995 81.4869 70.0078 81.2916 70.2031C81.1093 70.3854 80.927 70.5221 80.7448 70.6133C80.5755 70.7044 80.4192 70.737 80.276 70.7109C80.1458 70.6849 80.0612 70.5742 80.0221 70.3789C80.1783 70.1185 80.3541 69.8581 80.5494 69.5977C80.7448 69.3242 80.9336 69.0703 81.1158 68.8359C81.0377 68.6927 80.888 68.6602 80.6666 68.7383C80.4453 68.8164 80.1783 68.9727 79.8658 69.207C79.5533 69.4414 79.2213 69.7409 78.8698 70.1055C78.5312 70.457 78.1992 70.8411 77.8737 71.2578C77.5481 71.6745 77.2552 72.1107 76.9948 72.5664C76.7474 73.0091 76.5651 73.4388 76.4479 73.8555C76.3307 74.2721 76.2981 74.6628 76.3502 75.0273C76.4153 75.3789 76.6041 75.6654 76.9166 75.8867C77.3463 75.9258 77.8411 75.8867 78.401 75.7695C78.9609 75.6393 79.5338 75.4766 80.1198 75.2812C80.7057 75.0859 81.2851 74.8776 81.858 74.6562C82.444 74.4219 82.9713 74.207 83.4401 74.0117C83.9218 73.8164 84.3255 73.6667 84.651 73.5625C84.9895 73.4453 85.2109 73.4128 85.3151 73.4648C85.5625 73.5951 85.5755 73.7839 85.3541 74.0312C85.1458 74.2786 84.7877 74.5456 84.2799 74.832C83.7721 75.1185 83.1666 75.4049 82.4635 75.6914C81.7734 75.9648 81.0768 76.2057 80.3737 76.4141C79.6705 76.6094 79.0065 76.7526 78.3815 76.8438C77.7565 76.9219 77.2682 76.9023 76.9166 76.7852ZM88.0573 76.5508C88.0442 76.5247 88.0377 76.4922 88.0377 76.4531C88.0377 76.401 88.0442 76.362 88.0573 76.3359C88.1093 76.2318 88.194 76.056 88.3112 75.8086C88.4414 75.5482 88.5716 75.2812 88.7018 75.0078C88.845 74.7214 88.9817 74.4544 89.1119 74.207C89.2421 73.9596 89.3333 73.7839 89.3854 73.6797C89.4114 73.6406 89.4765 73.5299 89.5807 73.3477C89.6979 73.1654 89.8346 72.944 89.9908 72.6836C90.1601 72.4102 90.3359 72.1107 90.5182 71.7852C90.7135 71.4596 90.9023 71.1406 91.0846 70.8281C91.2799 70.5156 91.4557 70.2227 91.6119 69.9492C91.7812 69.6758 91.9179 69.4479 92.0221 69.2656C92.2825 68.8359 92.582 68.3281 92.9205 67.7422C93.2721 67.1562 93.6302 66.5638 93.9948 65.9648C94.3593 65.3659 94.7174 64.7865 95.069 64.2266C95.4336 63.6667 95.7656 63.2044 96.0651 62.8398C96.3645 62.4753 96.6184 62.2344 96.8268 62.1172C97.0351 62 97.1783 62.0781 97.2565 62.3516V62.9766C97.1653 63.1198 97.0416 63.3086 96.8854 63.543C96.7291 63.7643 96.5664 64.0052 96.3971 64.2656C96.2408 64.513 96.0846 64.7539 95.9283 64.9883C95.7721 65.2227 95.6549 65.4049 95.5768 65.5352C95.4596 65.7174 95.2708 66.0104 95.0104 66.4141C94.75 66.8177 94.457 67.2734 94.1315 67.7812C93.8059 68.2891 93.4739 68.8229 93.1354 69.3828C92.7968 69.9297 92.4908 70.444 92.2174 70.9258C91.944 71.4076 91.7226 71.8242 91.5533 72.1758C91.3971 72.5143 91.3385 72.7292 91.3776 72.8203C91.6901 72.7292 92.0221 72.5664 92.3737 72.332C92.7382 72.0846 93.1028 71.8242 93.4674 71.5508C93.832 71.2773 94.1966 71.0169 94.5612 70.7695C94.9257 70.5091 95.2643 70.3073 95.5768 70.1641C95.8893 70.2031 96.1627 70.3203 96.3971 70.5156C96.6315 70.7109 96.8007 70.9583 96.9049 71.2578C96.8919 71.375 96.8789 71.5964 96.8658 71.9219C96.8658 72.2344 96.8658 72.5664 96.8658 72.918C96.8658 73.2695 96.8658 73.6016 96.8658 73.9141C96.8789 74.2266 96.8919 74.4414 96.9049 74.5586C96.9179 74.7018 96.983 74.8841 97.1002 75.1055C97.2174 75.3138 97.3411 75.5286 97.4713 75.75C97.6145 75.9583 97.7382 76.1406 97.8424 76.2969C97.9596 76.4531 98.0117 76.5378 97.9987 76.5508C97.7382 76.6419 97.4908 76.6484 97.2565 76.5703C97.0221 76.4792 96.8138 76.3424 96.6315 76.1602C96.4622 75.9648 96.319 75.75 96.2018 75.5156C96.0976 75.2682 96.0325 75.0273 96.0065 74.793C95.9934 74.6758 95.9739 74.4609 95.9479 74.1484C95.9218 73.8229 95.8958 73.4844 95.8698 73.1328C95.8567 72.7812 95.8372 72.4492 95.8112 72.1367C95.7981 71.8242 95.7916 71.6094 95.7916 71.4922L95.3424 71.2578C95.2643 71.2188 95.1276 71.2513 94.9323 71.3555C94.75 71.4596 94.5351 71.6029 94.2877 71.7852C94.0403 71.9674 93.7799 72.1758 93.5065 72.4102C93.233 72.6445 92.9726 72.8659 92.7252 73.0742C92.4908 73.2826 92.289 73.4648 92.1198 73.6211C91.9505 73.7773 91.8463 73.875 91.8073 73.9141C91.7031 74.0182 91.5143 74.207 91.2408 74.4805C90.9674 74.7409 90.6744 75.0273 90.3619 75.3398C90.0625 75.6393 89.776 75.9258 89.5026 76.1992C89.2421 76.4727 89.0599 76.668 88.9557 76.7852C88.7734 76.8242 88.5976 76.8438 88.4283 76.8438C88.2721 76.8307 88.1484 76.7331 88.0573 76.5508ZM52.1764 95.7852C52.0201 95.681 52.0136 95.5443 52.1569 95.375C52.3131 95.1927 52.554 95.0039 52.8795 94.8086C53.2181 94.6003 53.6087 94.3854 54.0514 94.1641C54.4941 93.9427 54.9173 93.7344 55.3209 93.5391C55.7376 93.3438 56.1022 93.1745 56.4147 93.0312C56.7272 92.875 56.929 92.7578 57.0201 92.6797C57.4498 92.3151 57.6712 92.0156 57.6842 91.7812C57.7102 91.5339 57.6061 91.3385 57.3717 91.1953C57.1373 91.0391 56.8053 90.9219 56.3756 90.8438C55.9589 90.7526 55.5227 90.6745 55.067 90.6094C54.6243 90.5312 54.1946 90.4531 53.778 90.375C53.3743 90.2969 53.0683 90.1927 52.86 90.0625C52.6517 89.9323 52.58 89.763 52.6451 89.5547C52.7233 89.3333 53.0097 89.0534 53.5045 88.7148C53.6868 88.5846 53.9537 88.3958 54.3053 88.1484C54.6569 87.901 55.0345 87.6471 55.4381 87.3867C55.8548 87.1263 56.2649 86.8919 56.6686 86.6836C57.0722 86.4753 57.4108 86.3385 57.6842 86.2734C57.8274 86.2474 57.9707 86.2604 58.1139 86.3125C58.2701 86.3646 58.3938 86.4427 58.485 86.5469C58.5761 86.638 58.6152 86.7422 58.6022 86.8594C58.6022 86.9766 58.5175 87.0807 58.3483 87.1719C57.6061 87.5885 56.8899 87.9792 56.1998 88.3438C55.5227 88.7083 54.8392 89.125 54.149 89.5938C54.11 89.6979 54.1165 89.7891 54.1686 89.8672C54.2337 89.9453 54.3053 90.0039 54.3834 90.043C55.7636 90.1862 56.7988 90.388 57.4889 90.6484C58.192 90.9089 58.6347 91.1953 58.817 91.5078C59.0123 91.8203 58.9928 92.1523 58.7584 92.5039C58.524 92.8555 58.1725 93.2005 57.7037 93.5391C57.248 93.8776 56.7207 94.1966 56.1217 94.4961C55.5227 94.7956 54.9433 95.0495 54.3834 95.2578C53.8365 95.4661 53.3548 95.6224 52.9381 95.7266C52.5214 95.8307 52.2675 95.8503 52.1764 95.7852ZM69.6256 95.3359C68.7923 94.1901 68.1217 93.2461 67.6139 92.5039C67.1061 91.7487 66.6894 91.1888 66.3639 90.8242C66.0384 90.4596 65.7714 90.2839 65.5631 90.2969C65.3548 90.3099 65.1269 90.5117 64.8795 90.9023C64.6451 91.2799 64.3522 91.8398 64.0006 92.582C63.649 93.3242 63.1673 94.2422 62.5553 95.3359C62.4772 95.4792 62.3925 95.5703 62.3014 95.6094C62.2233 95.6354 62.1451 95.6354 62.067 95.6094C61.9889 95.5703 61.9173 95.5052 61.8522 95.4141C61.7871 95.3229 61.735 95.2253 61.6959 95.1211C61.6569 94.9909 61.7024 94.7435 61.8326 94.3789C61.9628 94.0013 62.1517 93.5521 62.399 93.0312C62.6595 92.4974 62.9589 91.9115 63.2975 91.2734C63.649 90.6224 64.0136 89.9583 64.3912 89.2812C64.7819 88.6042 65.166 87.9336 65.5436 87.2695C65.9342 86.6055 66.2923 85.9935 66.6178 85.4336C66.9563 84.8607 67.2558 84.3594 67.5162 83.9297C67.7767 83.5 67.9655 83.181 68.0826 82.9727C68.1738 82.9076 68.2649 82.901 68.3561 82.9531C68.4602 83.0052 68.5449 83.0898 68.61 83.207C68.6881 83.3112 68.7402 83.4284 68.7662 83.5586C68.7923 83.6758 68.7793 83.7734 68.7272 83.8516L66.9694 86.9375V87.3867C67.2428 87.4518 67.5813 87.4323 67.985 87.3281C68.4017 87.2109 68.8444 87.0482 69.3131 86.8398C69.7949 86.6315 70.2832 86.3906 70.778 86.1172C71.2727 85.8307 71.7415 85.5508 72.1842 85.2773C72.6399 84.9909 73.0436 84.724 73.3951 84.4766C73.7597 84.2161 74.0462 84.0078 74.2545 83.8516C74.4238 83.7604 74.5735 83.7344 74.7037 83.7734C74.847 83.8125 74.9511 83.8841 75.0162 83.9883C75.0944 84.0924 75.1269 84.2161 75.1139 84.3594C75.1009 84.5026 75.0358 84.6328 74.9186 84.75C74.554 85.1276 74.1178 85.4531 73.61 85.7266C73.1152 85.987 72.5878 86.2279 72.028 86.4492C71.4681 86.6576 70.8951 86.8594 70.3092 87.0547C69.7363 87.237 69.1829 87.4388 68.649 87.6602C68.1152 87.8815 67.6269 88.1289 67.1842 88.4023C66.7415 88.6758 66.3769 89.0013 66.0905 89.3789C66.2597 89.5221 66.4811 89.75 66.7545 90.0625C67.041 90.362 67.347 90.7005 67.6725 91.0781C68.011 91.4557 68.3496 91.8594 68.6881 92.2891C69.0267 92.7057 69.3261 93.1159 69.5865 93.5195C69.86 93.9102 70.0813 94.2682 70.2506 94.5938C70.4329 94.9062 70.524 95.1536 70.524 95.3359V95.7852C70.4199 95.8372 70.3222 95.8568 70.2311 95.8438C70.153 95.8177 70.0748 95.7786 69.9967 95.7266C69.9186 95.6745 69.847 95.6159 69.7819 95.5508C69.7298 95.4727 69.6777 95.401 69.6256 95.3359ZM77.7975 95.7852C78.3313 94.0664 78.8131 92.7057 79.2428 91.7031C79.6855 90.6875 80.0501 89.9779 80.3365 89.5742C80.636 89.1706 80.8378 89.0404 80.942 89.1836C81.0462 89.3268 81.0332 89.6914 80.903 90.2773C80.7858 90.8633 80.5253 91.651 80.1217 92.6406C79.7311 93.6172 79.1777 94.737 78.4615 96C78.3574 96.0391 78.2337 96.0456 78.0905 96.0195C77.9472 95.9935 77.8496 95.9154 77.7975 95.7852ZM81.2155 86.3906C81.1894 86.3255 81.1764 86.2083 81.1764 86.0391C81.1764 85.8698 81.1894 85.7656 81.2155 85.7266C81.5149 85.6224 81.7428 85.6094 81.899 85.6875C82.0553 85.7656 82.153 85.8828 82.192 86.0391C82.2311 86.1823 82.2246 86.3385 82.1725 86.5078C82.1334 86.6771 82.0618 86.8073 81.9576 86.8984C81.8535 86.9766 81.7298 86.9896 81.5865 86.9375C81.4563 86.8724 81.3326 86.6901 81.2155 86.3906ZM85.6569 95.7852C85.2793 95.5117 85.0319 95.1667 84.9147 94.75C84.8105 94.3333 84.7975 93.8841 84.8756 93.4023C84.9537 92.9076 85.0905 92.3997 85.2858 91.8789C85.4941 91.3581 85.7155 90.8568 85.9498 90.375C86.1972 89.8932 86.4316 89.4505 86.653 89.0469C86.8873 88.6432 87.0696 88.3112 87.1998 88.0508C87.2389 87.9727 87.33 87.7839 87.4733 87.4844C87.6295 87.1849 87.7923 86.8594 87.9615 86.5078C88.1308 86.1562 88.2871 85.8307 88.4303 85.5312C88.5865 85.2188 88.6842 85.0234 88.7233 84.9453C88.7623 84.8802 88.8144 84.7565 88.8795 84.5742C88.9576 84.3789 89.0423 84.1706 89.1334 83.9492C89.2246 83.7279 89.3222 83.5195 89.4264 83.3242C89.5436 83.1159 89.6608 82.9661 89.778 82.875C89.9082 82.7839 90.0319 82.7708 90.149 82.8359C90.2793 82.901 90.403 83.0964 90.5201 83.4219C90.4681 83.5521 90.3378 83.8125 90.1295 84.2031C89.9342 84.5938 89.6998 85.0625 89.4264 85.6094C89.153 86.1562 88.847 86.7617 88.5084 87.4258C88.1829 88.0898 87.8639 88.7604 87.5514 89.4375C87.2389 90.1146 86.9459 90.7786 86.6725 91.4297C86.399 92.0677 86.1712 92.6536 85.9889 93.1875C85.8196 93.7083 85.7155 94.1445 85.6764 94.4961C85.6503 94.8346 85.7155 95.043 85.8717 95.1211C86.054 95.2122 86.2884 95.2513 86.5748 95.2383C86.8743 95.2122 87.1803 95.1732 87.4928 95.1211C87.8053 95.069 88.1113 95.0169 88.4108 94.9648C88.7102 94.8997 88.9707 94.8737 89.192 94.8867C89.2441 95.0039 89.205 95.1211 89.0748 95.2383C88.9446 95.3424 88.7623 95.4401 88.528 95.5312C88.2936 95.6094 88.0201 95.681 87.7076 95.7461C87.4082 95.7982 87.1152 95.8372 86.8287 95.8633C86.5553 95.8893 86.3079 95.8958 86.0865 95.8828C85.8782 95.8698 85.735 95.8372 85.6569 95.7852ZM94.0631 95.7852C93.6855 95.5117 93.4381 95.1667 93.3209 94.75C93.2168 94.3333 93.2037 93.8841 93.2819 93.4023C93.36 92.9076 93.4967 92.3997 93.692 91.8789C93.9003 91.3581 94.1217 90.8568 94.3561 90.375C94.6035 89.8932 94.8378 89.4505 95.0592 89.0469C95.2936 88.6432 95.4759 88.3112 95.6061 88.0508C95.6451 87.9727 95.7363 87.7839 95.8795 87.4844C96.0358 87.1849 96.1985 86.8594 96.3678 86.5078C96.5371 86.1562 96.6933 85.8307 96.8365 85.5312C96.9928 85.2188 97.0905 85.0234 97.1295 84.9453C97.1686 84.8802 97.2207 84.7565 97.2858 84.5742C97.3639 84.3789 97.4485 84.1706 97.5397 83.9492C97.6308 83.7279 97.7285 83.5195 97.8326 83.3242C97.9498 83.1159 98.067 82.9661 98.1842 82.875C98.3144 82.7839 98.4381 82.7708 98.5553 82.8359C98.6855 82.901 98.8092 83.0964 98.9264 83.4219C98.8743 83.5521 98.7441 83.8125 98.5358 84.2031C98.3405 84.5938 98.1061 85.0625 97.8326 85.6094C97.5592 86.1562 97.2532 86.7617 96.9147 87.4258C96.5892 88.0898 96.2701 88.7604 95.9576 89.4375C95.6451 90.1146 95.3522 90.7786 95.0787 91.4297C94.8053 92.0677 94.5774 92.6536 94.3951 93.1875C94.2259 93.7083 94.1217 94.1445 94.0826 94.4961C94.0566 94.8346 94.1217 95.043 94.278 95.1211C94.4602 95.2122 94.6946 95.2513 94.9811 95.2383C95.2806 95.2122 95.5865 95.1732 95.899 95.1211C96.2115 95.069 96.5175 95.0169 96.817 94.9648C97.1165 94.8997 97.3769 94.8737 97.5983 94.8867C97.6503 95.0039 97.6113 95.1211 97.4811 95.2383C97.3509 95.3424 97.1686 95.4401 96.9342 95.5312C96.6998 95.6094 96.4264 95.681 96.1139 95.7461C95.8144 95.7982 95.5214 95.8372 95.235 95.8633C94.9615 95.8893 94.7142 95.8958 94.4928 95.8828C94.2845 95.8698 94.1412 95.8372 94.0631 95.7852ZM101.922 95.7852C101.766 95.681 101.76 95.5443 101.903 95.375C102.059 95.1927 102.3 95.0039 102.626 94.8086C102.964 94.6003 103.355 94.3854 103.797 94.1641C104.24 93.9427 104.663 93.7344 105.067 93.5391C105.484 93.3438 105.848 93.1745 106.161 93.0312C106.473 92.875 106.675 92.7578 106.766 92.6797C107.196 92.3151 107.417 92.0156 107.43 91.7812C107.456 91.5339 107.352 91.3385 107.118 91.1953C106.883 91.0391 106.551 90.9219 106.122 90.8438C105.705 90.7526 105.269 90.6745 104.813 90.6094C104.37 90.5312 103.941 90.4531 103.524 90.375C103.12 90.2969 102.814 90.1927 102.606 90.0625C102.398 89.9323 102.326 89.763 102.391 89.5547C102.469 89.3333 102.756 89.0534 103.251 88.7148C103.433 88.5846 103.7 88.3958 104.051 88.1484C104.403 87.901 104.781 87.6471 105.184 87.3867C105.601 87.1263 106.011 86.8919 106.415 86.6836C106.818 86.4753 107.157 86.3385 107.43 86.2734C107.574 86.2474 107.717 86.2604 107.86 86.3125C108.016 86.3646 108.14 86.4427 108.231 86.5469C108.322 86.638 108.361 86.7422 108.348 86.8594C108.348 86.9766 108.264 87.0807 108.094 87.1719C107.352 87.5885 106.636 87.9792 105.946 88.3438C105.269 88.7083 104.585 89.125 103.895 89.5938C103.856 89.6979 103.863 89.7891 103.915 89.8672C103.98 89.9453 104.051 90.0039 104.13 90.043C105.51 90.1862 106.545 90.388 107.235 90.6484C107.938 90.9089 108.381 91.1953 108.563 91.5078C108.758 91.8203 108.739 92.1523 108.505 92.5039C108.27 92.8555 107.919 93.2005 107.45 93.5391C106.994 93.8776 106.467 94.1966 105.868 94.4961C105.269 94.7956 104.689 95.0495 104.13 95.2578C103.583 95.4661 103.101 95.6224 102.684 95.7266C102.268 95.8307 102.014 95.8503 101.922 95.7852ZM61.6705 114.551C61.358 114.29 61.1823 113.906 61.1432 113.398C61.1171 112.891 61.1888 112.318 61.358 111.68C61.5403 111.042 61.8007 110.378 62.1393 109.688C62.4908 108.984 62.8945 108.32 63.3502 107.695C63.8059 107.057 64.3007 106.491 64.8346 105.996C65.3684 105.488 65.9023 105.117 66.4362 104.883C66.97 104.635 67.4908 104.551 67.9987 104.629C68.5065 104.694 68.9687 104.987 69.3854 105.508C69.6458 105.833 69.802 106.165 69.8541 106.504C69.9062 106.829 69.8997 107.168 69.8346 107.52C69.7695 107.858 69.6653 108.21 69.5221 108.574C69.3789 108.926 69.2356 109.284 69.0924 109.648C68.9622 110.013 68.8515 110.384 68.7604 110.762C68.6823 111.139 68.6692 111.523 68.7213 111.914C68.7864 112.409 69.0078 112.702 69.3854 112.793C69.763 112.884 70.2122 112.858 70.733 112.715C71.2669 112.572 71.8268 112.344 72.4127 112.031C72.9987 111.719 73.539 111.406 74.0338 111.094C74.5416 110.781 74.9583 110.508 75.2838 110.273C75.6224 110.039 75.7916 109.922 75.7916 109.922C76.1562 109.844 76.358 109.87 76.3971 110C76.4492 110.117 76.3776 110.299 76.1823 110.547C76 110.781 75.72 111.055 75.3424 111.367C74.9648 111.667 74.5351 111.96 74.0533 112.246C73.5716 112.533 73.0573 112.793 72.5104 113.027C71.9635 113.262 71.4296 113.424 70.9088 113.516C70.388 113.594 69.8932 113.587 69.4244 113.496C68.9687 113.392 68.5911 113.158 68.2916 112.793C68.1484 112.637 68.0377 112.48 67.9596 112.324C67.8945 112.168 67.7838 112.031 67.6276 111.914C67.4323 112.096 67.1979 112.337 66.9244 112.637C66.651 112.923 66.3515 113.216 66.026 113.516C65.7135 113.802 65.375 114.076 65.0104 114.336C64.6588 114.596 64.2942 114.792 63.9166 114.922C63.539 115.052 63.1549 115.098 62.7643 115.059C62.3867 115.02 62.0221 114.85 61.6705 114.551ZM61.8854 113.887C62.0026 114.303 62.263 114.499 62.6666 114.473C63.0703 114.434 63.539 114.232 64.0729 113.867C64.6067 113.503 65.1601 113.008 65.733 112.383C66.3059 111.745 66.8203 111.042 67.276 110.273C67.7317 109.492 68.0768 108.672 68.3112 107.812C68.5586 106.953 68.6237 106.107 68.5065 105.273C68.194 105.026 67.8033 105.02 67.3346 105.254C66.8658 105.475 66.3645 105.846 65.8307 106.367C65.3099 106.875 64.789 107.487 64.2682 108.203C63.7604 108.906 63.3112 109.622 62.9205 110.352C62.5299 111.068 62.2304 111.745 62.0221 112.383C61.8268 113.021 61.7812 113.522 61.8854 113.887ZM83.8854 114.785C83.8463 114.355 83.8789 113.932 83.983 113.516C84.1002 113.086 84.25 112.669 84.4323 112.266C84.6276 111.849 84.8294 111.439 85.0377 111.035C85.2591 110.618 85.4479 110.215 85.6041 109.824C85.7604 109.421 85.8711 109.03 85.9362 108.652C86.0013 108.262 85.9752 107.878 85.858 107.5C85.5325 107.383 85.1549 107.409 84.7252 107.578C84.3086 107.747 83.8658 108.008 83.3971 108.359C82.9283 108.698 82.4401 109.102 81.9323 109.57C81.4375 110.026 80.9492 110.495 80.4674 110.977C79.9987 111.445 79.5494 111.895 79.1198 112.324C78.6901 112.754 78.2994 113.112 77.9479 113.398C77.6093 113.672 77.3229 113.848 77.0885 113.926C76.8541 113.991 76.6979 113.906 76.6198 113.672C76.6067 113.659 76.6783 113.496 76.8346 113.184C77.0039 112.858 77.2057 112.454 77.4401 111.973C77.6875 111.491 77.9544 110.97 78.2408 110.41C78.5403 109.85 78.8203 109.329 79.0807 108.848C79.3411 108.353 79.569 107.936 79.7643 107.598C79.9596 107.259 80.0833 107.077 80.1354 107.051C80.4088 107.233 80.5455 107.435 80.5455 107.656C80.5586 107.865 80.526 108.086 80.4479 108.32C80.3698 108.542 80.2786 108.77 80.1744 109.004C80.0833 109.238 80.0703 109.473 80.1354 109.707C80.3437 109.564 80.6302 109.368 80.9948 109.121C81.3724 108.861 81.776 108.594 82.2057 108.32C82.6484 108.047 83.1041 107.78 83.5729 107.52C84.0546 107.259 84.5039 107.057 84.9205 106.914C85.3372 106.758 85.7083 106.673 86.0338 106.66C86.3724 106.647 86.6198 106.745 86.776 106.953C86.9323 107.161 86.9778 107.507 86.9127 107.988C86.8606 108.457 86.6588 109.102 86.3073 109.922C86.2682 110.013 86.1705 110.234 86.0143 110.586C85.8711 110.924 85.7083 111.296 85.526 111.699C85.3567 112.09 85.194 112.461 85.0377 112.812C84.8945 113.151 84.8033 113.366 84.7643 113.457C84.7513 113.509 84.7317 113.607 84.7057 113.75C84.6927 113.88 84.6731 114.03 84.6471 114.199C84.6211 114.355 84.582 114.512 84.5299 114.668C84.4778 114.811 84.4127 114.922 84.3346 115C84.2565 115.078 84.1653 115.072 84.0612 114.98C83.957 114.876 83.8984 114.811 83.8854 114.785ZM97.9166 114.551C97.4218 114.212 97.0638 113.796 96.8424 113.301C96.6211 112.793 96.4583 112.253 96.3541 111.68H96.1393C95.0846 112.539 94.1666 113.184 93.3854 113.613C92.6171 114.043 91.9661 114.31 91.4323 114.414C90.8984 114.505 90.4817 114.46 90.1823 114.277C89.8828 114.095 89.6875 113.835 89.5963 113.496C89.5182 113.145 89.5377 112.734 89.6549 112.266C89.7721 111.797 89.9739 111.328 90.2604 110.859C90.5468 110.378 90.9179 109.922 91.3737 109.492C91.8294 109.062 92.3502 108.711 92.9362 108.438C93.5351 108.164 94.1927 107.995 94.9088 107.93C95.638 107.852 96.4192 107.93 97.2526 108.164L97.4674 107.93L100.104 102.637C100.456 102.689 100.664 102.845 100.729 103.105C100.794 103.366 100.788 103.652 100.71 103.965C100.644 104.277 100.54 104.583 100.397 104.883C100.267 105.169 100.169 105.378 100.104 105.508C100.065 105.586 99.9869 105.736 99.8698 105.957C99.7656 106.178 99.6354 106.445 99.4791 106.758C99.3359 107.057 99.1796 107.376 99.0104 107.715C98.8411 108.053 98.6783 108.379 98.5221 108.691C98.3789 108.991 98.2487 109.258 98.1315 109.492C98.0143 109.714 97.9427 109.857 97.9166 109.922C97.6823 110.404 97.5716 110.918 97.5846 111.465C97.6106 111.999 97.6432 112.513 97.6823 113.008C97.7343 113.242 97.8385 113.438 97.9948 113.594C98.151 113.737 98.3138 113.874 98.483 114.004C98.6653 114.121 98.8411 114.238 99.0104 114.355C99.1927 114.473 99.3424 114.616 99.4596 114.785C99.4075 114.954 99.3033 115.039 99.1471 115.039C98.9908 115.052 98.8281 115.026 98.6588 114.961C98.4895 114.896 98.3333 114.818 98.1901 114.727C98.0468 114.635 97.9557 114.577 97.9166 114.551ZM90.6315 113.672C90.6836 113.893 90.8789 113.958 91.2174 113.867C91.569 113.776 91.9791 113.587 92.4479 113.301C92.9166 113.001 93.4114 112.643 93.9323 112.227C94.4661 111.81 94.9414 111.393 95.358 110.977C95.7877 110.56 96.1198 110.176 96.3541 109.824C96.6015 109.473 96.6796 109.212 96.5885 109.043C96.1849 108.822 95.7356 108.711 95.2408 108.711C94.7461 108.711 94.2513 108.802 93.7565 108.984C93.2747 109.154 92.8059 109.401 92.3502 109.727C91.9075 110.039 91.5299 110.404 91.2174 110.82C90.9179 111.237 90.7031 111.693 90.5729 112.188C90.4557 112.669 90.4752 113.164 90.6315 113.672ZM36.8561 133.336C36.0227 132.19 35.3522 131.246 34.8444 130.504C34.3365 129.749 33.9199 129.189 33.5944 128.824C33.2688 128.46 33.0019 128.284 32.7936 128.297C32.5852 128.31 32.3574 128.512 32.11 128.902C31.8756 129.28 31.5826 129.84 31.2311 130.582C30.8795 131.324 30.3977 132.242 29.7858 133.336C29.7076 133.479 29.623 133.57 29.5319 133.609C29.4537 133.635 29.3756 133.635 29.2975 133.609C29.2194 133.57 29.1477 133.505 29.0826 133.414C29.0175 133.323 28.9655 133.225 28.9264 133.121C28.8873 132.991 28.9329 132.743 29.0631 132.379C29.1933 132.001 29.3821 131.552 29.6295 131.031C29.8899 130.497 30.1894 129.911 30.528 129.273C30.8795 128.622 31.2441 127.958 31.6217 127.281C32.0123 126.604 32.3964 125.934 32.774 125.27C33.1647 124.605 33.5227 123.993 33.8483 123.434C34.1868 122.861 34.4863 122.359 34.7467 121.93C35.0071 121.5 35.1959 121.181 35.3131 120.973C35.4043 120.908 35.4954 120.901 35.5865 120.953C35.6907 121.005 35.7753 121.09 35.8405 121.207C35.9186 121.311 35.9707 121.428 35.9967 121.559C36.0227 121.676 36.0097 121.773 35.9576 121.852L34.1998 124.938V125.387C34.4733 125.452 34.8118 125.432 35.2155 125.328C35.6321 125.211 36.0748 125.048 36.5436 124.84C37.0253 124.632 37.5136 124.391 38.0084 124.117C38.5032 123.831 38.972 123.551 39.4147 123.277C39.8704 122.991 40.274 122.724 40.6256 122.477C40.9902 122.216 41.2767 122.008 41.485 121.852C41.6543 121.76 41.804 121.734 41.9342 121.773C42.0774 121.812 42.1816 121.884 42.2467 121.988C42.3248 122.092 42.3574 122.216 42.3444 122.359C42.3313 122.503 42.2662 122.633 42.149 122.75C41.7845 123.128 41.3483 123.453 40.8405 123.727C40.3457 123.987 39.8183 124.228 39.2584 124.449C38.6985 124.658 38.1256 124.859 37.5397 125.055C36.9668 125.237 36.4134 125.439 35.8795 125.66C35.3457 125.882 34.8574 126.129 34.4147 126.402C33.972 126.676 33.6074 127.001 33.3209 127.379C33.4902 127.522 33.7115 127.75 33.985 128.062C34.2714 128.362 34.5774 128.701 34.903 129.078C35.2415 129.456 35.58 129.859 35.9186 130.289C36.2571 130.706 36.5566 131.116 36.817 131.52C37.0905 131.91 37.3118 132.268 37.4811 132.594C37.6634 132.906 37.7545 133.154 37.7545 133.336V133.785C37.6503 133.837 37.5527 133.857 37.4615 133.844C37.3834 133.818 37.3053 133.779 37.2272 133.727C37.149 133.674 37.0774 133.616 37.0123 133.551C36.9602 133.473 36.9082 133.401 36.8561 133.336ZM52.4303 133.785C52.3912 133.355 52.4238 132.932 52.528 132.516C52.6451 132.086 52.7949 131.669 52.9772 131.266C53.1725 130.849 53.3743 130.439 53.5826 130.035C53.804 129.618 53.9928 129.215 54.149 128.824C54.3053 128.421 54.416 128.03 54.4811 127.652C54.5462 127.262 54.5201 126.878 54.403 126.5C54.0774 126.383 53.6998 126.409 53.2701 126.578C52.8535 126.747 52.4108 127.008 51.942 127.359C51.4733 127.698 50.985 128.102 50.4772 128.57C49.9824 129.026 49.4941 129.495 49.0123 129.977C48.5436 130.445 48.0944 130.895 47.6647 131.324C47.235 131.754 46.8444 132.112 46.4928 132.398C46.1543 132.672 45.8678 132.848 45.6334 132.926C45.399 132.991 45.2428 132.906 45.1647 132.672C45.1517 132.659 45.2233 132.496 45.3795 132.184C45.5488 131.858 45.7506 131.454 45.985 130.973C46.2324 130.491 46.4993 129.97 46.7858 129.41C47.0852 128.85 47.3652 128.329 47.6256 127.848C47.886 127.353 48.1139 126.936 48.3092 126.598C48.5045 126.259 48.6282 126.077 48.6803 126.051C48.9537 126.233 49.0905 126.435 49.0905 126.656C49.1035 126.865 49.0709 127.086 48.9928 127.32C48.9147 127.542 48.8235 127.77 48.7194 128.004C48.6282 128.238 48.6152 128.473 48.6803 128.707C48.8886 128.564 49.1751 128.368 49.5397 128.121C49.9173 127.861 50.3209 127.594 50.7506 127.32C51.1933 127.047 51.649 126.78 52.1178 126.52C52.5996 126.259 53.0488 126.057 53.4655 125.914C53.8821 125.758 54.2532 125.673 54.5787 125.66C54.9173 125.647 55.1647 125.745 55.3209 125.953C55.4772 126.161 55.5227 126.507 55.4576 126.988C55.4056 127.457 55.2037 128.102 54.8522 128.922C54.8131 129.013 54.7155 129.234 54.5592 129.586C54.416 129.924 54.2532 130.296 54.0709 130.699C53.9017 131.09 53.7389 131.461 53.5826 131.812C53.4394 132.151 53.3483 132.366 53.3092 132.457C53.2962 132.509 53.2767 132.607 53.2506 132.75C53.2376 132.88 53.2181 133.03 53.192 133.199C53.166 133.355 53.1269 133.512 53.0748 133.668C53.0227 133.811 52.9576 133.922 52.8795 134C52.8014 134.078 52.7102 134.072 52.6061 133.98C52.5019 133.876 52.4433 133.811 52.4303 133.785ZM59.6061 133.785C59.0592 133.564 58.7142 133.232 58.5709 132.789C58.4407 132.346 58.4472 131.858 58.5905 131.324C58.7337 130.777 58.9811 130.217 59.3326 129.645C59.6842 129.059 60.0748 128.525 60.5045 128.043C60.9342 127.561 61.3639 127.158 61.7936 126.832C62.2363 126.493 62.6139 126.305 62.9264 126.266C63.7337 126.161 64.3652 126.22 64.8209 126.441C65.2897 126.65 65.6087 126.956 65.778 127.359C65.9472 127.763 65.9928 128.238 65.9147 128.785C65.8365 129.319 65.6608 129.859 65.3873 130.406C65.1269 130.953 64.7819 131.48 64.3522 131.988C63.9355 132.496 63.4668 132.926 62.9459 133.277C62.4381 133.616 61.8977 133.844 61.3248 133.961C60.7519 134.065 60.179 134.007 59.6061 133.785ZM59.3912 132.672C59.4954 133.089 59.7168 133.323 60.0553 133.375C60.3938 133.414 60.7845 133.329 61.2272 133.121C61.6829 132.9 62.1582 132.587 62.653 132.184C63.1477 131.767 63.597 131.318 64.0006 130.836C64.4173 130.354 64.7558 129.872 65.0162 129.391C65.2897 128.896 65.4199 128.466 65.4069 128.102C65.4069 127.737 65.2311 127.464 64.8795 127.281C64.541 127.086 63.9681 127.047 63.1608 127.164C62.9785 127.333 62.7441 127.542 62.4576 127.789C62.1712 128.023 61.8717 128.284 61.5592 128.57C61.2597 128.857 60.9602 129.169 60.6608 129.508C60.3613 129.833 60.1009 130.172 59.8795 130.523C59.6582 130.875 59.4954 131.233 59.3912 131.598C59.3001 131.962 59.3001 132.32 59.3912 132.672ZM74.985 133.785C74.7246 133.59 74.5227 133.336 74.3795 133.023C74.2363 132.711 74.1256 132.379 74.0475 132.027C73.9824 131.676 73.9368 131.324 73.9108 130.973C73.8847 130.621 73.8717 130.309 73.8717 130.035C73.8457 130.009 73.8066 129.996 73.7545 129.996C73.7155 129.996 73.6829 130.009 73.6569 130.035C73.3313 130.27 73.0188 130.549 72.7194 130.875C72.4199 131.201 72.1204 131.533 71.8209 131.871C71.5345 132.21 71.248 132.548 70.9615 132.887C70.6881 133.212 70.4082 133.512 70.1217 133.785C69.9394 133.85 69.7506 133.87 69.5553 133.844C69.36 133.805 69.1907 133.74 69.0475 133.648C68.9173 133.544 68.8196 133.414 68.7545 133.258C68.7024 133.089 68.722 132.893 68.8131 132.672C69.0605 131.878 69.3274 131.038 69.6139 130.152C69.9134 129.254 70.2259 128.401 70.5514 127.594C70.6686 127.307 70.7923 127.151 70.9225 127.125C71.0657 127.099 71.1894 127.151 71.2936 127.281C71.3977 127.411 71.4694 127.594 71.5084 127.828C71.5475 128.049 71.528 128.271 71.4498 128.492C71.4108 128.596 71.3392 128.785 71.235 129.059C71.1308 129.319 71.0201 129.605 70.903 129.918C70.7858 130.217 70.6751 130.504 70.5709 130.777C70.4668 131.051 70.3951 131.24 70.3561 131.344V132.008C70.7597 131.643 71.0983 131.318 71.3717 131.031C71.6451 130.745 71.899 130.458 72.1334 130.172C72.3808 129.872 72.6347 129.56 72.8951 129.234C73.1556 128.896 73.4811 128.499 73.8717 128.043C74.1712 127.691 74.4056 127.503 74.5748 127.477C74.7441 127.438 74.8678 127.509 74.9459 127.691C75.0371 127.861 75.0892 128.115 75.1022 128.453C75.1152 128.779 75.1152 129.137 75.1022 129.527C75.1022 129.905 75.0892 130.289 75.0631 130.68C75.0371 131.057 75.024 131.389 75.024 131.676C75.0371 131.949 75.0696 132.151 75.1217 132.281C75.1738 132.398 75.2714 132.385 75.4147 132.242C75.5709 131.995 75.7988 131.637 76.0983 131.168C76.3977 130.699 76.7363 130.185 77.1139 129.625C77.4915 129.052 77.9017 128.479 78.3444 127.906C78.8001 127.32 79.2623 126.799 79.7311 126.344C80.1998 125.875 80.6686 125.51 81.1373 125.25C81.6061 124.977 82.0553 124.872 82.485 124.938C82.498 124.99 82.4199 125.133 82.2506 125.367C82.0944 125.602 81.8795 125.882 81.6061 126.207C81.3457 126.52 81.0527 126.865 80.7272 127.242C80.4147 127.607 80.1022 127.958 79.7897 128.297C79.4902 128.635 79.2233 128.941 78.9889 129.215C78.7545 129.488 78.5918 129.69 78.5006 129.82C78.4615 129.872 78.3769 129.99 78.2467 130.172C78.1295 130.341 77.9863 130.549 77.817 130.797C77.6608 131.031 77.485 131.285 77.2897 131.559C77.1074 131.832 76.9316 132.092 76.7623 132.34C76.5931 132.587 76.4433 132.802 76.3131 132.984C76.1959 133.167 76.1178 133.284 76.0787 133.336C75.9615 133.505 75.8639 133.642 75.7858 133.746C75.7076 133.85 75.6295 133.922 75.5514 133.961C75.4863 134 75.4082 134.007 75.317 133.98C75.2259 133.954 75.1152 133.889 74.985 133.785ZM86.692 133.785C86.3014 133.655 86.0019 133.46 85.7936 133.199C85.5983 132.926 85.4681 132.626 85.403 132.301C85.3378 131.975 85.3248 131.637 85.3639 131.285C85.416 130.921 85.4941 130.576 85.5983 130.25C85.9889 129.833 86.4251 129.358 86.9069 128.824C87.4017 128.277 87.9225 127.743 88.4694 127.223C89.0162 126.702 89.5826 126.22 90.1686 125.777C90.7675 125.322 91.373 124.977 91.985 124.742C92.1933 124.651 92.3561 124.658 92.4733 124.762C92.6035 124.853 92.6946 125.003 92.7467 125.211C92.7988 125.419 92.8183 125.66 92.8053 125.934C92.8053 126.207 92.7858 126.474 92.7467 126.734C92.7076 126.995 92.6556 127.229 92.5905 127.438C92.5253 127.646 92.4602 127.789 92.3951 127.867C92.2389 128.049 91.9329 128.264 91.4772 128.512C91.0345 128.759 90.5397 129.033 89.9928 129.332C89.4459 129.618 88.899 129.918 88.3522 130.23C87.8053 130.543 87.3561 130.855 87.0045 131.168C86.653 131.467 86.4446 131.767 86.3795 132.066C86.3144 132.366 86.4967 132.639 86.9264 132.887C87.3691 132.939 87.903 132.919 88.528 132.828C89.166 132.724 89.8105 132.594 90.4615 132.438C91.1256 132.268 91.7636 132.099 92.3756 131.93C92.9876 131.747 93.4889 131.604 93.8795 131.5L94.1139 131.715C93.8274 132.092 93.3587 132.438 92.7076 132.75C92.0566 133.062 91.3535 133.323 90.5983 133.531C89.8431 133.727 89.1074 133.857 88.3912 133.922C87.6751 133.974 87.1087 133.928 86.692 133.785ZM91.36 126.324C91.347 126.311 91.2493 126.37 91.067 126.5C90.8847 126.617 90.6569 126.78 90.3834 126.988C90.123 127.184 89.8365 127.405 89.524 127.652C89.2246 127.887 88.9446 128.108 88.6842 128.316C88.4368 128.525 88.2285 128.707 88.0592 128.863C87.8899 129.007 87.8183 129.078 87.8444 129.078C88.0527 129.117 88.3196 129.091 88.6451 129C88.9837 128.896 89.3287 128.753 89.6803 128.57C90.0449 128.388 90.3899 128.186 90.7155 127.965C91.041 127.73 91.2949 127.503 91.4772 127.281C91.6725 127.06 91.7701 126.865 91.7701 126.695C91.7832 126.526 91.6464 126.402 91.36 126.324ZM96.6412 133.785C96.2636 133.512 96.0162 133.167 95.899 132.75C95.7949 132.333 95.7819 131.884 95.86 131.402C95.9381 130.908 96.0748 130.4 96.2701 129.879C96.4785 129.358 96.6998 128.857 96.9342 128.375C97.1816 127.893 97.416 127.451 97.6373 127.047C97.8717 126.643 98.054 126.311 98.1842 126.051C98.2233 125.973 98.3144 125.784 98.4576 125.484C98.6139 125.185 98.7767 124.859 98.9459 124.508C99.1152 124.156 99.2714 123.831 99.4147 123.531C99.5709 123.219 99.6686 123.023 99.7076 122.945C99.7467 122.88 99.7988 122.757 99.8639 122.574C99.942 122.379 100.027 122.171 100.118 121.949C100.209 121.728 100.307 121.52 100.411 121.324C100.528 121.116 100.645 120.966 100.762 120.875C100.893 120.784 101.016 120.771 101.133 120.836C101.264 120.901 101.387 121.096 101.505 121.422C101.452 121.552 101.322 121.812 101.114 122.203C100.919 122.594 100.684 123.062 100.411 123.609C100.137 124.156 99.8313 124.762 99.4928 125.426C99.1673 126.09 98.8483 126.76 98.5358 127.438C98.2233 128.115 97.9303 128.779 97.6569 129.43C97.3834 130.068 97.1556 130.654 96.9733 131.188C96.804 131.708 96.6998 132.145 96.6608 132.496C96.6347 132.835 96.6998 133.043 96.8561 133.121C97.0384 133.212 97.2727 133.251 97.5592 133.238C97.8587 133.212 98.1647 133.173 98.4772 133.121C98.7897 133.069 99.0957 133.017 99.3951 132.965C99.6946 132.9 99.955 132.874 100.176 132.887C100.228 133.004 100.189 133.121 100.059 133.238C99.929 133.342 99.7467 133.44 99.5123 133.531C99.278 133.609 99.0045 133.681 98.692 133.746C98.3925 133.798 98.0996 133.837 97.8131 133.863C97.5397 133.889 97.2923 133.896 97.0709 133.883C96.8626 133.87 96.7194 133.837 96.6412 133.785ZM112.333 133.551C111.838 133.212 111.48 132.796 111.258 132.301C111.037 131.793 110.874 131.253 110.77 130.68H110.555C109.501 131.539 108.583 132.184 107.801 132.613C107.033 133.043 106.382 133.31 105.848 133.414C105.314 133.505 104.898 133.46 104.598 133.277C104.299 133.095 104.103 132.835 104.012 132.496C103.934 132.145 103.954 131.734 104.071 131.266C104.188 130.797 104.39 130.328 104.676 129.859C104.963 129.378 105.334 128.922 105.79 128.492C106.245 128.062 106.766 127.711 107.352 127.438C107.951 127.164 108.609 126.995 109.325 126.93C110.054 126.852 110.835 126.93 111.669 127.164L111.883 126.93L114.52 121.637C114.872 121.689 115.08 121.845 115.145 122.105C115.21 122.366 115.204 122.652 115.126 122.965C115.061 123.277 114.956 123.583 114.813 123.883C114.683 124.169 114.585 124.378 114.52 124.508C114.481 124.586 114.403 124.736 114.286 124.957C114.182 125.178 114.051 125.445 113.895 125.758C113.752 126.057 113.596 126.376 113.426 126.715C113.257 127.053 113.094 127.379 112.938 127.691C112.795 127.991 112.665 128.258 112.547 128.492C112.43 128.714 112.359 128.857 112.333 128.922C112.098 129.404 111.988 129.918 112.001 130.465C112.027 130.999 112.059 131.513 112.098 132.008C112.15 132.242 112.255 132.438 112.411 132.594C112.567 132.737 112.73 132.874 112.899 133.004C113.081 133.121 113.257 133.238 113.426 133.355C113.609 133.473 113.758 133.616 113.876 133.785C113.824 133.954 113.719 134.039 113.563 134.039C113.407 134.052 113.244 134.026 113.075 133.961C112.906 133.896 112.749 133.818 112.606 133.727C112.463 133.635 112.372 133.577 112.333 133.551ZM105.047 132.672C105.1 132.893 105.295 132.958 105.633 132.867C105.985 132.776 106.395 132.587 106.864 132.301C107.333 132.001 107.827 131.643 108.348 131.227C108.882 130.81 109.357 130.393 109.774 129.977C110.204 129.56 110.536 129.176 110.77 128.824C111.018 128.473 111.096 128.212 111.005 128.043C110.601 127.822 110.152 127.711 109.657 127.711C109.162 127.711 108.667 127.802 108.172 127.984C107.691 128.154 107.222 128.401 106.766 128.727C106.324 129.039 105.946 129.404 105.633 129.82C105.334 130.237 105.119 130.693 104.989 131.188C104.872 131.669 104.891 132.164 105.047 132.672ZM113.922 139.508C113.519 139.365 113.193 139.15 112.946 138.863C112.686 138.577 112.49 138.264 112.36 137.926C112.217 137.6 112.132 137.268 112.106 136.93C112.067 136.591 112.074 136.292 112.126 136.031C112.165 135.771 112.243 135.569 112.36 135.426C112.464 135.296 112.588 135.263 112.731 135.328C112.718 136.461 112.855 137.314 113.141 137.887C113.415 138.473 113.779 138.837 114.235 138.98C114.678 139.137 115.186 139.104 115.758 138.883C116.318 138.661 116.885 138.316 117.458 137.848C118.044 137.392 118.597 136.839 119.118 136.188C119.652 135.549 120.101 134.879 120.465 134.176C120.83 133.486 121.09 132.802 121.247 132.125C121.403 131.435 121.396 130.81 121.227 130.25C120.055 131.096 119.144 131.63 118.493 131.852C117.842 132.073 117.386 132.086 117.126 131.891C116.878 131.682 116.8 131.318 116.891 130.797C116.982 130.276 117.178 129.703 117.477 129.078C117.777 128.453 118.154 127.828 118.61 127.203C119.066 126.565 119.534 126.031 120.016 125.602C120.498 125.172 120.96 124.898 121.403 124.781C121.859 124.664 122.236 124.801 122.536 125.191C122.835 125.595 123.024 126.142 123.102 126.832C123.18 127.509 123.161 128.264 123.044 129.098C122.926 129.931 122.718 130.803 122.419 131.715C122.132 132.626 121.774 133.512 121.344 134.371C120.915 135.243 120.42 136.051 119.86 136.793C119.313 137.535 118.721 138.154 118.083 138.648C117.445 139.143 116.774 139.475 116.071 139.645C115.368 139.827 114.652 139.781 113.922 139.508ZM117.907 129.82C117.894 129.859 117.881 129.931 117.868 130.035C117.868 130.139 117.868 130.25 117.868 130.367C117.868 130.484 117.868 130.595 117.868 130.699C117.881 130.803 117.894 130.875 117.907 130.914C118.324 131.018 118.753 130.921 119.196 130.621C119.639 130.322 120.042 129.938 120.407 129.469C120.784 129 121.097 128.505 121.344 127.984C121.605 127.464 121.761 127.027 121.813 126.676C121.878 126.324 121.813 126.129 121.618 126.09C121.422 126.038 121.064 126.246 120.544 126.715C120.387 126.858 120.179 127.053 119.919 127.301C119.658 127.548 119.391 127.815 119.118 128.102C118.857 128.388 118.61 128.688 118.376 129C118.154 129.299 117.998 129.573 117.907 129.82ZM127.29 133.785C126.899 133.655 126.6 133.46 126.391 133.199C126.196 132.926 126.066 132.626 126.001 132.301C125.936 131.975 125.922 131.637 125.962 131.285C126.014 130.921 126.092 130.576 126.196 130.25C126.587 129.833 127.023 129.358 127.505 128.824C127.999 128.277 128.52 127.743 129.067 127.223C129.614 126.702 130.18 126.22 130.766 125.777C131.365 125.322 131.971 124.977 132.583 124.742C132.791 124.651 132.954 124.658 133.071 124.762C133.201 124.853 133.292 125.003 133.344 125.211C133.396 125.419 133.416 125.66 133.403 125.934C133.403 126.207 133.383 126.474 133.344 126.734C133.305 126.995 133.253 127.229 133.188 127.438C133.123 127.646 133.058 127.789 132.993 127.867C132.837 128.049 132.531 128.264 132.075 128.512C131.632 128.759 131.137 129.033 130.59 129.332C130.044 129.618 129.497 129.918 128.95 130.23C128.403 130.543 127.954 130.855 127.602 131.168C127.251 131.467 127.042 131.767 126.977 132.066C126.912 132.366 127.094 132.639 127.524 132.887C127.967 132.939 128.501 132.919 129.126 132.828C129.764 132.724 130.408 132.594 131.059 132.438C131.723 132.268 132.361 132.099 132.973 131.93C133.585 131.747 134.087 131.604 134.477 131.5L134.712 131.715C134.425 132.092 133.956 132.438 133.305 132.75C132.654 133.062 131.951 133.323 131.196 133.531C130.441 133.727 129.705 133.857 128.989 133.922C128.273 133.974 127.706 133.928 127.29 133.785ZM131.958 126.324C131.945 126.311 131.847 126.37 131.665 126.5C131.482 126.617 131.255 126.78 130.981 126.988C130.721 127.184 130.434 127.405 130.122 127.652C129.822 127.887 129.542 128.108 129.282 128.316C129.034 128.525 128.826 128.707 128.657 128.863C128.488 129.007 128.416 129.078 128.442 129.078C128.65 129.117 128.917 129.091 129.243 129C129.581 128.896 129.926 128.753 130.278 128.57C130.643 128.388 130.988 128.186 131.313 127.965C131.639 127.73 131.893 127.503 132.075 127.281C132.27 127.06 132.368 126.865 132.368 126.695C132.381 126.526 132.244 126.402 131.958 126.324Z" fill="black"/>
<path d="M218.504 99.7852C218.439 99.7591 218.283 99.6875 218.035 99.5703C217.801 99.4531 217.579 99.3164 217.371 99.1602C217.163 99.0039 217.013 98.8411 216.922 98.6719C216.844 98.5026 216.928 98.3594 217.176 98.2422C217.319 98.3724 217.514 98.5286 217.762 98.7109C218.022 98.8932 218.27 99.0299 218.504 99.1211C219.22 99.1602 219.917 99.1667 220.594 99.1406C221.271 99.1016 221.928 99.0169 222.566 98.8867C223.217 98.7435 223.842 98.5352 224.441 98.2617C225.053 97.9753 225.646 97.6042 226.219 97.1484C226.857 96.6146 227.273 96.1263 227.469 95.6836C227.677 95.2279 227.716 94.8112 227.586 94.4336C227.469 94.043 227.215 93.6849 226.824 93.3594C226.447 93.0208 225.991 92.7083 225.457 92.4219C224.936 92.1224 224.376 91.849 223.777 91.6016C223.178 91.3411 222.605 91.0938 222.059 90.8594C221.512 90.612 221.017 90.3711 220.574 90.1367C220.132 89.9023 219.806 89.6615 219.598 89.4141C219.546 89.1927 219.656 88.9323 219.93 88.6328C220.203 88.3333 220.581 88.0273 221.062 87.7148C221.544 87.3893 222.098 87.0703 222.723 86.7578C223.348 86.4323 223.986 86.1393 224.637 85.8789C225.301 85.6185 225.939 85.3971 226.551 85.2148C227.176 85.0326 227.723 84.9219 228.191 84.8828C228.66 84.8307 229.018 84.8633 229.266 84.9805C229.513 85.0977 229.598 85.319 229.52 85.6445C229.428 85.6576 229.194 85.7161 228.816 85.8203C228.439 85.9245 227.977 86.0547 227.43 86.2109C226.896 86.3672 226.31 86.5495 225.672 86.7578C225.047 86.9661 224.428 87.1875 223.816 87.4219C223.204 87.6432 222.638 87.8711 222.117 88.1055C221.596 88.3398 221.186 88.5677 220.887 88.7891C220.587 89.0104 220.418 89.2122 220.379 89.3945C220.353 89.5768 220.529 89.7331 220.906 89.8633C222.807 90.4362 224.298 91.0482 225.379 91.6992C226.473 92.3372 227.241 92.9883 227.684 93.6523C228.126 94.3034 228.296 94.9479 228.191 95.5859C228.087 96.224 227.801 96.8164 227.332 97.3633C226.876 97.9102 226.277 98.3984 225.535 98.8281C224.793 99.2448 224.005 99.5703 223.172 99.8047C222.352 100.039 221.525 100.163 220.691 100.176C219.871 100.189 219.142 100.059 218.504 99.7852ZM232.379 99.7852C231.988 99.6549 231.689 99.4596 231.48 99.1992C231.285 98.9258 231.155 98.6263 231.09 98.3008C231.025 97.9753 231.012 97.6367 231.051 97.2852C231.103 96.9206 231.181 96.5755 231.285 96.25C231.676 95.8333 232.112 95.3581 232.594 94.8242C233.089 94.2773 233.609 93.7435 234.156 93.2227C234.703 92.7018 235.27 92.2201 235.855 91.7773C236.454 91.3216 237.06 90.9766 237.672 90.7422C237.88 90.651 238.043 90.6576 238.16 90.7617C238.29 90.8529 238.382 91.0026 238.434 91.2109C238.486 91.4193 238.505 91.6602 238.492 91.9336C238.492 92.207 238.473 92.474 238.434 92.7344C238.395 92.9948 238.342 93.2292 238.277 93.4375C238.212 93.6458 238.147 93.7891 238.082 93.8672C237.926 94.0495 237.62 94.2643 237.164 94.5117C236.721 94.7591 236.227 95.0326 235.68 95.332C235.133 95.6185 234.586 95.918 234.039 96.2305C233.492 96.543 233.043 96.8555 232.691 97.168C232.34 97.4674 232.132 97.7669 232.066 98.0664C232.001 98.3659 232.184 98.6393 232.613 98.8867C233.056 98.9388 233.59 98.9193 234.215 98.8281C234.853 98.724 235.497 98.5938 236.148 98.4375C236.812 98.2682 237.451 98.099 238.062 97.9297C238.674 97.7474 239.176 97.6042 239.566 97.5L239.801 97.7148C239.514 98.0924 239.046 98.4375 238.395 98.75C237.743 99.0625 237.04 99.3229 236.285 99.5312C235.53 99.7266 234.794 99.8568 234.078 99.9219C233.362 99.974 232.796 99.9284 232.379 99.7852ZM237.047 92.3242C237.034 92.3112 236.936 92.3698 236.754 92.5C236.572 92.6172 236.344 92.7799 236.07 92.9883C235.81 93.1836 235.523 93.4049 235.211 93.6523C234.911 93.8867 234.632 94.1081 234.371 94.3164C234.124 94.5247 233.915 94.707 233.746 94.8633C233.577 95.0065 233.505 95.0781 233.531 95.0781C233.74 95.1172 234.007 95.0911 234.332 95C234.671 94.8958 235.016 94.7526 235.367 94.5703C235.732 94.388 236.077 94.1862 236.402 93.9648C236.728 93.7305 236.982 93.5026 237.164 93.2812C237.359 93.0599 237.457 92.8646 237.457 92.6953C237.47 92.526 237.333 92.4023 237.047 92.3242ZM248.832 99.7852C248.793 99.3555 248.826 98.9323 248.93 98.5156C249.047 98.0859 249.197 97.6693 249.379 97.2656C249.574 96.849 249.776 96.4388 249.984 96.0352C250.206 95.6185 250.395 95.2148 250.551 94.8242C250.707 94.4206 250.818 94.0299 250.883 93.6523C250.948 93.2617 250.922 92.8776 250.805 92.5C250.479 92.3828 250.102 92.4089 249.672 92.5781C249.255 92.7474 248.812 93.0078 248.344 93.3594C247.875 93.6979 247.387 94.1016 246.879 94.5703C246.384 95.026 245.896 95.4948 245.414 95.9766C244.945 96.4453 244.496 96.8945 244.066 97.3242C243.637 97.7539 243.246 98.112 242.895 98.3984C242.556 98.6719 242.27 98.8477 242.035 98.9258C241.801 98.9909 241.645 98.9062 241.566 98.6719C241.553 98.6589 241.625 98.4961 241.781 98.1836C241.951 97.8581 242.152 97.4544 242.387 96.9727C242.634 96.4909 242.901 95.9701 243.188 95.4102C243.487 94.8503 243.767 94.3294 244.027 93.8477C244.288 93.3529 244.516 92.9362 244.711 92.5977C244.906 92.2591 245.03 92.0768 245.082 92.0508C245.355 92.2331 245.492 92.4349 245.492 92.6562C245.505 92.8646 245.473 93.0859 245.395 93.3203C245.316 93.5417 245.225 93.7695 245.121 94.0039C245.03 94.2383 245.017 94.4727 245.082 94.707C245.29 94.5638 245.577 94.3685 245.941 94.1211C246.319 93.8607 246.723 93.5938 247.152 93.3203C247.595 93.0469 248.051 92.7799 248.52 92.5195C249.001 92.2591 249.451 92.0573 249.867 91.9141C250.284 91.7578 250.655 91.6732 250.98 91.6602C251.319 91.6471 251.566 91.7448 251.723 91.9531C251.879 92.1615 251.924 92.5065 251.859 92.9883C251.807 93.457 251.605 94.1016 251.254 94.9219C251.215 95.013 251.117 95.2344 250.961 95.5859C250.818 95.9245 250.655 96.2956 250.473 96.6992C250.303 97.0898 250.141 97.4609 249.984 97.8125C249.841 98.151 249.75 98.3659 249.711 98.457C249.698 98.5091 249.678 98.6068 249.652 98.75C249.639 98.8802 249.62 99.0299 249.594 99.1992C249.568 99.3555 249.529 99.5117 249.477 99.668C249.424 99.8112 249.359 99.9219 249.281 100C249.203 100.078 249.112 100.072 249.008 99.9805C248.904 99.8763 248.845 99.8112 248.832 99.7852ZM255.031 99.7852C254.875 99.681 254.868 99.5443 255.012 99.375C255.168 99.1927 255.409 99.0039 255.734 98.8086C256.073 98.6003 256.464 98.3854 256.906 98.1641C257.349 97.9427 257.772 97.7344 258.176 97.5391C258.592 97.3438 258.957 97.1745 259.27 97.0312C259.582 96.875 259.784 96.7578 259.875 96.6797C260.305 96.3151 260.526 96.0156 260.539 95.7812C260.565 95.5339 260.461 95.3385 260.227 95.1953C259.992 95.0391 259.66 94.9219 259.23 94.8438C258.814 94.7526 258.378 94.6745 257.922 94.6094C257.479 94.5312 257.049 94.4531 256.633 94.375C256.229 94.2969 255.923 94.1927 255.715 94.0625C255.507 93.9323 255.435 93.763 255.5 93.5547C255.578 93.3333 255.865 93.0534 256.359 92.7148C256.542 92.5846 256.809 92.3958 257.16 92.1484C257.512 91.901 257.889 91.6471 258.293 91.3867C258.71 91.1263 259.12 90.8919 259.523 90.6836C259.927 90.4753 260.266 90.3385 260.539 90.2734C260.682 90.2474 260.826 90.2604 260.969 90.3125C261.125 90.3646 261.249 90.4427 261.34 90.5469C261.431 90.638 261.47 90.7422 261.457 90.8594C261.457 90.9766 261.372 91.0807 261.203 91.1719C260.461 91.5885 259.745 91.9792 259.055 92.3438C258.378 92.7083 257.694 93.125 257.004 93.5938C256.965 93.6979 256.971 93.7891 257.023 93.8672C257.089 93.9453 257.16 94.0039 257.238 94.043C258.618 94.1862 259.654 94.388 260.344 94.6484C261.047 94.9089 261.49 95.1953 261.672 95.5078C261.867 95.8203 261.848 96.1523 261.613 96.5039C261.379 96.8555 261.027 97.2005 260.559 97.5391C260.103 97.8776 259.576 98.1966 258.977 98.4961C258.378 98.7956 257.798 99.0495 257.238 99.2578C256.691 99.4661 256.21 99.6224 255.793 99.7266C255.376 99.8307 255.122 99.8503 255.031 99.7852ZM265.859 99.7852C265.469 99.6549 265.169 99.4596 264.961 99.1992C264.766 98.9258 264.635 98.6263 264.57 98.3008C264.505 97.9753 264.492 97.6367 264.531 97.2852C264.583 96.9206 264.661 96.5755 264.766 96.25C265.156 95.8333 265.592 95.3581 266.074 94.8242C266.569 94.2773 267.09 93.7435 267.637 93.2227C268.184 92.7018 268.75 92.2201 269.336 91.7773C269.935 91.3216 270.54 90.9766 271.152 90.7422C271.361 90.651 271.523 90.6576 271.641 90.7617C271.771 90.8529 271.862 91.0026 271.914 91.2109C271.966 91.4193 271.986 91.6602 271.973 91.9336C271.973 92.207 271.953 92.474 271.914 92.7344C271.875 92.9948 271.823 93.2292 271.758 93.4375C271.693 93.6458 271.628 93.7891 271.562 93.8672C271.406 94.0495 271.1 94.2643 270.645 94.5117C270.202 94.7591 269.707 95.0326 269.16 95.332C268.613 95.6185 268.066 95.918 267.52 96.2305C266.973 96.543 266.523 96.8555 266.172 97.168C265.82 97.4674 265.612 97.7669 265.547 98.0664C265.482 98.3659 265.664 98.6393 266.094 98.8867C266.536 98.9388 267.07 98.9193 267.695 98.8281C268.333 98.724 268.978 98.5938 269.629 98.4375C270.293 98.2682 270.931 98.099 271.543 97.9297C272.155 97.7474 272.656 97.6042 273.047 97.5L273.281 97.7148C272.995 98.0924 272.526 98.4375 271.875 98.75C271.224 99.0625 270.521 99.3229 269.766 99.5312C269.01 99.7266 268.275 99.8568 267.559 99.9219C266.842 99.974 266.276 99.9284 265.859 99.7852ZM270.527 92.3242C270.514 92.3112 270.417 92.3698 270.234 92.5C270.052 92.6172 269.824 92.7799 269.551 92.9883C269.29 93.1836 269.004 93.4049 268.691 93.6523C268.392 93.8867 268.112 94.1081 267.852 94.3164C267.604 94.5247 267.396 94.707 267.227 94.8633C267.057 95.0065 266.986 95.0781 267.012 95.0781C267.22 95.1172 267.487 95.0911 267.812 95C268.151 94.8958 268.496 94.7526 268.848 94.5703C269.212 94.388 269.557 94.1862 269.883 93.9648C270.208 93.7305 270.462 93.5026 270.645 93.2812C270.84 93.0599 270.938 92.8646 270.938 92.6953C270.951 92.526 270.814 92.4023 270.527 92.3242ZM287.984 99.5508C287.958 99.5247 287.945 99.4531 287.945 99.3359C287.945 99.2188 287.958 99.1471 287.984 99.1211L289.625 95.3516H287.77C287.73 95.3516 287.691 95.3255 287.652 95.2734C287.626 95.2214 287.6 95.1628 287.574 95.0977C287.561 95.0195 287.548 94.9479 287.535 94.8828C287.522 94.8047 287.529 94.7461 287.555 94.707C287.594 94.694 287.665 94.668 287.77 94.6289C287.874 94.5898 287.984 94.5443 288.102 94.4922C288.219 94.4401 288.329 94.3945 288.434 94.3555C288.538 94.3164 288.609 94.2839 288.648 94.2578C288.688 94.2448 288.792 94.2057 288.961 94.1406C289.143 94.0755 289.332 94.0104 289.527 93.9453C289.736 93.8672 289.924 93.7956 290.094 93.7305C290.263 93.6654 290.367 93.6198 290.406 93.5938C290.562 93.4896 290.745 93.2357 290.953 92.832C291.174 92.4154 291.422 91.9206 291.695 91.3477C291.969 90.7747 292.268 90.1628 292.594 89.5117C292.919 88.8477 293.271 88.2161 293.648 87.6172C294.026 87.0052 294.423 86.4648 294.84 85.9961C295.257 85.5143 295.686 85.1758 296.129 84.9805C296.585 84.7721 297.053 84.7396 297.535 84.8828C298.017 85.026 298.512 85.4102 299.02 86.0352C299.111 86.1654 299.176 86.3086 299.215 86.4648C299.254 86.6081 299.26 86.7578 299.234 86.9141C299.117 86.9792 299 86.9922 298.883 86.9531C298.766 86.9141 298.655 86.849 298.551 86.7578C298.46 86.6667 298.375 86.5755 298.297 86.4844C298.219 86.3802 298.167 86.3021 298.141 86.25C297.268 86.1068 296.572 86.1458 296.051 86.3672C295.543 86.5755 295.12 86.901 294.781 87.3438C294.456 87.7734 294.169 88.2878 293.922 88.8867C293.674 89.4857 293.388 90.1042 293.062 90.7422C292.971 90.8984 292.861 91.1003 292.73 91.3477C292.613 91.5951 292.496 91.8359 292.379 92.0703C292.262 92.3047 292.158 92.5065 292.066 92.6758C291.988 92.8451 291.949 92.9297 291.949 92.9297V93.1641C291.949 93.2161 292.112 93.2552 292.438 93.2812C292.763 93.3073 293.128 93.3464 293.531 93.3984C293.948 93.4505 294.345 93.5286 294.723 93.6328C295.113 93.724 295.367 93.8607 295.484 94.043L295.27 94.2578C294.527 94.2188 293.902 94.2057 293.395 94.2188C292.887 94.2318 292.444 94.3164 292.066 94.4727C291.689 94.6289 291.357 94.8828 291.07 95.2344C290.784 95.5729 290.491 96.0547 290.191 96.6797C290.087 96.901 289.951 97.1875 289.781 97.5391C289.612 97.8776 289.443 98.2161 289.273 98.5547C289.104 98.8802 288.961 99.1667 288.844 99.4141C288.727 99.6484 288.661 99.7721 288.648 99.7852L288.414 100C288.375 99.974 288.297 99.9089 288.18 99.8047C288.076 99.6875 288.01 99.6029 287.984 99.5508ZM299.926 99.7852C299.379 99.5638 299.034 99.2318 298.891 98.7891C298.76 98.3464 298.767 97.8581 298.91 97.3242C299.053 96.7773 299.301 96.2174 299.652 95.6445C300.004 95.0586 300.395 94.5247 300.824 94.043C301.254 93.5612 301.684 93.1576 302.113 92.832C302.556 92.4935 302.934 92.3047 303.246 92.2656C304.053 92.1615 304.685 92.2201 305.141 92.4414C305.609 92.6497 305.928 92.9557 306.098 93.3594C306.267 93.763 306.312 94.2383 306.234 94.7852C306.156 95.319 305.98 95.8594 305.707 96.4062C305.447 96.9531 305.102 97.4805 304.672 97.9883C304.255 98.4961 303.786 98.9258 303.266 99.2773C302.758 99.6159 302.217 99.8438 301.645 99.9609C301.072 100.065 300.499 100.007 299.926 99.7852ZM299.711 98.6719C299.815 99.0885 300.036 99.3229 300.375 99.375C300.714 99.4141 301.104 99.3294 301.547 99.1211C302.003 98.8997 302.478 98.5872 302.973 98.1836C303.467 97.7669 303.917 97.3177 304.32 96.8359C304.737 96.3542 305.076 95.8724 305.336 95.3906C305.609 94.8958 305.74 94.4661 305.727 94.1016C305.727 93.737 305.551 93.4635 305.199 93.2812C304.861 93.0859 304.288 93.0469 303.48 93.1641C303.298 93.3333 303.064 93.5417 302.777 93.7891C302.491 94.0234 302.191 94.2839 301.879 94.5703C301.579 94.8568 301.28 95.1693 300.98 95.5078C300.681 95.8333 300.421 96.1719 300.199 96.5234C299.978 96.875 299.815 97.2331 299.711 97.5977C299.62 97.9622 299.62 98.3203 299.711 98.6719ZM309.348 99.7852C309.322 99.7721 309.322 99.6224 309.348 99.3359C309.387 99.0365 309.439 98.6654 309.504 98.2227C309.569 97.7799 309.654 97.2917 309.758 96.7578C309.862 96.224 309.973 95.7161 310.09 95.2344C310.207 94.7396 310.331 94.3099 310.461 93.9453C310.604 93.5677 310.741 93.3073 310.871 93.1641C310.962 93.0729 311.053 93.0729 311.145 93.1641C311.236 93.2422 311.327 93.3464 311.418 93.4766C311.509 93.5938 311.6 93.7044 311.691 93.8086C311.783 93.8997 311.88 93.9062 311.984 93.8281C312.349 93.3203 312.746 92.8385 313.176 92.3828C313.618 91.9141 314.107 91.5104 314.641 91.1719C314.693 91.1328 314.836 91.0742 315.07 90.9961C315.305 90.9049 315.572 90.8203 315.871 90.7422C316.171 90.651 316.477 90.5794 316.789 90.5273C317.115 90.4622 317.388 90.4362 317.609 90.4492C317.844 90.4492 318 90.5078 318.078 90.625C318.169 90.7292 318.13 90.9115 317.961 91.1719C317.18 91.1849 316.451 91.4128 315.773 91.8555C315.096 92.2982 314.471 92.8451 313.898 93.4961C313.326 94.1471 312.805 94.8568 312.336 95.625C311.867 96.3802 311.457 97.0833 311.105 97.7344C310.767 98.3854 310.48 98.9258 310.246 99.3555C310.025 99.7852 309.862 100 309.758 100C309.745 100 309.686 99.974 309.582 99.9219C309.478 99.8568 309.4 99.8112 309.348 99.7852ZM213.24 118.785C213.774 117.066 214.256 115.706 214.686 114.703C215.128 113.688 215.493 112.978 215.779 112.574C216.079 112.171 216.281 112.04 216.385 112.184C216.489 112.327 216.476 112.691 216.346 113.277C216.229 113.863 215.968 114.651 215.564 115.641C215.174 116.617 214.62 117.737 213.904 119C213.8 119.039 213.676 119.046 213.533 119.02C213.39 118.993 213.292 118.915 213.24 118.785ZM216.658 109.391C216.632 109.326 216.619 109.208 216.619 109.039C216.619 108.87 216.632 108.766 216.658 108.727C216.958 108.622 217.186 108.609 217.342 108.688C217.498 108.766 217.596 108.883 217.635 109.039C217.674 109.182 217.667 109.339 217.615 109.508C217.576 109.677 217.505 109.807 217.4 109.898C217.296 109.977 217.173 109.99 217.029 109.938C216.899 109.872 216.775 109.69 216.658 109.391ZM227.604 118.785C227.564 118.355 227.597 117.932 227.701 117.516C227.818 117.086 227.968 116.669 228.15 116.266C228.346 115.849 228.548 115.439 228.756 115.035C228.977 114.618 229.166 114.215 229.322 113.824C229.479 113.421 229.589 113.03 229.654 112.652C229.719 112.262 229.693 111.878 229.576 111.5C229.251 111.383 228.873 111.409 228.443 111.578C228.027 111.747 227.584 112.008 227.115 112.359C226.646 112.698 226.158 113.102 225.65 113.57C225.156 114.026 224.667 114.495 224.186 114.977C223.717 115.445 223.268 115.895 222.838 116.324C222.408 116.754 222.018 117.112 221.666 117.398C221.327 117.672 221.041 117.848 220.807 117.926C220.572 117.991 220.416 117.906 220.338 117.672C220.325 117.659 220.396 117.496 220.553 117.184C220.722 116.858 220.924 116.454 221.158 115.973C221.406 115.491 221.673 114.97 221.959 114.41C222.258 113.85 222.538 113.329 222.799 112.848C223.059 112.353 223.287 111.936 223.482 111.598C223.678 111.259 223.801 111.077 223.854 111.051C224.127 111.233 224.264 111.435 224.264 111.656C224.277 111.865 224.244 112.086 224.166 112.32C224.088 112.542 223.997 112.77 223.893 113.004C223.801 113.238 223.788 113.473 223.854 113.707C224.062 113.564 224.348 113.368 224.713 113.121C225.09 112.861 225.494 112.594 225.924 112.32C226.367 112.047 226.822 111.78 227.291 111.52C227.773 111.259 228.222 111.057 228.639 110.914C229.055 110.758 229.426 110.673 229.752 110.66C230.09 110.647 230.338 110.745 230.494 110.953C230.65 111.161 230.696 111.507 230.631 111.988C230.579 112.457 230.377 113.102 230.025 113.922C229.986 114.013 229.889 114.234 229.732 114.586C229.589 114.924 229.426 115.296 229.244 115.699C229.075 116.09 228.912 116.461 228.756 116.812C228.613 117.151 228.521 117.366 228.482 117.457C228.469 117.509 228.45 117.607 228.424 117.75C228.411 117.88 228.391 118.03 228.365 118.199C228.339 118.355 228.3 118.512 228.248 118.668C228.196 118.811 228.131 118.922 228.053 119C227.975 119.078 227.883 119.072 227.779 118.98C227.675 118.876 227.617 118.811 227.604 118.785ZM240.854 118.785C240.814 118.355 240.847 117.932 240.951 117.516C241.068 117.086 241.218 116.669 241.4 116.266C241.596 115.849 241.798 115.439 242.006 115.035C242.227 114.618 242.416 114.215 242.572 113.824C242.729 113.421 242.839 113.03 242.904 112.652C242.969 112.262 242.943 111.878 242.826 111.5C242.501 111.383 242.123 111.409 241.693 111.578C241.277 111.747 240.834 112.008 240.365 112.359C239.896 112.698 239.408 113.102 238.9 113.57C238.406 114.026 237.917 114.495 237.436 114.977C236.967 115.445 236.518 115.895 236.088 116.324C235.658 116.754 235.268 117.112 234.916 117.398C234.577 117.672 234.291 117.848 234.057 117.926C233.822 117.991 233.666 117.906 233.588 117.672C233.575 117.659 233.646 117.496 233.803 117.184C233.972 116.858 234.174 116.454 234.408 115.973C234.656 115.491 234.923 114.97 235.209 114.41C235.508 113.85 235.788 113.329 236.049 112.848C236.309 112.353 236.537 111.936 236.732 111.598C236.928 111.259 237.051 111.077 237.104 111.051C237.377 111.233 237.514 111.435 237.514 111.656C237.527 111.865 237.494 112.086 237.416 112.32C237.338 112.542 237.247 112.77 237.143 113.004C237.051 113.238 237.038 113.473 237.104 113.707C237.312 113.564 237.598 113.368 237.963 113.121C238.34 112.861 238.744 112.594 239.174 112.32C239.617 112.047 240.072 111.78 240.541 111.52C241.023 111.259 241.472 111.057 241.889 110.914C242.305 110.758 242.676 110.673 243.002 110.66C243.34 110.647 243.588 110.745 243.744 110.953C243.9 111.161 243.946 111.507 243.881 111.988C243.829 112.457 243.627 113.102 243.275 113.922C243.236 114.013 243.139 114.234 242.982 114.586C242.839 114.924 242.676 115.296 242.494 115.699C242.325 116.09 242.162 116.461 242.006 116.812C241.863 117.151 241.771 117.366 241.732 117.457C241.719 117.509 241.7 117.607 241.674 117.75C241.661 117.88 241.641 118.03 241.615 118.199C241.589 118.355 241.55 118.512 241.498 118.668C241.446 118.811 241.381 118.922 241.303 119C241.225 119.078 241.133 119.072 241.029 118.98C240.925 118.876 240.867 118.811 240.854 118.785ZM248.029 118.785C247.482 118.564 247.137 118.232 246.994 117.789C246.864 117.346 246.87 116.858 247.014 116.324C247.157 115.777 247.404 115.217 247.756 114.645C248.107 114.059 248.498 113.525 248.928 113.043C249.357 112.561 249.787 112.158 250.217 111.832C250.66 111.493 251.037 111.305 251.35 111.266C252.157 111.161 252.788 111.22 253.244 111.441C253.713 111.65 254.032 111.956 254.201 112.359C254.37 112.763 254.416 113.238 254.338 113.785C254.26 114.319 254.084 114.859 253.811 115.406C253.55 115.953 253.205 116.48 252.775 116.988C252.359 117.496 251.89 117.926 251.369 118.277C250.861 118.616 250.321 118.844 249.748 118.961C249.175 119.065 248.602 119.007 248.029 118.785ZM247.814 117.672C247.919 118.089 248.14 118.323 248.479 118.375C248.817 118.414 249.208 118.329 249.65 118.121C250.106 117.9 250.581 117.587 251.076 117.184C251.571 116.767 252.02 116.318 252.424 115.836C252.84 115.354 253.179 114.872 253.439 114.391C253.713 113.896 253.843 113.466 253.83 113.102C253.83 112.737 253.654 112.464 253.303 112.281C252.964 112.086 252.391 112.047 251.584 112.164C251.402 112.333 251.167 112.542 250.881 112.789C250.594 113.023 250.295 113.284 249.982 113.57C249.683 113.857 249.383 114.169 249.084 114.508C248.785 114.833 248.524 115.172 248.303 115.523C248.081 115.875 247.919 116.233 247.814 116.598C247.723 116.962 247.723 117.32 247.814 117.672ZM257.998 118.551C257.725 118.395 257.529 118.147 257.412 117.809C257.295 117.47 257.23 117.086 257.217 116.656C257.204 116.227 257.23 115.777 257.295 115.309C257.36 114.84 257.438 114.384 257.529 113.941C257.62 113.499 257.712 113.102 257.803 112.75C257.894 112.398 257.959 112.125 257.998 111.93C258.063 111.891 258.128 111.891 258.193 111.93C258.271 111.969 258.343 112.027 258.408 112.105C258.486 112.171 258.545 112.236 258.584 112.301C258.636 112.353 258.662 112.379 258.662 112.379C258.701 112.835 258.701 113.284 258.662 113.727C258.636 114.156 258.597 114.586 258.545 115.016C258.506 115.445 258.467 115.882 258.428 116.324C258.402 116.767 258.402 117.216 258.428 117.672C258.532 117.867 258.747 117.874 259.072 117.691C259.398 117.496 259.795 117.19 260.264 116.773C260.732 116.344 261.24 115.842 261.787 115.27C262.347 114.684 262.894 114.104 263.428 113.531C263.975 112.958 264.489 112.424 264.971 111.93C265.452 111.422 265.856 111.038 266.182 110.777C266.52 110.504 266.755 110.393 266.885 110.445C267.015 110.484 266.995 110.758 266.826 111.266C266.514 111.539 266.143 111.949 265.713 112.496C265.283 113.043 264.814 113.635 264.307 114.273C263.799 114.898 263.271 115.523 262.725 116.148C262.178 116.773 261.624 117.314 261.064 117.77C260.518 118.212 259.984 118.525 259.463 118.707C258.942 118.876 258.454 118.824 257.998 118.551ZM270.369 118.551C270.057 118.29 269.881 117.906 269.842 117.398C269.816 116.891 269.887 116.318 270.057 115.68C270.239 115.042 270.499 114.378 270.838 113.688C271.189 112.984 271.593 112.32 272.049 111.695C272.505 111.057 272.999 110.491 273.533 109.996C274.067 109.488 274.601 109.117 275.135 108.883C275.669 108.635 276.189 108.551 276.697 108.629C277.205 108.694 277.667 108.987 278.084 109.508C278.344 109.833 278.501 110.165 278.553 110.504C278.605 110.829 278.598 111.168 278.533 111.52C278.468 111.858 278.364 112.21 278.221 112.574C278.077 112.926 277.934 113.284 277.791 113.648C277.661 114.013 277.55 114.384 277.459 114.762C277.381 115.139 277.368 115.523 277.42 115.914C277.485 116.409 277.706 116.702 278.084 116.793C278.462 116.884 278.911 116.858 279.432 116.715C279.965 116.572 280.525 116.344 281.111 116.031C281.697 115.719 282.238 115.406 282.732 115.094C283.24 114.781 283.657 114.508 283.982 114.273C284.321 114.039 284.49 113.922 284.49 113.922C284.855 113.844 285.057 113.87 285.096 114C285.148 114.117 285.076 114.299 284.881 114.547C284.699 114.781 284.419 115.055 284.041 115.367C283.663 115.667 283.234 115.96 282.752 116.246C282.27 116.533 281.756 116.793 281.209 117.027C280.662 117.262 280.128 117.424 279.607 117.516C279.087 117.594 278.592 117.587 278.123 117.496C277.667 117.392 277.29 117.158 276.99 116.793C276.847 116.637 276.736 116.48 276.658 116.324C276.593 116.168 276.482 116.031 276.326 115.914C276.131 116.096 275.896 116.337 275.623 116.637C275.35 116.923 275.05 117.216 274.725 117.516C274.412 117.802 274.074 118.076 273.709 118.336C273.357 118.596 272.993 118.792 272.615 118.922C272.238 119.052 271.854 119.098 271.463 119.059C271.085 119.02 270.721 118.85 270.369 118.551ZM270.584 117.887C270.701 118.303 270.962 118.499 271.365 118.473C271.769 118.434 272.238 118.232 272.771 117.867C273.305 117.503 273.859 117.008 274.432 116.383C275.005 115.745 275.519 115.042 275.975 114.273C276.43 113.492 276.775 112.672 277.01 111.812C277.257 110.953 277.322 110.107 277.205 109.273C276.893 109.026 276.502 109.02 276.033 109.254C275.564 109.475 275.063 109.846 274.529 110.367C274.008 110.875 273.488 111.487 272.967 112.203C272.459 112.906 272.01 113.622 271.619 114.352C271.229 115.068 270.929 115.745 270.721 116.383C270.525 117.021 270.48 117.522 270.584 117.887ZM286.744 118.785C286.731 118.759 286.725 118.688 286.725 118.57C286.725 118.453 286.731 118.375 286.744 118.336C286.783 118.193 286.855 117.945 286.959 117.594C287.063 117.229 287.174 116.852 287.291 116.461C287.408 116.057 287.519 115.68 287.623 115.328C287.727 114.977 287.799 114.729 287.838 114.586C287.89 114.404 287.949 114.195 288.014 113.961C288.079 113.714 288.092 113.479 288.053 113.258C287.857 113.232 287.617 113.258 287.33 113.336C287.044 113.401 286.757 113.46 286.471 113.512C286.197 113.551 285.937 113.551 285.689 113.512C285.455 113.46 285.286 113.303 285.182 113.043C285.338 112.717 285.572 112.509 285.885 112.418C286.197 112.314 286.536 112.242 286.9 112.203C287.265 112.164 287.61 112.105 287.936 112.027C288.274 111.949 288.541 111.773 288.736 111.5C288.854 111.161 288.99 110.751 289.146 110.27C289.316 109.775 289.492 109.26 289.674 108.727C289.856 108.193 290.051 107.665 290.26 107.145C290.481 106.624 290.709 106.161 290.943 105.758C291.087 105.667 291.204 105.66 291.295 105.738C291.386 105.816 291.451 105.934 291.49 106.09C291.542 106.233 291.575 106.383 291.588 106.539C291.601 106.695 291.601 106.799 291.588 106.852C291.51 107.19 291.373 107.555 291.178 107.945C290.995 108.323 290.82 108.707 290.65 109.098C290.494 109.488 290.364 109.879 290.26 110.27C290.169 110.66 290.169 111.031 290.26 111.383H294.459C294.472 111.383 294.505 111.428 294.557 111.52C294.609 111.598 294.654 111.663 294.693 111.715C294.758 111.897 294.687 112.021 294.479 112.086C294.27 112.151 293.99 112.197 293.639 112.223C293.287 112.236 292.883 112.249 292.428 112.262C291.985 112.262 291.555 112.294 291.139 112.359C290.735 112.411 290.37 112.509 290.045 112.652C289.719 112.783 289.498 112.984 289.381 113.258C289.042 114.13 288.73 115.009 288.443 115.895C288.157 116.767 287.883 117.652 287.623 118.551C287.597 118.59 287.545 118.655 287.467 118.746C287.389 118.824 287.304 118.896 287.213 118.961C287.122 119.013 287.031 119.033 286.939 119.02C286.861 119.007 286.796 118.928 286.744 118.785ZM295.58 118.785C296.114 117.066 296.596 115.706 297.025 114.703C297.468 113.688 297.833 112.978 298.119 112.574C298.419 112.171 298.62 112.04 298.725 112.184C298.829 112.327 298.816 112.691 298.686 113.277C298.568 113.863 298.308 114.651 297.904 115.641C297.514 116.617 296.96 117.737 296.244 119C296.14 119.039 296.016 119.046 295.873 119.02C295.73 118.993 295.632 118.915 295.58 118.785ZM298.998 109.391C298.972 109.326 298.959 109.208 298.959 109.039C298.959 108.87 298.972 108.766 298.998 108.727C299.298 108.622 299.525 108.609 299.682 108.688C299.838 108.766 299.936 108.883 299.975 109.039C300.014 109.182 300.007 109.339 299.955 109.508C299.916 109.677 299.844 109.807 299.74 109.898C299.636 109.977 299.512 109.99 299.369 109.938C299.239 109.872 299.115 109.69 298.998 109.391ZM303.869 118.785C303.322 118.564 302.977 118.232 302.834 117.789C302.704 117.346 302.71 116.858 302.854 116.324C302.997 115.777 303.244 115.217 303.596 114.645C303.947 114.059 304.338 113.525 304.768 113.043C305.197 112.561 305.627 112.158 306.057 111.832C306.499 111.493 306.877 111.305 307.189 111.266C307.997 111.161 308.628 111.22 309.084 111.441C309.553 111.65 309.872 111.956 310.041 112.359C310.21 112.763 310.256 113.238 310.178 113.785C310.1 114.319 309.924 114.859 309.65 115.406C309.39 115.953 309.045 116.48 308.615 116.988C308.199 117.496 307.73 117.926 307.209 118.277C306.701 118.616 306.161 118.844 305.588 118.961C305.015 119.065 304.442 119.007 303.869 118.785ZM303.654 117.672C303.758 118.089 303.98 118.323 304.318 118.375C304.657 118.414 305.048 118.329 305.49 118.121C305.946 117.9 306.421 117.587 306.916 117.184C307.411 116.767 307.86 116.318 308.264 115.836C308.68 115.354 309.019 114.872 309.279 114.391C309.553 113.896 309.683 113.466 309.67 113.102C309.67 112.737 309.494 112.464 309.143 112.281C308.804 112.086 308.231 112.047 307.424 112.164C307.242 112.333 307.007 112.542 306.721 112.789C306.434 113.023 306.135 113.284 305.822 113.57C305.523 113.857 305.223 114.169 304.924 114.508C304.624 114.833 304.364 115.172 304.143 115.523C303.921 115.875 303.758 116.233 303.654 116.598C303.563 116.962 303.563 117.32 303.654 117.672ZM320.342 118.785C320.303 118.355 320.335 117.932 320.439 117.516C320.557 117.086 320.706 116.669 320.889 116.266C321.084 115.849 321.286 115.439 321.494 115.035C321.715 114.618 321.904 114.215 322.061 113.824C322.217 113.421 322.327 113.03 322.393 112.652C322.458 112.262 322.432 111.878 322.314 111.5C321.989 111.383 321.611 111.409 321.182 111.578C320.765 111.747 320.322 112.008 319.854 112.359C319.385 112.698 318.896 113.102 318.389 113.57C317.894 114.026 317.406 114.495 316.924 114.977C316.455 115.445 316.006 115.895 315.576 116.324C315.146 116.754 314.756 117.112 314.404 117.398C314.066 117.672 313.779 117.848 313.545 117.926C313.311 117.991 313.154 117.906 313.076 117.672C313.063 117.659 313.135 117.496 313.291 117.184C313.46 116.858 313.662 116.454 313.896 115.973C314.144 115.491 314.411 114.97 314.697 114.41C314.997 113.85 315.277 113.329 315.537 112.848C315.798 112.353 316.025 111.936 316.221 111.598C316.416 111.259 316.54 111.077 316.592 111.051C316.865 111.233 317.002 111.435 317.002 111.656C317.015 111.865 316.982 112.086 316.904 112.32C316.826 112.542 316.735 112.77 316.631 113.004C316.54 113.238 316.527 113.473 316.592 113.707C316.8 113.564 317.087 113.368 317.451 113.121C317.829 112.861 318.232 112.594 318.662 112.32C319.105 112.047 319.561 111.78 320.029 111.52C320.511 111.259 320.96 111.057 321.377 110.914C321.794 110.758 322.165 110.673 322.49 110.66C322.829 110.647 323.076 110.745 323.232 110.953C323.389 111.161 323.434 111.507 323.369 111.988C323.317 112.457 323.115 113.102 322.764 113.922C322.725 114.013 322.627 114.234 322.471 114.586C322.327 114.924 322.165 115.296 321.982 115.699C321.813 116.09 321.65 116.461 321.494 116.812C321.351 117.151 321.26 117.366 321.221 117.457C321.208 117.509 321.188 117.607 321.162 117.75C321.149 117.88 321.13 118.03 321.104 118.199C321.077 118.355 321.038 118.512 320.986 118.668C320.934 118.811 320.869 118.922 320.791 119C320.713 119.078 320.622 119.072 320.518 118.98C320.413 118.876 320.355 118.811 320.342 118.785Z" fill="black"/>
<path d="M158.419 216.334C159.242 216.429 159.986 215.838 160.081 215.015L161.627 201.604C161.722 200.781 161.132 200.037 160.309 199.942C159.486 199.847 158.742 200.438 158.647 201.261L157.273 213.182L145.352 211.808C144.529 211.713 143.785 212.303 143.69 213.126C143.595 213.949 144.185 214.693 145.008 214.788L158.419 216.334ZM182.81 86.5827C169.992 97.2052 153.334 116.37 145.009 139.426C136.656 162.562 136.694 189.655 157.416 215.776L159.766 213.911C139.806 188.751 139.762 162.792 147.831 140.445C155.928 118.019 172.2 99.2715 184.724 88.8927L182.81 86.5827Z" fill="#F5F0EA"/>
<path d="M168.246 214.938L175.266 231.074L182.309 214.938H183.234V232H182.602V215.875L175.523 232H175.02L167.977 215.957V232H167.344V214.938H168.246ZM199.509 223.539H190.955V231.367H200.705V232H190.322V214.938H200.705V215.57H190.955V222.906H199.509V223.539Z" fill="white"/>
</svg>
