<svg width="350" height="233" viewBox="0 0 350 233" fill="none" xmlns="http://www.w3.org/2000/svg">
<ellipse cx="99.0639" cy="104.46" rx="104.46" ry="99.0639" transform="rotate(-90 99.0639 104.46)" fill="#BEAEFF" fill-opacity="0.56"/>
<ellipse cx="250.936" cy="104.46" rx="104.46" ry="99.0639" transform="rotate(-90 250.936 104.46)" fill="#E99B9B" fill-opacity="0.42"/>
<path d="M57.243 82.1287C57.1649 81.8031 57.1649 81.432 57.243 81.0154C57.3342 80.5857 57.4579 80.156 57.6141 79.7263C57.7704 79.2966 57.9397 78.8865 58.1219 78.4958C58.3042 78.0922 58.454 77.7602 58.5712 77.4998C58.6363 77.3435 58.7339 77.1156 58.8641 76.8162C59.0074 76.5167 59.1636 76.1781 59.3329 75.8005C59.5152 75.4229 59.6975 75.0258 59.8798 74.6091C60.0751 74.1925 60.2574 73.7953 60.4266 73.4177C60.6089 73.0401 60.7652 72.7081 60.8954 72.4216C61.0386 72.1222 61.1428 71.9008 61.2079 71.7576C60.9865 71.7185 60.6675 71.738 60.2509 71.8162C59.8472 71.8943 59.398 71.9985 58.9032 72.1287C58.4084 72.2458 57.9006 72.3695 57.3798 72.4998C56.8589 72.63 56.3706 72.7276 55.9149 72.7927C55.4722 72.8448 55.0881 72.8513 54.7626 72.8123C54.4501 72.7602 54.2548 72.6235 54.1766 72.4021C54.2678 72.2328 54.5998 72.0375 55.1727 71.8162C55.7456 71.5948 56.4748 71.3669 57.3602 71.1326C58.2587 70.8852 59.2548 70.6378 60.3485 70.3904C61.4553 70.143 62.5816 69.9086 63.7274 69.6873C64.8733 69.4659 65.993 69.2641 67.0868 69.0818C68.1805 68.8995 69.1571 68.7498 70.0165 68.6326C70.8759 68.5154 71.566 68.4373 72.0868 68.3982C72.6206 68.3591 72.9006 68.3722 72.9266 68.4373C72.9657 68.5414 72.9722 68.6716 72.9462 68.8279C72.9201 68.9711 72.8355 69.0623 72.6923 69.1013C72.0542 69.2055 71.3641 69.3227 70.6219 69.4529C69.8798 69.5701 69.1246 69.7003 68.3563 69.8435C67.6011 69.9737 66.8589 70.1104 66.1298 70.2537C65.4006 70.3839 64.7235 70.5141 64.0985 70.6443C63.6949 70.7224 63.3042 70.9568 62.9266 71.3474C62.549 71.738 62.1844 72.2263 61.8329 72.8123C61.4813 73.3852 61.1428 74.0297 60.8173 74.7458C60.4917 75.449 60.1792 76.1651 59.8798 76.8943C59.5933 77.6235 59.3264 78.3266 59.079 79.0037C58.8316 79.6807 58.6037 80.2797 58.3954 80.8005C58.1871 81.3083 58.0048 81.7055 57.8485 81.9919C57.6923 82.2784 57.5621 82.3956 57.4579 82.3435C57.4318 82.3175 57.3928 82.2784 57.3407 82.2263C57.2886 82.1742 57.2561 82.1417 57.243 82.1287ZM68.3837 82.1287C67.993 81.9985 67.6936 81.8031 67.4852 81.5427C67.2899 81.2693 67.1597 80.9698 67.0946 80.6443C67.0295 80.3188 67.0165 79.9802 67.0555 79.6287C67.1076 79.2641 67.1858 78.919 67.2899 78.5935C67.6805 78.1768 68.1167 77.7016 68.5985 77.1677C69.0933 76.6208 69.6141 76.087 70.161 75.5662C70.7079 75.0453 71.2743 74.5636 71.8602 74.1208C72.4592 73.6651 73.0647 73.3201 73.6766 73.0857C73.885 72.9945 74.0477 73.0011 74.1649 73.1052C74.2951 73.1964 74.3863 73.3461 74.4384 73.5544C74.4904 73.7628 74.51 74.0037 74.4969 74.2771C74.4969 74.5505 74.4774 74.8175 74.4384 75.0779C74.3993 75.3383 74.3472 75.5727 74.2821 75.781C74.217 75.9893 74.1519 76.1326 74.0868 76.2107C73.9305 76.393 73.6246 76.6078 73.1688 76.8552C72.7261 77.1026 72.2313 77.3761 71.6844 77.6755C71.1376 77.962 70.5907 78.2615 70.0438 78.574C69.4969 78.8865 69.0477 79.199 68.6962 79.5115C68.3446 79.811 68.1363 80.1104 68.0712 80.4099C68.0061 80.7094 68.1884 80.9828 68.618 81.2302C69.0608 81.2823 69.5946 81.2628 70.2196 81.1716C70.8576 81.0675 71.5022 80.9373 72.1532 80.781C72.8173 80.6117 73.4553 80.4425 74.0673 80.2732C74.6792 80.0909 75.1805 79.9477 75.5712 79.8435L75.8055 80.0583C75.5191 80.436 75.0503 80.781 74.3993 81.0935C73.7483 81.406 73.0451 81.6664 72.2899 81.8748C71.5347 82.0701 70.799 82.2003 70.0829 82.2654C69.3667 82.3175 68.8003 82.2719 68.3837 82.1287ZM73.0516 74.6677C73.0386 74.6547 72.941 74.7133 72.7587 74.8435C72.5764 74.9607 72.3485 75.1235 72.0751 75.3318C71.8147 75.5271 71.5282 75.7485 71.2157 75.9958C70.9162 76.2302 70.6363 76.4516 70.3759 76.6599C70.1285 76.8682 69.9201 77.0505 69.7509 77.2068C69.5816 77.35 69.51 77.4216 69.536 77.4216C69.7443 77.4607 70.0113 77.4347 70.3368 77.3435C70.6753 77.2393 71.0204 77.0961 71.3719 76.9138C71.7365 76.7315 72.0816 76.5297 72.4071 76.3083C72.7326 76.074 72.9865 75.8461 73.1688 75.6248C73.3641 75.4034 73.4618 75.2081 73.4618 75.0388C73.4748 74.8695 73.3381 74.7458 73.0516 74.6677ZM79.2118 82.1287C78.5477 81.9073 78.105 81.5623 77.8837 81.0935C77.6753 80.6248 77.6167 80.0974 77.7079 79.5115C77.8121 78.9125 78.0399 78.2875 78.3915 77.6365C78.743 76.9724 79.1597 76.3409 79.6415 75.7419C80.1233 75.143 80.6311 74.6026 81.1649 74.1208C81.6988 73.6391 82.2001 73.2745 82.6688 73.0271C83.1506 72.7797 83.5608 72.682 83.8993 72.7341C84.2378 72.7862 84.4462 73.0466 84.5243 73.5154C84.5634 73.7237 84.5373 73.9516 84.4462 74.199C84.368 74.4464 84.2509 74.6873 84.0946 74.9216C83.9514 75.143 83.7821 75.3513 83.5868 75.5466C83.4045 75.7289 83.2222 75.8656 83.0399 75.9568C82.8706 76.0479 82.7144 76.0805 82.5712 76.0544C82.441 76.0284 82.3563 75.9177 82.3173 75.7224C82.4735 75.462 82.6493 75.2016 82.8446 74.9412C83.0399 74.6677 83.2287 74.4138 83.411 74.1794C83.3329 74.0362 83.1831 74.0037 82.9618 74.0818C82.7404 74.1599 82.4735 74.3162 82.161 74.5505C81.8485 74.7849 81.5165 75.0844 81.1649 75.449C80.8264 75.8005 80.4943 76.1847 80.1688 76.6013C79.8433 77.018 79.5503 77.4542 79.2899 77.9099C79.0425 78.3526 78.8602 78.7823 78.743 79.199C78.6259 79.6156 78.5933 80.0063 78.6454 80.3708C78.7105 80.7224 78.8993 81.0089 79.2118 81.2302C79.6415 81.2693 80.1363 81.2302 80.6962 81.113C81.2561 80.9828 81.829 80.8201 82.4149 80.6248C83.0009 80.4294 83.5803 80.2211 84.1532 79.9998C84.7391 79.7654 85.2665 79.5505 85.7352 79.3552C86.217 79.1599 86.6206 79.0102 86.9462 78.906C87.2847 78.7888 87.5061 78.7563 87.6102 78.8083C87.8576 78.9386 87.8706 79.1274 87.6493 79.3748C87.441 79.6222 87.0829 79.8891 86.5751 80.1755C86.0673 80.462 85.4618 80.7485 84.7587 81.0349C84.0686 81.3083 83.3719 81.5492 82.6688 81.7576C81.9657 81.9529 81.3016 82.0961 80.6766 82.1873C80.0516 82.2654 79.5634 82.2458 79.2118 82.1287ZM90.3524 81.8943C90.3394 81.8682 90.3329 81.8357 90.3329 81.7966C90.3329 81.7445 90.3394 81.7055 90.3524 81.6794C90.4045 81.5753 90.4891 81.3995 90.6063 81.1521C90.7365 80.8917 90.8667 80.6248 90.9969 80.3513C91.1402 80.0649 91.2769 79.7979 91.4071 79.5505C91.5373 79.3031 91.6285 79.1274 91.6805 79.0232C91.7066 78.9841 91.7717 78.8735 91.8759 78.6912C91.993 78.5089 92.1298 78.2875 92.286 78.0271C92.4553 77.7537 92.6311 77.4542 92.8134 77.1287C93.0087 76.8031 93.1975 76.4841 93.3798 76.1716C93.5751 75.8591 93.7509 75.5662 93.9071 75.2927C94.0764 75.0193 94.2131 74.7914 94.3173 74.6091C94.5777 74.1794 94.8772 73.6716 95.2157 73.0857C95.5673 72.4998 95.9253 71.9073 96.2899 71.3083C96.6545 70.7094 97.0126 70.13 97.3641 69.5701C97.7287 69.0102 98.0608 68.5479 98.3602 68.1833C98.6597 67.8188 98.9136 67.5779 99.1219 67.4607C99.3303 67.3435 99.4735 67.4216 99.5516 67.6951V68.3201C99.4605 68.4633 99.3368 68.6521 99.1805 68.8865C99.0243 69.1078 98.8615 69.3487 98.6923 69.6091C98.536 69.8565 98.3798 70.0974 98.2235 70.3318C98.0673 70.5662 97.9501 70.7485 97.8719 70.8787C97.7548 71.061 97.566 71.3539 97.3055 71.7576C97.0451 72.1612 96.7522 72.6169 96.4266 73.1248C96.1011 73.6326 95.7691 74.1664 95.4305 74.7263C95.092 75.2732 94.786 75.7875 94.5126 76.2693C94.2391 76.7511 94.0178 77.1677 93.8485 77.5193C93.6923 77.8578 93.6337 78.0727 93.6727 78.1638C93.9852 78.0727 94.3173 77.9099 94.6688 77.6755C95.0334 77.4281 95.398 77.1677 95.7626 76.8943C96.1272 76.6208 96.4917 76.3604 96.8563 76.113C97.2209 75.8526 97.5594 75.6508 97.8719 75.5076C98.1844 75.5466 98.4579 75.6638 98.6923 75.8591C98.9266 76.0544 99.0959 76.3018 99.2001 76.6013C99.1871 76.7185 99.174 76.9399 99.161 77.2654C99.161 77.5779 99.161 77.9099 99.161 78.2615C99.161 78.613 99.161 78.9451 99.161 79.2576C99.174 79.5701 99.1871 79.7849 99.2001 79.9021C99.2131 80.0453 99.2782 80.2276 99.3954 80.449C99.5126 80.6573 99.6363 80.8722 99.7665 81.0935C99.9097 81.3018 100.033 81.4841 100.138 81.6404C100.255 81.7966 100.307 81.8813 100.294 81.8943C100.033 81.9854 99.786 81.9919 99.5516 81.9138C99.3173 81.8227 99.1089 81.686 98.9266 81.5037C98.7574 81.3083 98.6141 81.0935 98.4969 80.8591C98.3928 80.6117 98.3277 80.3708 98.3016 80.1365C98.2886 80.0193 98.2691 79.8044 98.243 79.4919C98.217 79.1664 98.191 78.8279 98.1649 78.4763C98.1519 78.1248 98.1324 77.7927 98.1063 77.4802C98.0933 77.1677 98.0868 76.9529 98.0868 76.8357L97.6376 76.6013C97.5594 76.5623 97.4227 76.5948 97.2274 76.699C97.0451 76.8031 96.8303 76.9464 96.5829 77.1287C96.3355 77.311 96.0751 77.5193 95.8016 77.7537C95.5282 77.988 95.2678 78.2094 95.0204 78.4177C94.786 78.6261 94.5842 78.8083 94.4149 78.9646C94.2456 79.1208 94.1415 79.2185 94.1024 79.2576C93.9983 79.3617 93.8094 79.5505 93.536 79.824C93.2626 80.0844 92.9696 80.3708 92.6571 80.6833C92.3576 80.9828 92.0712 81.2693 91.7977 81.5427C91.5373 81.8162 91.355 82.0115 91.2509 82.1287C91.0686 82.1677 90.8928 82.1873 90.7235 82.1873C90.5673 82.1742 90.4436 82.0766 90.3524 81.8943ZM54.4716 101.129C54.3153 101.024 54.3088 100.888 54.452 100.719C54.6083 100.536 54.8492 100.347 55.1747 100.152C55.5132 99.9438 55.9038 99.7289 56.3466 99.5076C56.7893 99.2862 57.2124 99.0779 57.6161 98.8826C58.0328 98.6873 58.3973 98.518 58.7098 98.3748C59.0223 98.2185 59.2242 98.1013 59.3153 98.0232C59.745 97.6586 59.9663 97.3591 59.9794 97.1248C60.0054 96.8774 59.9012 96.682 59.6669 96.5388C59.4325 96.3826 59.1005 96.2654 58.6708 96.1873C58.2541 96.0961 57.8179 96.018 57.3622 95.9529C56.9195 95.8748 56.4898 95.7966 56.0731 95.7185C55.6695 95.6404 55.3635 95.5362 55.1552 95.406C54.9468 95.2758 54.8752 95.1065 54.9403 94.8982C55.0184 94.6768 55.3049 94.3969 55.7997 94.0583C55.982 93.9281 56.2489 93.7393 56.6005 93.4919C56.952 93.2445 57.3296 92.9906 57.7333 92.7302C58.1499 92.4698 58.5601 92.2354 58.9637 92.0271C59.3674 91.8188 59.7059 91.682 59.9794 91.6169C60.1226 91.5909 60.2658 91.6039 60.4091 91.656C60.5653 91.7081 60.689 91.7862 60.7802 91.8904C60.8713 91.9815 60.9104 92.0857 60.8973 92.2029C60.8973 92.3201 60.8127 92.4242 60.6434 92.5154C59.9012 92.932 59.1851 93.3227 58.495 93.6873C57.8179 94.0518 57.1343 94.4685 56.4442 94.9373C56.4052 95.0414 56.4117 95.1326 56.4637 95.2107C56.5288 95.2888 56.6005 95.3474 56.6786 95.3865C58.0588 95.5297 59.094 95.7315 59.7841 95.9919C60.4872 96.2524 60.9299 96.5388 61.1122 96.8513C61.3075 97.1638 61.288 97.4958 61.0536 97.8474C60.8192 98.199 60.4677 98.544 59.9989 98.8826C59.5432 99.2211 59.0158 99.5401 58.4169 99.8396C57.8179 100.139 57.2385 100.393 56.6786 100.601C56.1317 100.81 55.6499 100.966 55.2333 101.07C54.8166 101.174 54.5627 101.194 54.4716 101.129ZM71.9208 100.679C71.0874 99.5336 70.4169 98.5896 69.9091 97.8474C69.4012 97.0922 68.9846 96.5323 68.6591 96.1677C68.3335 95.8031 68.0666 95.6274 67.8583 95.6404C67.6499 95.6534 67.4221 95.8552 67.1747 96.2458C66.9403 96.6235 66.6473 97.1833 66.2958 97.9255C65.9442 98.6677 65.4624 99.5857 64.8505 100.679C64.7723 100.823 64.6877 100.914 64.5966 100.953C64.5184 100.979 64.4403 100.979 64.3622 100.953C64.2841 100.914 64.2124 100.849 64.1473 100.758C64.0822 100.666 64.0302 100.569 63.9911 100.465C63.952 100.334 63.9976 100.087 64.1278 99.7224C64.258 99.3448 64.4468 98.8956 64.6942 98.3748C64.9546 97.8409 65.2541 97.255 65.5927 96.6169C65.9442 95.9659 66.3088 95.3018 66.6864 94.6248C67.077 93.9477 67.4611 93.2771 67.8387 92.613C68.2294 91.949 68.5874 91.337 68.913 90.7771C69.2515 90.2042 69.551 89.7029 69.8114 89.2732C70.0718 88.8435 70.2606 88.5245 70.3778 88.3162C70.469 88.2511 70.5601 88.2445 70.6512 88.2966C70.7554 88.3487 70.84 88.4333 70.9052 88.5505C70.9833 88.6547 71.0354 88.7719 71.0614 88.9021C71.0874 89.0193 71.0744 89.1169 71.0223 89.1951L69.2645 92.281V92.7302C69.538 92.7953 69.8765 92.7758 70.2802 92.6716C70.6968 92.5544 71.1395 92.3917 71.6083 92.1833C72.09 91.975 72.5783 91.7341 73.0731 91.4607C73.5679 91.1742 74.0367 90.8943 74.4794 90.6208C74.9351 90.3344 75.3387 90.0675 75.6903 89.8201C76.0549 89.5597 76.3413 89.3513 76.5497 89.1951C76.719 89.1039 76.8687 89.0779 76.9989 89.1169C77.1421 89.156 77.2463 89.2276 77.3114 89.3318C77.3895 89.436 77.4221 89.5597 77.4091 89.7029C77.396 89.8461 77.3309 89.9763 77.2137 90.0935C76.8492 90.4711 76.413 90.7966 75.9052 91.0701C75.4104 91.3305 74.883 91.5714 74.3231 91.7927C73.7632 92.0011 73.1903 92.2029 72.6044 92.3982C72.0315 92.5805 71.4781 92.7823 70.9442 93.0037C70.4104 93.225 69.9221 93.4724 69.4794 93.7458C69.0367 94.0193 68.6721 94.3448 68.3856 94.7224C68.5549 94.8656 68.7762 95.0935 69.0497 95.406C69.3361 95.7055 69.6421 96.044 69.9677 96.4216C70.3062 96.7992 70.6447 97.2029 70.9833 97.6326C71.3218 98.0492 71.6213 98.4594 71.8817 98.863C72.1552 99.2537 72.3765 99.6117 72.5458 99.9373C72.7281 100.25 72.8192 100.497 72.8192 100.679V101.129C72.715 101.181 72.6174 101.2 72.5262 101.187C72.4481 101.161 72.37 101.122 72.2919 101.07C72.2137 101.018 72.1421 100.959 72.077 100.894C72.0249 100.816 71.9729 100.745 71.9208 100.679ZM80.0927 101.129C80.6265 99.4099 81.1083 98.0492 81.538 97.0466C81.9807 96.031 82.3453 95.3214 82.6317 94.9177C82.9312 94.5141 83.133 94.3839 83.2372 94.5271C83.3413 94.6703 83.3283 95.0349 83.1981 95.6208C83.0809 96.2068 82.8205 96.9945 82.4169 97.9841C82.0262 98.9607 81.4729 100.08 80.7567 101.344C80.6525 101.383 80.5288 101.389 80.3856 101.363C80.2424 101.337 80.1447 101.259 80.0927 101.129ZM83.5106 91.7341C83.4846 91.669 83.4716 91.5518 83.4716 91.3826C83.4716 91.2133 83.4846 91.1091 83.5106 91.0701C83.8101 90.9659 84.038 90.9529 84.1942 91.031C84.3505 91.1091 84.4481 91.2263 84.4872 91.3826C84.5262 91.5258 84.5197 91.682 84.4677 91.8513C84.4286 92.0206 84.357 92.1508 84.2528 92.2419C84.1486 92.3201 84.0249 92.3331 83.8817 92.281C83.7515 92.2159 83.6278 92.0336 83.5106 91.7341ZM87.952 101.129C87.5744 100.855 87.327 100.51 87.2098 100.094C87.1057 99.6768 87.0927 99.2276 87.1708 98.7458C87.2489 98.2511 87.3856 97.7432 87.5809 97.2224C87.7893 96.7016 88.0106 96.2003 88.245 95.7185C88.4924 95.2367 88.7268 94.794 88.9481 94.3904C89.1825 93.9867 89.3648 93.6547 89.495 93.3943C89.5341 93.3162 89.6252 93.1274 89.7684 92.8279C89.9247 92.5284 90.0874 92.2029 90.2567 91.8513C90.426 91.4998 90.5822 91.1742 90.7255 90.8748C90.8817 90.5623 90.9794 90.3669 91.0184 90.2888C91.0575 90.2237 91.1096 90.1 91.1747 89.9177C91.2528 89.7224 91.3374 89.5141 91.4286 89.2927C91.5197 89.0714 91.6174 88.863 91.7216 88.6677C91.8387 88.4594 91.9559 88.3097 92.0731 88.2185C92.2033 88.1274 92.327 88.1143 92.4442 88.1794C92.5744 88.2445 92.6981 88.4399 92.8153 88.7654C92.7632 88.8956 92.633 89.156 92.4247 89.5466C92.2294 89.9373 91.995 90.406 91.7216 90.9529C91.4481 91.4998 91.1421 92.1052 90.8036 92.7693C90.4781 93.4333 90.1591 94.1039 89.8466 94.781C89.5341 95.4581 89.2411 96.1222 88.9677 96.7732C88.6942 97.4112 88.4663 97.9972 88.2841 98.531C88.1148 99.0518 88.0106 99.488 87.9716 99.8396C87.9455 100.178 88.0106 100.386 88.1669 100.465C88.3492 100.556 88.5835 100.595 88.87 100.582C89.1695 100.556 89.4755 100.517 89.788 100.465C90.1005 100.413 90.4065 100.36 90.7059 100.308C91.0054 100.243 91.2658 100.217 91.4872 100.23C91.5393 100.347 91.5002 100.465 91.37 100.582C91.2398 100.686 91.0575 100.784 90.8231 100.875C90.5887 100.953 90.3153 101.024 90.0028 101.09C89.7033 101.142 89.4104 101.181 89.1239 101.207C88.8505 101.233 88.6031 101.239 88.3817 101.226C88.1734 101.213 88.0302 101.181 87.952 101.129ZM96.3583 101.129C95.9807 100.855 95.7333 100.51 95.6161 100.094C95.5119 99.6768 95.4989 99.2276 95.577 98.7458C95.6552 98.2511 95.7919 97.7432 95.9872 97.2224C96.1955 96.7016 96.4169 96.2003 96.6512 95.7185C96.8986 95.2367 97.133 94.794 97.3544 94.3904C97.5887 93.9867 97.771 93.6547 97.9012 93.3943C97.9403 93.3162 98.0315 93.1274 98.1747 92.8279C98.3309 92.5284 98.4937 92.2029 98.663 91.8513C98.8322 91.4998 98.9885 91.1742 99.1317 90.8748C99.288 90.5623 99.3856 90.3669 99.4247 90.2888C99.4637 90.2237 99.5158 90.1 99.5809 89.9177C99.6591 89.7224 99.7437 89.5141 99.8348 89.2927C99.926 89.0714 100.024 88.863 100.128 88.6677C100.245 88.4594 100.362 88.3097 100.479 88.2185C100.61 88.1274 100.733 88.1143 100.85 88.1794C100.981 88.2445 101.104 88.4399 101.222 88.7654C101.169 88.8956 101.039 89.156 100.831 89.5466C100.636 89.9373 100.401 90.406 100.128 90.9529C99.8544 91.4998 99.5484 92.1052 99.2098 92.7693C98.8843 93.4333 98.5653 94.1039 98.2528 94.781C97.9403 95.4581 97.6473 96.1222 97.3739 96.7732C97.1005 97.4112 96.8726 97.9972 96.6903 98.531C96.521 99.0518 96.4169 99.488 96.3778 99.8396C96.3518 100.178 96.4169 100.386 96.5731 100.465C96.7554 100.556 96.9898 100.595 97.2762 100.582C97.5757 100.556 97.8817 100.517 98.1942 100.465C98.5067 100.413 98.8127 100.36 99.1122 100.308C99.4117 100.243 99.6721 100.217 99.8934 100.23C99.9455 100.347 99.9065 100.465 99.7762 100.582C99.646 100.686 99.4637 100.784 99.2294 100.875C98.995 100.953 98.7216 101.024 98.4091 101.09C98.1096 101.142 97.8166 101.181 97.5302 101.207C97.2567 101.233 97.0093 101.239 96.788 101.226C96.5796 101.213 96.4364 101.181 96.3583 101.129ZM104.218 101.129C104.061 101.024 104.055 100.888 104.198 100.719C104.354 100.536 104.595 100.347 104.921 100.152C105.259 99.9438 105.65 99.7289 106.093 99.5076C106.535 99.2862 106.959 99.0779 107.362 98.8826C107.779 98.6873 108.143 98.518 108.456 98.3748C108.768 98.2185 108.97 98.1013 109.061 98.0232C109.491 97.6586 109.712 97.3591 109.725 97.1248C109.752 96.8774 109.647 96.682 109.413 96.5388C109.179 96.3826 108.847 96.2654 108.417 96.1873C108 96.0961 107.564 96.018 107.108 95.9529C106.666 95.8748 106.236 95.7966 105.819 95.7185C105.416 95.6404 105.11 95.5362 104.901 95.406C104.693 95.2758 104.621 95.1065 104.686 94.8982C104.765 94.6768 105.051 94.3969 105.546 94.0583C105.728 93.9281 105.995 93.7393 106.347 93.4919C106.698 93.2445 107.076 92.9906 107.479 92.7302C107.896 92.4698 108.306 92.2354 108.71 92.0271C109.113 91.8188 109.452 91.682 109.725 91.6169C109.869 91.5909 110.012 91.6039 110.155 91.656C110.311 91.7081 110.435 91.7862 110.526 91.8904C110.617 91.9815 110.656 92.0857 110.643 92.2029C110.643 92.3201 110.559 92.4242 110.39 92.5154C109.647 92.932 108.931 93.3227 108.241 93.6873C107.564 94.0518 106.88 94.4685 106.19 94.9373C106.151 95.0414 106.158 95.1326 106.21 95.2107C106.275 95.2888 106.347 95.3474 106.425 95.3865C107.805 95.5297 108.84 95.7315 109.53 95.9919C110.233 96.2524 110.676 96.5388 110.858 96.8513C111.054 97.1638 111.034 97.4958 110.8 97.8474C110.565 98.199 110.214 98.544 109.745 98.8826C109.289 99.2211 108.762 99.5401 108.163 99.8396C107.564 100.139 106.985 100.393 106.425 100.601C105.878 100.81 105.396 100.966 104.979 101.07C104.563 101.174 104.309 101.194 104.218 101.129ZM63.9657 119.894C63.6532 119.634 63.4774 119.25 63.4384 118.742C63.4123 118.234 63.4839 117.661 63.6532 117.023C63.8355 116.385 64.0959 115.721 64.4344 115.031C64.786 114.328 65.1897 113.664 65.6454 113.039C66.1011 112.401 66.5959 111.834 67.1298 111.34C67.6636 110.832 68.1975 110.461 68.7313 110.226C69.2652 109.979 69.786 109.894 70.2938 109.972C70.8016 110.038 71.2639 110.33 71.6805 110.851C71.941 111.177 72.0972 111.509 72.1493 111.847C72.2014 112.173 72.1949 112.511 72.1298 112.863C72.0647 113.202 71.9605 113.553 71.8173 113.918C71.674 114.269 71.5308 114.627 71.3876 114.992C71.2574 115.357 71.1467 115.728 71.0555 116.105C70.9774 116.483 70.9644 116.867 71.0165 117.258C71.0816 117.752 71.3029 118.045 71.6805 118.136C72.0581 118.228 72.5074 118.202 73.0282 118.058C73.5621 117.915 74.1219 117.687 74.7079 117.375C75.2938 117.062 75.8342 116.75 76.329 116.437C76.8368 116.125 77.2535 115.851 77.579 115.617C77.9175 115.383 78.0868 115.265 78.0868 115.265C78.4514 115.187 78.6532 115.213 78.6923 115.344C78.7443 115.461 78.6727 115.643 78.4774 115.89C78.2951 116.125 78.0152 116.398 77.6376 116.711C77.26 117.01 76.8303 117.303 76.3485 117.59C75.8667 117.876 75.3524 118.136 74.8055 118.371C74.2587 118.605 73.7248 118.768 73.204 118.859C72.6831 118.937 72.1884 118.931 71.7196 118.84C71.2639 118.735 70.8863 118.501 70.5868 118.136C70.4436 117.98 70.3329 117.824 70.2548 117.668C70.1897 117.511 70.079 117.375 69.9227 117.258C69.7274 117.44 69.493 117.681 69.2196 117.98C68.9462 118.267 68.6467 118.56 68.3212 118.859C68.0087 119.146 67.6701 119.419 67.3055 119.679C66.954 119.94 66.5894 120.135 66.2118 120.265C65.8342 120.396 65.4501 120.441 65.0594 120.402C64.6818 120.363 64.3173 120.194 63.9657 119.894ZM64.1805 119.23C64.2977 119.647 64.5581 119.842 64.9618 119.816C65.3654 119.777 65.8342 119.575 66.368 119.211C66.9019 118.846 67.4553 118.351 68.0282 117.726C68.6011 117.088 69.1154 116.385 69.5712 115.617C70.0269 114.836 70.3719 114.015 70.6063 113.156C70.8537 112.297 70.9188 111.45 70.8016 110.617C70.4891 110.37 70.0985 110.363 69.6298 110.597C69.161 110.819 68.6597 111.19 68.1259 111.711C67.605 112.219 67.0842 112.83 66.5634 113.547C66.0555 114.25 65.6063 114.966 65.2157 115.695C64.8251 116.411 64.5256 117.088 64.3173 117.726C64.1219 118.364 64.0764 118.866 64.1805 119.23ZM86.1805 120.129C86.1415 119.699 86.174 119.276 86.2782 118.859C86.3954 118.429 86.5451 118.013 86.7274 117.609C86.9227 117.192 87.1246 116.782 87.3329 116.379C87.5542 115.962 87.743 115.558 87.8993 115.168C88.0555 114.764 88.1662 114.373 88.2313 113.996C88.2964 113.605 88.2704 113.221 88.1532 112.844C87.8277 112.726 87.4501 112.752 87.0204 112.922C86.6037 113.091 86.161 113.351 85.6923 113.703C85.2235 114.041 84.7352 114.445 84.2274 114.914C83.7326 115.37 83.2443 115.838 82.7626 116.32C82.2938 116.789 81.8446 117.238 81.4149 117.668C80.9852 118.097 80.5946 118.455 80.243 118.742C79.9045 119.015 79.618 119.191 79.3837 119.269C79.1493 119.334 78.993 119.25 78.9149 119.015C78.9019 119.002 78.9735 118.84 79.1298 118.527C79.299 118.202 79.5009 117.798 79.7352 117.316C79.9826 116.834 80.2496 116.314 80.536 115.754C80.8355 115.194 81.1154 114.673 81.3759 114.191C81.6363 113.696 81.8641 113.28 82.0594 112.941C82.2548 112.603 82.3785 112.42 82.4305 112.394C82.704 112.577 82.8407 112.778 82.8407 113C82.8537 113.208 82.8212 113.429 82.743 113.664C82.6649 113.885 82.5738 114.113 82.4696 114.347C82.3785 114.582 82.3654 114.816 82.4305 115.051C82.6389 114.907 82.9253 114.712 83.2899 114.465C83.6675 114.204 84.0712 113.937 84.5009 113.664C84.9436 113.39 85.3993 113.123 85.868 112.863C86.3498 112.603 86.799 112.401 87.2157 112.258C87.6324 112.101 88.0035 112.017 88.329 112.004C88.6675 111.991 88.9149 112.088 89.0712 112.297C89.2274 112.505 89.273 112.85 89.2079 113.332C89.1558 113.801 88.954 114.445 88.6024 115.265C88.5634 115.357 88.4657 115.578 88.3094 115.929C88.1662 116.268 88.0035 116.639 87.8212 117.043C87.6519 117.433 87.4891 117.804 87.3329 118.156C87.1897 118.495 87.0985 118.709 87.0594 118.801C87.0464 118.853 87.0269 118.95 87.0009 119.094C86.9878 119.224 86.9683 119.373 86.9423 119.543C86.9162 119.699 86.8772 119.855 86.8251 120.011C86.773 120.155 86.7079 120.265 86.6298 120.344C86.5516 120.422 86.4605 120.415 86.3563 120.324C86.2522 120.22 86.1936 120.155 86.1805 120.129ZM100.212 119.894C99.717 119.556 99.3589 119.139 99.1376 118.644C98.9162 118.136 98.7535 117.596 98.6493 117.023H98.4344C97.3798 117.883 96.4618 118.527 95.6805 118.957C94.9123 119.386 94.2613 119.653 93.7274 119.758C93.1936 119.849 92.7769 119.803 92.4774 119.621C92.1779 119.439 91.9826 119.178 91.8915 118.84C91.8134 118.488 91.8329 118.078 91.9501 117.609C92.0673 117.14 92.2691 116.672 92.5555 116.203C92.842 115.721 93.2131 115.265 93.6688 114.836C94.1246 114.406 94.6454 114.054 95.2313 113.781C95.8303 113.508 96.4878 113.338 97.204 113.273C97.9331 113.195 98.7144 113.273 99.5477 113.508L99.7626 113.273L102.399 107.98C102.751 108.032 102.959 108.189 103.024 108.449C103.089 108.709 103.083 108.996 103.005 109.308C102.94 109.621 102.835 109.927 102.692 110.226C102.562 110.513 102.464 110.721 102.399 110.851C102.36 110.929 102.282 111.079 102.165 111.301C102.061 111.522 101.931 111.789 101.774 112.101C101.631 112.401 101.475 112.72 101.306 113.058C101.136 113.397 100.974 113.722 100.817 114.035C100.674 114.334 100.544 114.601 100.427 114.836C100.309 115.057 100.238 115.2 100.212 115.265C99.9774 115.747 99.8667 116.261 99.8798 116.808C99.9058 117.342 99.9384 117.857 99.9774 118.351C100.03 118.586 100.134 118.781 100.29 118.937C100.446 119.08 100.609 119.217 100.778 119.347C100.96 119.465 101.136 119.582 101.306 119.699C101.488 119.816 101.638 119.959 101.755 120.129C101.703 120.298 101.599 120.383 101.442 120.383C101.286 120.396 101.123 120.37 100.954 120.304C100.785 120.239 100.628 120.161 100.485 120.07C100.342 119.979 100.251 119.92 100.212 119.894ZM92.9266 119.015C92.9787 119.237 93.174 119.302 93.5126 119.211C93.8641 119.12 94.2743 118.931 94.743 118.644C95.2118 118.345 95.7066 117.987 96.2274 117.57C96.7613 117.153 97.2365 116.737 97.6532 116.32C98.0829 115.903 98.4149 115.519 98.6493 115.168C98.8967 114.816 98.9748 114.556 98.8837 114.386C98.48 114.165 98.0308 114.054 97.536 114.054C97.0412 114.054 96.5464 114.146 96.0516 114.328C95.5699 114.497 95.1011 114.745 94.6454 115.07C94.2027 115.383 93.8251 115.747 93.5126 116.164C93.2131 116.58 92.9983 117.036 92.868 117.531C92.7509 118.013 92.7704 118.508 92.9266 119.015ZM39.1512 138.679C38.3179 137.534 37.6473 136.59 37.1395 135.847C36.6317 135.092 36.215 134.532 35.8895 134.168C35.564 133.803 35.2971 133.627 35.0887 133.64C34.8804 133.653 34.6525 133.855 34.4052 134.246C34.1708 134.623 33.8778 135.183 33.5262 135.926C33.1747 136.668 32.6929 137.586 32.0809 138.679C32.0028 138.823 31.9182 138.914 31.827 138.953C31.7489 138.979 31.6708 138.979 31.5927 138.953C31.5145 138.914 31.4429 138.849 31.3778 138.758C31.3127 138.666 31.2606 138.569 31.2216 138.465C31.1825 138.334 31.2281 138.087 31.3583 137.722C31.4885 137.345 31.6773 136.896 31.9247 136.375C32.1851 135.841 32.4846 135.255 32.8231 134.617C33.1747 133.966 33.5393 133.302 33.9169 132.625C34.3075 131.948 34.6916 131.277 35.0692 130.613C35.4598 129.949 35.8179 129.337 36.1434 128.777C36.482 128.204 36.7815 127.703 37.0419 127.273C37.3023 126.844 37.4911 126.524 37.6083 126.316C37.6994 126.251 37.7906 126.245 37.8817 126.297C37.9859 126.349 38.0705 126.433 38.1356 126.551C38.2137 126.655 38.2658 126.772 38.2919 126.902C38.3179 127.019 38.3049 127.117 38.2528 127.195L36.495 130.281V130.73C36.7684 130.795 37.107 130.776 37.5106 130.672C37.9273 130.554 38.37 130.392 38.8387 130.183C39.3205 129.975 39.8088 129.734 40.3036 129.461C40.7984 129.174 41.2671 128.894 41.7098 128.621C42.1656 128.334 42.5692 128.067 42.9208 127.82C43.2854 127.56 43.5718 127.351 43.7802 127.195C43.9494 127.104 44.0992 127.078 44.2294 127.117C44.3726 127.156 44.4768 127.228 44.5419 127.332C44.62 127.436 44.6525 127.56 44.6395 127.703C44.6265 127.846 44.5614 127.976 44.4442 128.094C44.0796 128.471 43.6434 128.797 43.1356 129.07C42.6408 129.33 42.1135 129.571 41.5536 129.793C40.9937 130.001 40.4208 130.203 39.8348 130.398C39.2619 130.58 38.7085 130.782 38.1747 131.004C37.6408 131.225 37.1525 131.472 36.7098 131.746C36.2671 132.019 35.9025 132.345 35.6161 132.722C35.7854 132.866 36.0067 133.094 36.2802 133.406C36.5666 133.705 36.8726 134.044 37.1981 134.422C37.5367 134.799 37.8752 135.203 38.2137 135.633C38.5523 136.049 38.8518 136.459 39.1122 136.863C39.3856 137.254 39.607 137.612 39.7762 137.937C39.9585 138.25 40.0497 138.497 40.0497 138.679V139.129C39.9455 139.181 39.8479 139.2 39.7567 139.187C39.6786 139.161 39.6005 139.122 39.5223 139.07C39.4442 139.018 39.3726 138.959 39.3075 138.894C39.2554 138.816 39.2033 138.745 39.1512 138.679ZM54.7255 139.129C54.6864 138.699 54.719 138.276 54.8231 137.859C54.9403 137.429 55.09 137.013 55.2723 136.609C55.4677 136.192 55.6695 135.782 55.8778 135.379C56.0992 134.962 56.288 134.558 56.4442 134.168C56.6005 133.764 56.7111 133.373 56.7762 132.996C56.8413 132.605 56.8153 132.221 56.6981 131.844C56.3726 131.726 55.995 131.752 55.5653 131.922C55.1486 132.091 54.7059 132.351 54.2372 132.703C53.7684 133.041 53.2802 133.445 52.7723 133.914C52.2775 134.37 51.7893 134.838 51.3075 135.32C50.8387 135.789 50.3895 136.238 49.9598 136.668C49.5302 137.097 49.1395 137.455 48.788 137.742C48.4494 138.015 48.163 138.191 47.9286 138.269C47.6942 138.334 47.538 138.25 47.4598 138.015C47.4468 138.002 47.5184 137.84 47.6747 137.527C47.844 137.202 48.0458 136.798 48.2802 136.316C48.5275 135.834 48.7945 135.314 49.0809 134.754C49.3804 134.194 49.6604 133.673 49.9208 133.191C50.1812 132.696 50.4091 132.28 50.6044 131.941C50.7997 131.603 50.9234 131.42 50.9755 131.394C51.2489 131.577 51.3856 131.778 51.3856 132C51.3986 132.208 51.3661 132.429 51.288 132.664C51.2098 132.885 51.1187 133.113 51.0145 133.347C50.9234 133.582 50.9104 133.816 50.9755 134.051C51.1838 133.907 51.4703 133.712 51.8348 133.465C52.2124 133.204 52.6161 132.937 53.0458 132.664C53.4885 132.39 53.9442 132.123 54.413 131.863C54.8947 131.603 55.344 131.401 55.7606 131.258C56.1773 131.101 56.5484 131.017 56.8739 131.004C57.2124 130.991 57.4598 131.088 57.6161 131.297C57.7723 131.505 57.8179 131.85 57.7528 132.332C57.7007 132.801 57.4989 133.445 57.1473 134.265C57.1083 134.357 57.0106 134.578 56.8544 134.929C56.7111 135.268 56.5484 135.639 56.3661 136.043C56.1968 136.433 56.0341 136.804 55.8778 137.156C55.7346 137.495 55.6434 137.709 55.6044 137.801C55.5913 137.853 55.5718 137.95 55.5458 138.094C55.5328 138.224 55.5132 138.373 55.4872 138.543C55.4611 138.699 55.4221 138.855 55.37 139.011C55.3179 139.155 55.2528 139.265 55.1747 139.344C55.0966 139.422 55.0054 139.415 54.9012 139.324C54.7971 139.22 54.7385 139.155 54.7255 139.129ZM61.9012 139.129C61.3544 138.907 61.0093 138.575 60.8661 138.133C60.7359 137.69 60.7424 137.202 60.8856 136.668C61.0288 136.121 61.2762 135.561 61.6278 134.988C61.9794 134.402 62.37 133.868 62.7997 133.386C63.2294 132.905 63.6591 132.501 64.0887 132.176C64.5315 131.837 64.9091 131.648 65.2216 131.609C66.0288 131.505 66.6604 131.564 67.1161 131.785C67.5848 131.993 67.9038 132.299 68.0731 132.703C68.2424 133.107 68.288 133.582 68.2098 134.129C68.1317 134.663 67.9559 135.203 67.6825 135.75C67.4221 136.297 67.077 136.824 66.6473 137.332C66.2307 137.84 65.7619 138.269 65.2411 138.621C64.7333 138.959 64.1929 139.187 63.62 139.304C63.0471 139.409 62.4742 139.35 61.9012 139.129ZM61.6864 138.015C61.7906 138.432 62.0119 138.666 62.3505 138.719C62.689 138.758 63.0796 138.673 63.5223 138.465C63.9781 138.243 64.4533 137.931 64.9481 137.527C65.4429 137.11 65.8921 136.661 66.2958 136.179C66.7124 135.698 67.051 135.216 67.3114 134.734C67.5848 134.239 67.715 133.81 67.702 133.445C67.702 133.08 67.5262 132.807 67.1747 132.625C66.8361 132.429 66.2632 132.39 65.4559 132.508C65.2736 132.677 65.0393 132.885 64.7528 133.133C64.4663 133.367 64.1669 133.627 63.8544 133.914C63.5549 134.2 63.2554 134.513 62.9559 134.851C62.6565 135.177 62.396 135.515 62.1747 135.867C61.9533 136.219 61.7906 136.577 61.6864 136.941C61.5953 137.306 61.5953 137.664 61.6864 138.015ZM77.2802 139.129C77.0197 138.933 76.8179 138.679 76.6747 138.367C76.5315 138.054 76.4208 137.722 76.3427 137.371C76.2775 137.019 76.232 136.668 76.2059 136.316C76.1799 135.965 76.1669 135.652 76.1669 135.379C76.1408 135.353 76.1018 135.34 76.0497 135.34C76.0106 135.34 75.9781 135.353 75.952 135.379C75.6265 135.613 75.314 135.893 75.0145 136.219C74.715 136.544 74.4156 136.876 74.1161 137.215C73.8296 137.553 73.5432 137.892 73.2567 138.23C72.9833 138.556 72.7033 138.855 72.4169 139.129C72.2346 139.194 72.0458 139.213 71.8505 139.187C71.6552 139.148 71.4859 139.083 71.3427 138.992C71.2124 138.888 71.1148 138.758 71.0497 138.601C70.9976 138.432 71.0171 138.237 71.1083 138.015C71.3557 137.221 71.6226 136.381 71.9091 135.496C72.2085 134.597 72.521 133.745 72.8466 132.937C72.9637 132.651 73.0874 132.495 73.2177 132.469C73.3609 132.442 73.4846 132.495 73.5887 132.625C73.6929 132.755 73.7645 132.937 73.8036 133.172C73.8427 133.393 73.8231 133.614 73.745 133.836C73.7059 133.94 73.6343 134.129 73.5302 134.402C73.426 134.663 73.3153 134.949 73.1981 135.261C73.0809 135.561 72.9703 135.847 72.8661 136.121C72.7619 136.394 72.6903 136.583 72.6512 136.687V137.351C73.0549 136.987 73.3934 136.661 73.6669 136.375C73.9403 136.088 74.1942 135.802 74.4286 135.515C74.676 135.216 74.9299 134.903 75.1903 134.578C75.4507 134.239 75.7762 133.842 76.1669 133.386C76.4663 133.035 76.7007 132.846 76.87 132.82C77.0393 132.781 77.163 132.853 77.2411 133.035C77.3322 133.204 77.3843 133.458 77.3973 133.797C77.4104 134.122 77.4104 134.48 77.3973 134.871C77.3973 135.248 77.3843 135.633 77.3583 136.023C77.3322 136.401 77.3192 136.733 77.3192 137.019C77.3322 137.293 77.3648 137.495 77.4169 137.625C77.469 137.742 77.5666 137.729 77.7098 137.586C77.8661 137.338 78.094 136.98 78.3934 136.511C78.6929 136.043 79.0315 135.528 79.4091 134.969C79.7867 134.396 80.1968 133.823 80.6395 133.25C81.0953 132.664 81.5575 132.143 82.0262 131.687C82.495 131.219 82.9637 130.854 83.4325 130.594C83.9012 130.32 84.3505 130.216 84.7802 130.281C84.7932 130.333 84.715 130.476 84.5458 130.711C84.3895 130.945 84.1747 131.225 83.9012 131.551C83.6408 131.863 83.3479 132.208 83.0223 132.586C82.7098 132.95 82.3973 133.302 82.0848 133.64C81.7854 133.979 81.5184 134.285 81.2841 134.558C81.0497 134.832 80.8869 135.034 80.7958 135.164C80.7567 135.216 80.6721 135.333 80.5419 135.515C80.4247 135.685 80.2815 135.893 80.1122 136.14C79.9559 136.375 79.7802 136.629 79.5848 136.902C79.4025 137.176 79.2268 137.436 79.0575 137.683C78.8882 137.931 78.7385 138.146 78.6083 138.328C78.4911 138.51 78.413 138.627 78.3739 138.679C78.2567 138.849 78.1591 138.985 78.0809 139.09C78.0028 139.194 77.9247 139.265 77.8466 139.304C77.7815 139.344 77.7033 139.35 77.6122 139.324C77.521 139.298 77.4104 139.233 77.2802 139.129ZM88.9872 139.129C88.5966 138.998 88.2971 138.803 88.0887 138.543C87.8934 138.269 87.7632 137.97 87.6981 137.644C87.633 137.319 87.62 136.98 87.6591 136.629C87.7111 136.264 87.7893 135.919 87.8934 135.594C88.2841 135.177 88.7203 134.702 89.202 134.168C89.6968 133.621 90.2177 133.087 90.7645 132.566C91.3114 132.045 91.8778 131.564 92.4637 131.121C93.0627 130.665 93.6682 130.32 94.2802 130.086C94.4885 129.995 94.6512 130.001 94.7684 130.105C94.8986 130.196 94.9898 130.346 95.0419 130.554C95.094 130.763 95.1135 131.004 95.1005 131.277C95.1005 131.551 95.0809 131.817 95.0419 132.078C95.0028 132.338 94.9507 132.573 94.8856 132.781C94.8205 132.989 94.7554 133.133 94.6903 133.211C94.5341 133.393 94.2281 133.608 93.7723 133.855C93.3296 134.103 92.8348 134.376 92.288 134.676C91.7411 134.962 91.1942 135.261 90.6473 135.574C90.1005 135.886 89.6512 136.199 89.2997 136.511C88.9481 136.811 88.7398 137.11 88.6747 137.41C88.6096 137.709 88.7919 137.983 89.2216 138.23C89.6643 138.282 90.1981 138.263 90.8231 138.172C91.4611 138.067 92.1057 137.937 92.7567 137.781C93.4208 137.612 94.0588 137.442 94.6708 137.273C95.2828 137.091 95.7841 136.948 96.1747 136.844L96.4091 137.058C96.1226 137.436 95.6538 137.781 95.0028 138.094C94.3518 138.406 93.6486 138.666 92.8934 138.875C92.1382 139.07 91.4025 139.2 90.6864 139.265C89.9703 139.317 89.4038 139.272 88.9872 139.129ZM93.6552 131.668C93.6421 131.655 93.5445 131.713 93.3622 131.844C93.1799 131.961 92.952 132.123 92.6786 132.332C92.4182 132.527 92.1317 132.748 91.8192 132.996C91.5197 133.23 91.2398 133.452 90.9794 133.66C90.732 133.868 90.5236 134.051 90.3544 134.207C90.1851 134.35 90.1135 134.422 90.1395 134.422C90.3479 134.461 90.6148 134.435 90.9403 134.344C91.2788 134.239 91.6239 134.096 91.9755 133.914C92.34 133.732 92.6851 133.53 93.0106 133.308C93.3361 133.074 93.59 132.846 93.7723 132.625C93.9677 132.403 94.0653 132.208 94.0653 132.039C94.0783 131.87 93.9416 131.746 93.6552 131.668ZM98.9364 139.129C98.5588 138.855 98.3114 138.51 98.1942 138.094C98.09 137.677 98.077 137.228 98.1552 136.746C98.2333 136.251 98.37 135.743 98.5653 135.222C98.7736 134.702 98.995 134.2 99.2294 133.719C99.4768 133.237 99.7111 132.794 99.9325 132.39C100.167 131.987 100.349 131.655 100.479 131.394C100.518 131.316 100.61 131.127 100.753 130.828C100.909 130.528 101.072 130.203 101.241 129.851C101.41 129.5 101.567 129.174 101.71 128.875C101.866 128.562 101.964 128.367 102.003 128.289C102.042 128.224 102.094 128.1 102.159 127.918C102.237 127.722 102.322 127.514 102.413 127.293C102.504 127.071 102.602 126.863 102.706 126.668C102.823 126.459 102.94 126.31 103.057 126.219C103.188 126.127 103.311 126.114 103.429 126.179C103.559 126.245 103.682 126.44 103.8 126.765C103.748 126.896 103.617 127.156 103.409 127.547C103.214 127.937 102.979 128.406 102.706 128.953C102.432 129.5 102.127 130.105 101.788 130.769C101.462 131.433 101.143 132.104 100.831 132.781C100.518 133.458 100.225 134.122 99.952 134.773C99.6786 135.411 99.4507 135.997 99.2684 136.531C99.0992 137.052 98.995 137.488 98.9559 137.84C98.9299 138.178 98.995 138.386 99.1512 138.465C99.3335 138.556 99.5679 138.595 99.8544 138.582C100.154 138.556 100.46 138.517 100.772 138.465C101.085 138.413 101.391 138.36 101.69 138.308C101.99 138.243 102.25 138.217 102.472 138.23C102.524 138.347 102.485 138.465 102.354 138.582C102.224 138.686 102.042 138.784 101.807 138.875C101.573 138.953 101.3 139.024 100.987 139.09C100.688 139.142 100.395 139.181 100.108 139.207C99.8348 139.233 99.5874 139.239 99.3661 139.226C99.1578 139.213 99.0145 139.181 98.9364 139.129ZM114.628 138.894C114.133 138.556 113.775 138.139 113.554 137.644C113.332 137.136 113.169 136.596 113.065 136.023H112.85C111.796 136.883 110.878 137.527 110.097 137.957C109.328 138.386 108.677 138.653 108.143 138.758C107.61 138.849 107.193 138.803 106.893 138.621C106.594 138.439 106.399 138.178 106.307 137.84C106.229 137.488 106.249 137.078 106.366 136.609C106.483 136.14 106.685 135.672 106.972 135.203C107.258 134.721 107.629 134.265 108.085 133.836C108.541 133.406 109.061 133.054 109.647 132.781C110.246 132.508 110.904 132.338 111.62 132.273C112.349 132.195 113.13 132.273 113.964 132.508L114.179 132.273L116.815 126.98C117.167 127.032 117.375 127.189 117.44 127.449C117.505 127.709 117.499 127.996 117.421 128.308C117.356 128.621 117.252 128.927 117.108 129.226C116.978 129.513 116.88 129.721 116.815 129.851C116.776 129.929 116.698 130.079 116.581 130.301C116.477 130.522 116.347 130.789 116.19 131.101C116.047 131.401 115.891 131.72 115.722 132.058C115.552 132.397 115.39 132.722 115.233 133.035C115.09 133.334 114.96 133.601 114.843 133.836C114.725 134.057 114.654 134.2 114.628 134.265C114.393 134.747 114.283 135.261 114.296 135.808C114.322 136.342 114.354 136.857 114.393 137.351C114.446 137.586 114.55 137.781 114.706 137.937C114.862 138.08 115.025 138.217 115.194 138.347C115.377 138.465 115.552 138.582 115.722 138.699C115.904 138.816 116.054 138.959 116.171 139.129C116.119 139.298 116.015 139.383 115.858 139.383C115.702 139.396 115.539 139.37 115.37 139.304C115.201 139.239 115.044 139.161 114.901 139.07C114.758 138.979 114.667 138.92 114.628 138.894ZM107.343 138.015C107.395 138.237 107.59 138.302 107.929 138.211C108.28 138.12 108.69 137.931 109.159 137.644C109.628 137.345 110.123 136.987 110.643 136.57C111.177 136.153 111.653 135.737 112.069 135.32C112.499 134.903 112.831 134.519 113.065 134.168C113.313 133.816 113.391 133.556 113.3 133.386C112.896 133.165 112.447 133.054 111.952 133.054C111.457 133.054 110.962 133.146 110.468 133.328C109.986 133.497 109.517 133.745 109.061 134.07C108.619 134.383 108.241 134.747 107.929 135.164C107.629 135.58 107.414 136.036 107.284 136.531C107.167 137.013 107.186 137.508 107.343 138.015ZM116.218 144.851C115.814 144.708 115.488 144.493 115.241 144.207C114.981 143.92 114.785 143.608 114.655 143.269C114.512 142.944 114.427 142.612 114.401 142.273C114.362 141.935 114.369 141.635 114.421 141.375C114.46 141.114 114.538 140.913 114.655 140.769C114.759 140.639 114.883 140.607 115.026 140.672C115.013 141.804 115.15 142.657 115.436 143.23C115.71 143.816 116.074 144.181 116.53 144.324C116.973 144.48 117.481 144.448 118.054 144.226C118.613 144.005 119.18 143.66 119.753 143.191C120.339 142.735 120.892 142.182 121.413 141.531C121.947 140.893 122.396 140.222 122.761 139.519C123.125 138.829 123.386 138.146 123.542 137.469C123.698 136.778 123.692 136.153 123.522 135.594C122.35 136.44 121.439 136.974 120.788 137.195C120.137 137.416 119.681 137.429 119.421 137.234C119.173 137.026 119.095 136.661 119.186 136.14C119.278 135.62 119.473 135.047 119.772 134.422C120.072 133.797 120.449 133.172 120.905 132.547C121.361 131.909 121.83 131.375 122.311 130.945C122.793 130.515 123.255 130.242 123.698 130.125C124.154 130.008 124.531 130.144 124.831 130.535C125.13 130.939 125.319 131.485 125.397 132.176C125.475 132.853 125.456 133.608 125.339 134.441C125.222 135.274 125.013 136.147 124.714 137.058C124.427 137.97 124.069 138.855 123.64 139.715C123.21 140.587 122.715 141.394 122.155 142.136C121.608 142.879 121.016 143.497 120.378 143.992C119.74 144.487 119.069 144.819 118.366 144.988C117.663 145.17 116.947 145.125 116.218 144.851ZM120.202 135.164C120.189 135.203 120.176 135.274 120.163 135.379C120.163 135.483 120.163 135.594 120.163 135.711C120.163 135.828 120.163 135.939 120.163 136.043C120.176 136.147 120.189 136.219 120.202 136.258C120.619 136.362 121.048 136.264 121.491 135.965C121.934 135.665 122.337 135.281 122.702 134.812C123.08 134.344 123.392 133.849 123.64 133.328C123.9 132.807 124.056 132.371 124.108 132.019C124.173 131.668 124.108 131.472 123.913 131.433C123.718 131.381 123.36 131.59 122.839 132.058C122.682 132.202 122.474 132.397 122.214 132.644C121.953 132.892 121.686 133.159 121.413 133.445C121.153 133.732 120.905 134.031 120.671 134.344C120.449 134.643 120.293 134.916 120.202 135.164ZM129.585 139.129C129.194 138.998 128.895 138.803 128.686 138.543C128.491 138.269 128.361 137.97 128.296 137.644C128.231 137.319 128.218 136.98 128.257 136.629C128.309 136.264 128.387 135.919 128.491 135.594C128.882 135.177 129.318 134.702 129.8 134.168C130.294 133.621 130.815 133.087 131.362 132.566C131.909 132.045 132.475 131.564 133.061 131.121C133.66 130.665 134.266 130.32 134.878 130.086C135.086 129.995 135.249 130.001 135.366 130.105C135.496 130.196 135.587 130.346 135.64 130.554C135.692 130.763 135.711 131.004 135.698 131.277C135.698 131.551 135.679 131.817 135.64 132.078C135.6 132.338 135.548 132.573 135.483 132.781C135.418 132.989 135.353 133.133 135.288 133.211C135.132 133.393 134.826 133.608 134.37 133.855C133.927 134.103 133.432 134.376 132.886 134.676C132.339 134.962 131.792 135.261 131.245 135.574C130.698 135.886 130.249 136.199 129.897 136.511C129.546 136.811 129.337 137.11 129.272 137.41C129.207 137.709 129.39 137.983 129.819 138.23C130.262 138.282 130.796 138.263 131.421 138.172C132.059 138.067 132.703 137.937 133.354 137.781C134.018 137.612 134.656 137.442 135.268 137.273C135.88 137.091 136.382 136.948 136.772 136.844L137.007 137.058C136.72 137.436 136.252 137.781 135.6 138.094C134.949 138.406 134.246 138.666 133.491 138.875C132.736 139.07 132 139.2 131.284 139.265C130.568 139.317 130.002 139.272 129.585 139.129ZM134.253 131.668C134.24 131.655 134.142 131.713 133.96 131.844C133.778 131.961 133.55 132.123 133.276 132.332C133.016 132.527 132.729 132.748 132.417 132.996C132.117 133.23 131.837 133.452 131.577 133.66C131.33 133.868 131.121 134.051 130.952 134.207C130.783 134.35 130.711 134.422 130.737 134.422C130.946 134.461 131.212 134.435 131.538 134.344C131.877 134.239 132.222 134.096 132.573 133.914C132.938 133.732 133.283 133.53 133.608 133.308C133.934 133.074 134.188 132.846 134.37 132.625C134.565 132.403 134.663 132.208 134.663 132.039C134.676 131.87 134.539 131.746 134.253 131.668Z" fill="black"/>
<path d="M249.589 81.3578C249.511 81.0323 249.511 80.6612 249.589 80.2445C249.68 79.8148 249.804 79.3851 249.96 78.9554C250.116 78.5258 250.285 78.1156 250.468 77.725C250.65 77.3213 250.8 76.9893 250.917 76.7289C250.982 76.5726 251.08 76.3448 251.21 76.0453C251.353 75.7458 251.509 75.4073 251.679 75.0297C251.861 74.6521 252.043 74.2549 252.225 73.8383C252.421 73.4216 252.603 73.0245 252.772 72.6469C252.955 72.2692 253.111 71.9372 253.241 71.6508C253.384 71.3513 253.489 71.1299 253.554 70.9867C253.332 70.9476 253.013 70.9672 252.597 71.0453C252.193 71.1234 251.744 71.2276 251.249 71.3578C250.754 71.475 250.246 71.5987 249.725 71.7289C249.205 71.8591 248.716 71.9567 248.261 72.0219C247.818 72.0739 247.434 72.0804 247.108 72.0414C246.796 71.9893 246.6 71.8526 246.522 71.6312C246.614 71.462 246.946 71.2666 247.518 71.0453C248.091 70.8239 248.821 70.5961 249.706 70.3617C250.604 70.1143 251.6 69.8669 252.694 69.6195C253.801 69.3721 254.927 69.1377 256.073 68.9164C257.219 68.695 258.339 68.4932 259.433 68.3109C260.526 68.1286 261.503 67.9789 262.362 67.8617C263.222 67.7445 263.912 67.6664 264.433 67.6273C264.966 67.5883 265.246 67.6013 265.272 67.6664C265.311 67.7705 265.318 67.9008 265.292 68.057C265.266 68.2002 265.181 68.2914 265.038 68.3304C264.4 68.4346 263.71 68.5518 262.968 68.682C262.225 68.7992 261.47 68.9294 260.702 69.0726C259.947 69.2028 259.205 69.3396 258.475 69.4828C257.746 69.613 257.069 69.7432 256.444 69.8734C256.041 69.9515 255.65 70.1859 255.272 70.5765C254.895 70.9672 254.53 71.4554 254.179 72.0414C253.827 72.6143 253.489 73.2588 253.163 73.975C252.837 74.6781 252.525 75.3942 252.225 76.1234C251.939 76.8526 251.672 77.5557 251.425 78.2328C251.177 78.9099 250.949 79.5088 250.741 80.0297C250.533 80.5375 250.35 80.9346 250.194 81.2211C250.038 81.5075 249.908 81.6247 249.804 81.5726C249.778 81.5466 249.739 81.5075 249.686 81.4554C249.634 81.4034 249.602 81.3708 249.589 81.3578ZM260.729 81.3578C260.339 81.2276 260.039 81.0323 259.831 80.7719C259.636 80.4984 259.505 80.1989 259.44 79.8734C259.375 79.5479 259.362 79.2094 259.401 78.8578C259.453 78.4932 259.531 78.1482 259.636 77.8226C260.026 77.406 260.462 76.9307 260.944 76.3969C261.439 75.85 261.96 75.3161 262.507 74.7953C263.054 74.2745 263.62 73.7927 264.206 73.35C264.805 72.8942 265.41 72.5492 266.022 72.3148C266.231 72.2237 266.393 72.2302 266.511 72.3344C266.641 72.4255 266.732 72.5752 266.784 72.7836C266.836 72.9919 266.856 73.2328 266.843 73.5062C266.843 73.7797 266.823 74.0466 266.784 74.307C266.745 74.5674 266.693 74.8018 266.628 75.0101C266.563 75.2185 266.498 75.3617 266.433 75.4398C266.276 75.6221 265.97 75.837 265.515 76.0844C265.072 76.3317 264.577 76.6052 264.03 76.9047C263.483 77.1911 262.936 77.4906 262.39 77.8031C261.843 78.1156 261.393 78.4281 261.042 78.7406C260.69 79.0401 260.482 79.3396 260.417 79.639C260.352 79.9385 260.534 80.212 260.964 80.4594C261.406 80.5114 261.94 80.4919 262.565 80.4008C263.203 80.2966 263.848 80.1664 264.499 80.0101C265.163 79.8409 265.801 79.6716 266.413 79.5023C267.025 79.32 267.526 79.1768 267.917 79.0726L268.151 79.2875C267.865 79.6651 267.396 80.0101 266.745 80.3226C266.094 80.6351 265.391 80.8955 264.636 81.1039C263.88 81.2992 263.145 81.4294 262.429 81.4945C261.712 81.5466 261.146 81.501 260.729 81.3578ZM265.397 73.8969C265.384 73.8838 265.287 73.9424 265.104 74.0726C264.922 74.1898 264.694 74.3526 264.421 74.5609C264.16 74.7562 263.874 74.9776 263.561 75.225C263.262 75.4594 262.982 75.6807 262.722 75.889C262.474 76.0974 262.266 76.2797 262.097 76.4359C261.927 76.5791 261.856 76.6508 261.882 76.6508C262.09 76.6898 262.357 76.6638 262.683 76.5726C263.021 76.4685 263.366 76.3252 263.718 76.1429C264.082 75.9607 264.427 75.7588 264.753 75.5375C265.078 75.3031 265.332 75.0752 265.515 74.8539C265.71 74.6325 265.808 74.4372 265.808 74.2679C265.821 74.0987 265.684 73.975 265.397 73.8969ZM271.558 81.3578C270.893 81.1364 270.451 80.7914 270.229 80.3226C270.021 79.8539 269.962 79.3265 270.054 78.7406C270.158 78.1416 270.386 77.5166 270.737 76.8656C271.089 76.2015 271.505 75.57 271.987 74.9711C272.469 74.3721 272.977 73.8317 273.511 73.35C274.045 72.8682 274.546 72.5036 275.015 72.2562C275.496 72.0088 275.906 71.9112 276.245 71.9633C276.584 72.0153 276.792 72.2758 276.87 72.7445C276.909 72.9528 276.883 73.1807 276.792 73.4281C276.714 73.6755 276.597 73.9164 276.44 74.1508C276.297 74.3721 276.128 74.5804 275.933 74.7758C275.75 74.958 275.568 75.0948 275.386 75.1859C275.216 75.2771 275.06 75.3096 274.917 75.2836C274.787 75.2575 274.702 75.1469 274.663 74.9515C274.819 74.6911 274.995 74.4307 275.19 74.1703C275.386 73.8969 275.574 73.6429 275.757 73.4086C275.679 73.2653 275.529 73.2328 275.308 73.3109C275.086 73.389 274.819 73.5453 274.507 73.7797C274.194 74.014 273.862 74.3135 273.511 74.6781C273.172 75.0297 272.84 75.4138 272.515 75.8304C272.189 76.2471 271.896 76.6833 271.636 77.139C271.388 77.5817 271.206 78.0114 271.089 78.4281C270.972 78.8448 270.939 79.2354 270.991 79.6C271.056 79.9515 271.245 80.238 271.558 80.4594C271.987 80.4984 272.482 80.4594 273.042 80.3422C273.602 80.212 274.175 80.0492 274.761 79.8539C275.347 79.6586 275.926 79.4502 276.499 79.2289C277.085 78.9945 277.612 78.7797 278.081 78.5844C278.563 78.389 278.966 78.2393 279.292 78.1351C279.63 78.0179 279.852 77.9854 279.956 78.0375C280.203 78.1677 280.216 78.3565 279.995 78.6039C279.787 78.8513 279.429 79.1182 278.921 79.4047C278.413 79.6911 277.808 79.9776 277.104 80.264C276.414 80.5375 275.718 80.7784 275.015 80.9867C274.311 81.182 273.647 81.3252 273.022 81.4164C272.397 81.4945 271.909 81.475 271.558 81.3578ZM282.698 81.1234C282.685 81.0974 282.679 81.0648 282.679 81.0258C282.679 80.9737 282.685 80.9346 282.698 80.9086C282.75 80.8044 282.835 80.6286 282.952 80.3812C283.082 80.1208 283.212 79.8539 283.343 79.5804C283.486 79.294 283.623 79.0271 283.753 78.7797C283.883 78.5323 283.974 78.3565 284.026 78.2523C284.052 78.2133 284.117 78.1026 284.222 77.9203C284.339 77.738 284.475 77.5166 284.632 77.2562C284.801 76.9828 284.977 76.6833 285.159 76.3578C285.354 76.0323 285.543 75.7133 285.725 75.4008C285.921 75.0883 286.097 74.7953 286.253 74.5219C286.422 74.2484 286.559 74.0205 286.663 73.8383C286.923 73.4086 287.223 72.9008 287.561 72.3148C287.913 71.7289 288.271 71.1364 288.636 70.5375C289 69.9385 289.358 69.3591 289.71 68.7992C290.074 68.2393 290.406 67.7771 290.706 67.4125C291.005 67.0479 291.259 66.807 291.468 66.6898C291.676 66.5726 291.819 66.6508 291.897 66.9242V67.5492C291.806 67.6924 291.683 67.8812 291.526 68.1156C291.37 68.337 291.207 68.5778 291.038 68.8383C290.882 69.0857 290.725 69.3265 290.569 69.5609C290.413 69.7953 290.296 69.9776 290.218 70.1078C290.1 70.2901 289.912 70.583 289.651 70.9867C289.391 71.3903 289.098 71.8461 288.772 72.3539C288.447 72.8617 288.115 73.3955 287.776 73.9554C287.438 74.5023 287.132 75.0166 286.858 75.4984C286.585 75.9802 286.364 76.3969 286.194 76.7484C286.038 77.087 285.979 77.3018 286.018 77.3929C286.331 77.3018 286.663 77.139 287.015 76.9047C287.379 76.6573 287.744 76.3969 288.108 76.1234C288.473 75.85 288.837 75.5896 289.202 75.3422C289.567 75.0817 289.905 74.8799 290.218 74.7367C290.53 74.7758 290.804 74.8929 291.038 75.0883C291.272 75.2836 291.442 75.531 291.546 75.8304C291.533 75.9476 291.52 76.169 291.507 76.4945C291.507 76.807 291.507 77.139 291.507 77.4906C291.507 77.8422 291.507 78.1742 291.507 78.4867C291.52 78.7992 291.533 79.014 291.546 79.1312C291.559 79.2745 291.624 79.4567 291.741 79.6781C291.858 79.8864 291.982 80.1013 292.112 80.3226C292.255 80.531 292.379 80.7133 292.483 80.8695C292.6 81.0258 292.653 81.1104 292.64 81.1234C292.379 81.2146 292.132 81.2211 291.897 81.1429C291.663 81.0518 291.455 80.9151 291.272 80.7328C291.103 80.5375 290.96 80.3226 290.843 80.0883C290.739 79.8409 290.673 79.6 290.647 79.3656C290.634 79.2484 290.615 79.0336 290.589 78.7211C290.563 78.3955 290.537 78.057 290.511 77.7054C290.498 77.3539 290.478 77.0219 290.452 76.7094C290.439 76.3969 290.433 76.182 290.433 76.0648L289.983 75.8304C289.905 75.7914 289.768 75.8239 289.573 75.9281C289.391 76.0323 289.176 76.1755 288.929 76.3578C288.681 76.5401 288.421 76.7484 288.147 76.9828C287.874 77.2172 287.614 77.4385 287.366 77.6469C287.132 77.8552 286.93 78.0375 286.761 78.1937C286.591 78.35 286.487 78.4476 286.448 78.4867C286.344 78.5909 286.155 78.7797 285.882 79.0531C285.608 79.3135 285.315 79.6 285.003 79.9125C284.703 80.212 284.417 80.4984 284.143 80.7719C283.883 81.0453 283.701 81.2406 283.597 81.3578C283.414 81.3969 283.239 81.4164 283.069 81.4164C282.913 81.4034 282.789 81.3057 282.698 81.1234ZM246.817 100.358C246.661 100.254 246.655 100.117 246.798 99.9476C246.954 99.7653 247.195 99.5765 247.52 99.3812C247.859 99.1729 248.25 98.958 248.692 98.7367C249.135 98.5153 249.558 98.307 249.962 98.1117C250.378 97.9164 250.743 97.7471 251.056 97.6039C251.368 97.4476 251.57 97.3304 251.661 97.2523C252.091 96.8877 252.312 96.5883 252.325 96.3539C252.351 96.1065 252.247 95.9112 252.013 95.7679C251.778 95.6117 251.446 95.4945 251.017 95.4164C250.6 95.3252 250.164 95.2471 249.708 95.182C249.265 95.1039 248.836 95.0258 248.419 94.9476C248.015 94.8695 247.709 94.7653 247.501 94.6351C247.293 94.5049 247.221 94.3357 247.286 94.1273C247.364 93.906 247.651 93.626 248.145 93.2875C248.328 93.1573 248.595 92.9685 248.946 92.7211C249.298 92.4737 249.675 92.2198 250.079 91.9594C250.496 91.6989 250.906 91.4646 251.309 91.2562C251.713 91.0479 252.052 90.9112 252.325 90.8461C252.468 90.82 252.612 90.833 252.755 90.8851C252.911 90.9372 253.035 91.0153 253.126 91.1195C253.217 91.2107 253.256 91.3148 253.243 91.432C253.243 91.5492 253.158 91.6534 252.989 91.7445C252.247 92.1612 251.531 92.5518 250.841 92.9164C250.164 93.281 249.48 93.6976 248.79 94.1664C248.751 94.2705 248.757 94.3617 248.809 94.4398C248.875 94.5179 248.946 94.5765 249.024 94.6156C250.405 94.7588 251.44 94.9607 252.13 95.2211C252.833 95.4815 253.276 95.7679 253.458 96.0804C253.653 96.3929 253.634 96.725 253.399 97.0765C253.165 97.4281 252.813 97.7732 252.345 98.1117C251.889 98.4502 251.362 98.7692 250.763 99.0687C250.164 99.3682 249.584 99.6221 249.024 99.8304C248.477 100.039 247.996 100.195 247.579 100.299C247.162 100.403 246.908 100.423 246.817 100.358ZM264.267 99.9086C263.433 98.7627 262.763 97.8187 262.255 97.0765C261.747 96.3213 261.33 95.7614 261.005 95.3969C260.679 95.0323 260.412 94.8565 260.204 94.8695C259.996 94.8825 259.768 95.0844 259.52 95.475C259.286 95.8526 258.993 96.4125 258.642 97.1547C258.29 97.8969 257.808 98.8148 257.196 99.9086C257.118 100.052 257.033 100.143 256.942 100.182C256.864 100.208 256.786 100.208 256.708 100.182C256.63 100.143 256.558 100.078 256.493 99.9867C256.428 99.8955 256.376 99.7979 256.337 99.6937C256.298 99.5635 256.343 99.3161 256.474 98.9515C256.604 98.5739 256.793 98.1247 257.04 97.6039C257.3 97.07 257.6 96.4841 257.938 95.8461C258.29 95.195 258.655 94.531 259.032 93.8539C259.423 93.1768 259.807 92.5062 260.184 91.8422C260.575 91.1781 260.933 90.5661 261.259 90.0062C261.597 89.4333 261.897 88.932 262.157 88.5023C262.418 88.0726 262.606 87.7536 262.724 87.5453C262.815 87.4802 262.906 87.4737 262.997 87.5258C263.101 87.5778 263.186 87.6625 263.251 87.7797C263.329 87.8838 263.381 88.001 263.407 88.1312C263.433 88.2484 263.42 88.3461 263.368 88.4242L261.61 91.5101V91.9594C261.884 92.0245 262.222 92.0049 262.626 91.9008C263.043 91.7836 263.485 91.6208 263.954 91.4125C264.436 91.2041 264.924 90.9633 265.419 90.6898C265.914 90.4034 266.382 90.1234 266.825 89.85C267.281 89.5635 267.684 89.2966 268.036 89.0492C268.401 88.7888 268.687 88.5804 268.895 88.4242C269.065 88.333 269.214 88.307 269.345 88.3461C269.488 88.3851 269.592 88.4567 269.657 88.5609C269.735 88.6651 269.768 88.7888 269.755 88.932C269.742 89.0752 269.677 89.2054 269.559 89.3226C269.195 89.7002 268.759 90.0258 268.251 90.2992C267.756 90.5596 267.229 90.8005 266.669 91.0219C266.109 91.2302 265.536 91.432 264.95 91.6273C264.377 91.8096 263.824 92.0114 263.29 92.2328C262.756 92.4541 262.268 92.7015 261.825 92.975C261.382 93.2484 261.018 93.5739 260.731 93.9515C260.901 94.0948 261.122 94.3226 261.395 94.6351C261.682 94.9346 261.988 95.2732 262.313 95.6508C262.652 96.0284 262.99 96.432 263.329 96.8617C263.668 97.2784 263.967 97.6885 264.227 98.0922C264.501 98.4828 264.722 98.8409 264.892 99.1664C265.074 99.4789 265.165 99.7263 265.165 99.9086V100.358C265.061 100.41 264.963 100.429 264.872 100.416C264.794 100.39 264.716 100.351 264.638 100.299C264.559 100.247 264.488 100.189 264.423 100.123C264.371 100.045 264.319 99.9737 264.267 99.9086ZM272.438 100.358C272.972 98.639 273.454 97.2784 273.884 96.2758C274.326 95.2601 274.691 94.5505 274.977 94.1469C275.277 93.7432 275.479 93.613 275.583 93.7562C275.687 93.8995 275.674 94.264 275.544 94.85C275.427 95.4359 275.166 96.2237 274.763 97.2133C274.372 98.1898 273.819 99.3096 273.102 100.573C272.998 100.612 272.875 100.618 272.731 100.592C272.588 100.566 272.49 100.488 272.438 100.358ZM275.856 90.9633C275.83 90.8982 275.817 90.781 275.817 90.6117C275.817 90.4424 275.83 90.3383 275.856 90.2992C276.156 90.195 276.384 90.182 276.54 90.2601C276.696 90.3383 276.794 90.4554 276.833 90.6117C276.872 90.7549 276.865 90.9112 276.813 91.0804C276.774 91.2497 276.703 91.3799 276.599 91.4711C276.494 91.5492 276.371 91.5622 276.227 91.5101C276.097 91.445 275.974 91.2627 275.856 90.9633ZM280.298 100.358C279.92 100.084 279.673 99.7393 279.556 99.3226C279.451 98.906 279.438 98.4567 279.517 97.975C279.595 97.4802 279.731 96.9724 279.927 96.4515C280.135 95.9307 280.356 95.4294 280.591 94.9476C280.838 94.4659 281.073 94.0232 281.294 93.6195C281.528 93.2159 281.711 92.8838 281.841 92.6234C281.88 92.5453 281.971 92.3565 282.114 92.057C282.27 91.7575 282.433 91.432 282.602 91.0804C282.772 90.7289 282.928 90.4034 283.071 90.1039C283.227 89.7914 283.325 89.5961 283.364 89.5179C283.403 89.4528 283.455 89.3291 283.52 89.1469C283.599 88.9515 283.683 88.7432 283.774 88.5219C283.865 88.3005 283.963 88.0922 284.067 87.8969C284.184 87.6885 284.302 87.5388 284.419 87.4476C284.549 87.3565 284.673 87.3435 284.79 87.4086C284.92 87.4737 285.044 87.669 285.161 87.9945C285.109 88.1247 284.979 88.3851 284.77 88.7758C284.575 89.1664 284.341 89.6351 284.067 90.182C283.794 90.7289 283.488 91.3344 283.149 91.9984C282.824 92.6625 282.505 93.333 282.192 94.0101C281.88 94.6872 281.587 95.3513 281.313 96.0023C281.04 96.6403 280.812 97.2263 280.63 97.7601C280.461 98.281 280.356 98.7172 280.317 99.0687C280.291 99.4073 280.356 99.6156 280.513 99.6937C280.695 99.7849 280.929 99.8239 281.216 99.8109C281.515 99.7849 281.821 99.7458 282.134 99.6937C282.446 99.6416 282.752 99.5896 283.052 99.5375C283.351 99.4724 283.612 99.4463 283.833 99.4594C283.885 99.5765 283.846 99.6937 283.716 99.8109C283.586 99.9151 283.403 100.013 283.169 100.104C282.934 100.182 282.661 100.254 282.349 100.319C282.049 100.371 281.756 100.41 281.47 100.436C281.196 100.462 280.949 100.468 280.727 100.455C280.519 100.442 280.376 100.41 280.298 100.358ZM288.704 100.358C288.326 100.084 288.079 99.7393 287.962 99.3226C287.858 98.906 287.845 98.4567 287.923 97.975C288.001 97.4802 288.138 96.9724 288.333 96.4515C288.541 95.9307 288.763 95.4294 288.997 94.9476C289.244 94.4659 289.479 94.0232 289.7 93.6195C289.934 93.2159 290.117 92.8838 290.247 92.6234C290.286 92.5453 290.377 92.3565 290.52 92.057C290.677 91.7575 290.839 91.432 291.009 91.0804C291.178 90.7289 291.334 90.4034 291.477 90.1039C291.634 89.7914 291.731 89.5961 291.77 89.5179C291.809 89.4528 291.862 89.3291 291.927 89.1469C292.005 88.9515 292.089 88.7432 292.181 88.5219C292.272 88.3005 292.369 88.0922 292.474 87.8969C292.591 87.6885 292.708 87.5388 292.825 87.4476C292.955 87.3565 293.079 87.3435 293.196 87.4086C293.326 87.4737 293.45 87.669 293.567 87.9945C293.515 88.1247 293.385 88.3851 293.177 88.7758C292.981 89.1664 292.747 89.6351 292.474 90.182C292.2 90.7289 291.894 91.3344 291.556 91.9984C291.23 92.6625 290.911 93.333 290.599 94.0101C290.286 94.6872 289.993 95.3513 289.72 96.0023C289.446 96.6403 289.218 97.2263 289.036 97.7601C288.867 98.281 288.763 98.7172 288.724 99.0687C288.697 99.4073 288.763 99.6156 288.919 99.6937C289.101 99.7849 289.336 99.8239 289.622 99.8109C289.921 99.7849 290.227 99.7458 290.54 99.6937C290.852 99.6416 291.158 99.5896 291.458 99.5375C291.757 99.4724 292.018 99.4463 292.239 99.4594C292.291 99.5765 292.252 99.6937 292.122 99.8109C291.992 99.9151 291.809 100.013 291.575 100.104C291.341 100.182 291.067 100.254 290.755 100.319C290.455 100.371 290.162 100.41 289.876 100.436C289.602 100.462 289.355 100.468 289.134 100.455C288.925 100.442 288.782 100.41 288.704 100.358ZM296.563 100.358C296.407 100.254 296.401 100.117 296.544 99.9476C296.7 99.7653 296.941 99.5765 297.267 99.3812C297.605 99.1729 297.996 98.958 298.438 98.7367C298.881 98.5153 299.304 98.307 299.708 98.1117C300.125 97.9164 300.489 97.7471 300.802 97.6039C301.114 97.4476 301.316 97.3304 301.407 97.2523C301.837 96.8877 302.058 96.5883 302.071 96.3539C302.097 96.1065 301.993 95.9112 301.759 95.7679C301.524 95.6117 301.192 95.4945 300.763 95.4164C300.346 95.3252 299.91 95.2471 299.454 95.182C299.011 95.1039 298.582 95.0258 298.165 94.9476C297.761 94.8695 297.455 94.7653 297.247 94.6351C297.039 94.5049 296.967 94.3357 297.032 94.1273C297.11 93.906 297.397 93.626 297.892 93.2875C298.074 93.1573 298.341 92.9685 298.692 92.7211C299.044 92.4737 299.421 92.2198 299.825 91.9594C300.242 91.6989 300.652 91.4646 301.056 91.2562C301.459 91.0479 301.798 90.9112 302.071 90.8461C302.214 90.82 302.358 90.833 302.501 90.8851C302.657 90.9372 302.781 91.0153 302.872 91.1195C302.963 91.2107 303.002 91.3148 302.989 91.432C302.989 91.5492 302.905 91.6534 302.735 91.7445C301.993 92.1612 301.277 92.5518 300.587 92.9164C299.91 93.281 299.226 93.6976 298.536 94.1664C298.497 94.2705 298.503 94.3617 298.556 94.4398C298.621 94.5179 298.692 94.5765 298.77 94.6156C300.151 94.7588 301.186 94.9607 301.876 95.2211C302.579 95.4815 303.022 95.7679 303.204 96.0804C303.399 96.3929 303.38 96.725 303.145 97.0765C302.911 97.4281 302.559 97.7732 302.091 98.1117C301.635 98.4502 301.108 98.7692 300.509 99.0687C299.91 99.3682 299.33 99.6221 298.77 99.8304C298.224 100.039 297.742 100.195 297.325 100.299C296.908 100.403 296.655 100.423 296.563 100.358ZM256.311 119.123C255.999 118.863 255.823 118.479 255.784 117.971C255.758 117.463 255.83 116.89 255.999 116.252C256.181 115.614 256.442 114.95 256.78 114.26C257.132 113.557 257.535 112.893 257.991 112.268C258.447 111.63 258.942 111.064 259.475 110.569C260.009 110.061 260.543 109.69 261.077 109.455C261.611 109.208 262.132 109.123 262.64 109.202C263.147 109.267 263.61 109.56 264.026 110.08C264.287 110.406 264.443 110.738 264.495 111.077C264.547 111.402 264.541 111.741 264.475 112.092C264.41 112.431 264.306 112.782 264.163 113.147C264.02 113.498 263.877 113.856 263.733 114.221C263.603 114.586 263.492 114.957 263.401 115.334C263.323 115.712 263.31 116.096 263.362 116.487C263.427 116.981 263.649 117.274 264.026 117.366C264.404 117.457 264.853 117.431 265.374 117.287C265.908 117.144 266.468 116.916 267.054 116.604C267.64 116.291 268.18 115.979 268.675 115.666C269.183 115.354 269.599 115.08 269.925 114.846C270.263 114.612 270.433 114.495 270.433 114.495C270.797 114.416 270.999 114.442 271.038 114.573C271.09 114.69 271.018 114.872 270.823 115.12C270.641 115.354 270.361 115.627 269.983 115.94C269.606 116.239 269.176 116.532 268.694 116.819C268.212 117.105 267.698 117.366 267.151 117.6C266.604 117.834 266.071 117.997 265.55 118.088C265.029 118.166 264.534 118.16 264.065 118.069C263.61 117.965 263.232 117.73 262.933 117.366C262.789 117.209 262.679 117.053 262.6 116.897C262.535 116.741 262.425 116.604 262.268 116.487C262.073 116.669 261.839 116.91 261.565 117.209C261.292 117.496 260.992 117.789 260.667 118.088C260.354 118.375 260.016 118.648 259.651 118.909C259.3 119.169 258.935 119.364 258.558 119.495C258.18 119.625 257.796 119.67 257.405 119.631C257.028 119.592 256.663 119.423 256.311 119.123ZM256.526 118.459C256.643 118.876 256.904 119.071 257.308 119.045C257.711 119.006 258.18 118.804 258.714 118.44C259.248 118.075 259.801 117.58 260.374 116.955C260.947 116.317 261.461 115.614 261.917 114.846C262.373 114.065 262.718 113.245 262.952 112.385C263.199 111.526 263.265 110.679 263.147 109.846C262.835 109.599 262.444 109.592 261.975 109.827C261.507 110.048 261.005 110.419 260.472 110.94C259.951 111.448 259.43 112.06 258.909 112.776C258.401 113.479 257.952 114.195 257.561 114.924C257.171 115.64 256.871 116.317 256.663 116.955C256.468 117.593 256.422 118.095 256.526 118.459ZM278.526 119.358C278.487 118.928 278.52 118.505 278.624 118.088C278.741 117.659 278.891 117.242 279.073 116.838C279.268 116.422 279.47 116.011 279.679 115.608C279.9 115.191 280.089 114.787 280.245 114.397C280.401 113.993 280.512 113.603 280.577 113.225C280.642 112.834 280.616 112.45 280.499 112.073C280.173 111.955 279.796 111.981 279.366 112.151C278.949 112.32 278.507 112.58 278.038 112.932C277.569 113.271 277.081 113.674 276.573 114.143C276.078 114.599 275.59 115.067 275.108 115.549C274.64 116.018 274.19 116.467 273.761 116.897C273.331 117.327 272.94 117.685 272.589 117.971C272.25 118.245 271.964 118.42 271.729 118.498C271.495 118.564 271.339 118.479 271.261 118.245C271.248 118.231 271.319 118.069 271.475 117.756C271.645 117.431 271.847 117.027 272.081 116.545C272.328 116.064 272.595 115.543 272.882 114.983C273.181 114.423 273.461 113.902 273.722 113.42C273.982 112.925 274.21 112.509 274.405 112.17C274.6 111.832 274.724 111.649 274.776 111.623C275.05 111.806 275.186 112.008 275.186 112.229C275.199 112.437 275.167 112.659 275.089 112.893C275.011 113.114 274.92 113.342 274.815 113.577C274.724 113.811 274.711 114.045 274.776 114.28C274.985 114.136 275.271 113.941 275.636 113.694C276.013 113.433 276.417 113.166 276.847 112.893C277.289 112.62 277.745 112.353 278.214 112.092C278.696 111.832 279.145 111.63 279.561 111.487C279.978 111.33 280.349 111.246 280.675 111.233C281.013 111.22 281.261 111.317 281.417 111.526C281.573 111.734 281.619 112.079 281.554 112.561C281.502 113.03 281.3 113.674 280.948 114.495C280.909 114.586 280.811 114.807 280.655 115.159C280.512 115.497 280.349 115.868 280.167 116.272C279.998 116.662 279.835 117.034 279.679 117.385C279.535 117.724 279.444 117.939 279.405 118.03C279.392 118.082 279.373 118.179 279.347 118.323C279.334 118.453 279.314 118.603 279.288 118.772C279.262 118.928 279.223 119.084 279.171 119.241C279.119 119.384 279.054 119.495 278.975 119.573C278.897 119.651 278.806 119.644 278.702 119.553C278.598 119.449 278.539 119.384 278.526 119.358ZM292.558 119.123C292.063 118.785 291.705 118.368 291.483 117.873C291.262 117.366 291.099 116.825 290.995 116.252H290.78C289.725 117.112 288.808 117.756 288.026 118.186C287.258 118.616 286.607 118.883 286.073 118.987C285.539 119.078 285.123 119.032 284.823 118.85C284.524 118.668 284.328 118.407 284.237 118.069C284.159 117.717 284.179 117.307 284.296 116.838C284.413 116.37 284.615 115.901 284.901 115.432C285.188 114.95 285.559 114.495 286.015 114.065C286.47 113.635 286.991 113.284 287.577 113.01C288.176 112.737 288.834 112.567 289.55 112.502C290.279 112.424 291.06 112.502 291.893 112.737L292.108 112.502L294.745 107.209C295.097 107.261 295.305 107.418 295.37 107.678C295.435 107.939 295.429 108.225 295.35 108.537C295.285 108.85 295.181 109.156 295.038 109.455C294.908 109.742 294.81 109.95 294.745 110.08C294.706 110.159 294.628 110.308 294.511 110.53C294.406 110.751 294.276 111.018 294.12 111.33C293.977 111.63 293.821 111.949 293.651 112.287C293.482 112.626 293.319 112.952 293.163 113.264C293.02 113.564 292.89 113.83 292.772 114.065C292.655 114.286 292.584 114.429 292.558 114.495C292.323 114.976 292.212 115.491 292.225 116.037C292.252 116.571 292.284 117.086 292.323 117.58C292.375 117.815 292.479 118.01 292.636 118.166C292.792 118.31 292.955 118.446 293.124 118.577C293.306 118.694 293.482 118.811 293.651 118.928C293.834 119.045 293.983 119.189 294.1 119.358C294.048 119.527 293.944 119.612 293.788 119.612C293.632 119.625 293.469 119.599 293.3 119.534C293.13 119.468 292.974 119.39 292.831 119.299C292.688 119.208 292.597 119.149 292.558 119.123ZM285.272 118.245C285.324 118.466 285.52 118.531 285.858 118.44C286.21 118.349 286.62 118.16 287.089 117.873C287.558 117.574 288.052 117.216 288.573 116.799C289.107 116.383 289.582 115.966 289.999 115.549C290.429 115.133 290.761 114.748 290.995 114.397C291.242 114.045 291.321 113.785 291.229 113.616C290.826 113.394 290.377 113.284 289.882 113.284C289.387 113.284 288.892 113.375 288.397 113.557C287.916 113.726 287.447 113.974 286.991 114.299C286.548 114.612 286.171 114.976 285.858 115.393C285.559 115.81 285.344 116.265 285.214 116.76C285.097 117.242 285.116 117.737 285.272 118.245ZM231.497 137.909C230.664 136.763 229.993 135.819 229.485 135.077C228.977 134.321 228.561 133.761 228.235 133.397C227.91 133.032 227.643 132.856 227.434 132.87C227.226 132.883 226.998 133.084 226.751 133.475C226.517 133.853 226.224 134.412 225.872 135.155C225.52 135.897 225.039 136.815 224.427 137.909C224.349 138.052 224.264 138.143 224.173 138.182C224.095 138.208 224.017 138.208 223.938 138.182C223.86 138.143 223.789 138.078 223.724 137.987C223.658 137.896 223.606 137.798 223.567 137.694C223.528 137.564 223.574 137.316 223.704 136.952C223.834 136.574 224.023 136.125 224.27 135.604C224.531 135.07 224.83 134.484 225.169 133.846C225.52 133.195 225.885 132.531 226.263 131.854C226.653 131.177 227.037 130.506 227.415 129.842C227.806 129.178 228.164 128.566 228.489 128.006C228.828 127.433 229.127 126.932 229.388 126.502C229.648 126.073 229.837 125.754 229.954 125.545C230.045 125.48 230.136 125.474 230.227 125.526C230.332 125.578 230.416 125.662 230.481 125.78C230.559 125.884 230.612 126.001 230.638 126.131C230.664 126.248 230.651 126.346 230.599 126.424L228.841 129.51V129.959C229.114 130.024 229.453 130.005 229.856 129.901C230.273 129.784 230.716 129.621 231.184 129.412C231.666 129.204 232.155 128.963 232.649 128.69C233.144 128.403 233.613 128.123 234.056 127.85C234.511 127.564 234.915 127.297 235.267 127.049C235.631 126.789 235.918 126.58 236.126 126.424C236.295 126.333 236.445 126.307 236.575 126.346C236.718 126.385 236.823 126.457 236.888 126.561C236.966 126.665 236.998 126.789 236.985 126.932C236.972 127.075 236.907 127.205 236.79 127.323C236.425 127.7 235.989 128.026 235.481 128.299C234.987 128.56 234.459 128.8 233.899 129.022C233.339 129.23 232.767 129.432 232.181 129.627C231.608 129.81 231.054 130.011 230.52 130.233C229.987 130.454 229.498 130.702 229.056 130.975C228.613 131.248 228.248 131.574 227.962 131.952C228.131 132.095 228.352 132.323 228.626 132.635C228.912 132.935 229.218 133.273 229.544 133.651C229.882 134.028 230.221 134.432 230.559 134.862C230.898 135.278 231.198 135.689 231.458 136.092C231.731 136.483 231.953 136.841 232.122 137.166C232.304 137.479 232.395 137.726 232.395 137.909V138.358C232.291 138.41 232.194 138.429 232.102 138.416C232.024 138.39 231.946 138.351 231.868 138.299C231.79 138.247 231.718 138.189 231.653 138.123C231.601 138.045 231.549 137.974 231.497 137.909ZM247.071 138.358C247.032 137.928 247.065 137.505 247.169 137.088C247.286 136.659 247.436 136.242 247.618 135.838C247.813 135.422 248.015 135.011 248.224 134.608C248.445 134.191 248.634 133.787 248.79 133.397C248.946 132.993 249.057 132.603 249.122 132.225C249.187 131.834 249.161 131.45 249.044 131.073C248.718 130.955 248.341 130.981 247.911 131.151C247.494 131.32 247.052 131.58 246.583 131.932C246.114 132.271 245.626 132.674 245.118 133.143C244.623 133.599 244.135 134.067 243.653 134.549C243.184 135.018 242.735 135.467 242.306 135.897C241.876 136.327 241.485 136.685 241.134 136.971C240.795 137.245 240.509 137.42 240.274 137.498C240.04 137.564 239.884 137.479 239.806 137.245C239.793 137.231 239.864 137.069 240.02 136.756C240.19 136.431 240.392 136.027 240.626 135.545C240.873 135.064 241.14 134.543 241.427 133.983C241.726 133.423 242.006 132.902 242.267 132.42C242.527 131.925 242.755 131.509 242.95 131.17C243.145 130.832 243.269 130.649 243.321 130.623C243.595 130.806 243.731 131.008 243.731 131.229C243.744 131.437 243.712 131.659 243.634 131.893C243.556 132.114 243.464 132.342 243.36 132.577C243.269 132.811 243.256 133.045 243.321 133.28C243.53 133.136 243.816 132.941 244.181 132.694C244.558 132.433 244.962 132.166 245.392 131.893C245.834 131.62 246.29 131.353 246.759 131.092C247.24 130.832 247.69 130.63 248.106 130.487C248.523 130.33 248.894 130.246 249.22 130.233C249.558 130.22 249.806 130.317 249.962 130.526C250.118 130.734 250.164 131.079 250.099 131.561C250.046 132.03 249.845 132.674 249.493 133.495C249.454 133.586 249.356 133.807 249.2 134.159C249.057 134.497 248.894 134.868 248.712 135.272C248.543 135.662 248.38 136.034 248.224 136.385C248.08 136.724 247.989 136.939 247.95 137.03C247.937 137.082 247.918 137.179 247.892 137.323C247.878 137.453 247.859 137.603 247.833 137.772C247.807 137.928 247.768 138.084 247.716 138.241C247.664 138.384 247.599 138.495 247.52 138.573C247.442 138.651 247.351 138.644 247.247 138.553C247.143 138.449 247.084 138.384 247.071 138.358ZM254.247 138.358C253.7 138.136 253.355 137.804 253.212 137.362C253.082 136.919 253.088 136.431 253.231 135.897C253.375 135.35 253.622 134.79 253.974 134.217C254.325 133.631 254.716 133.097 255.145 132.616C255.575 132.134 256.005 131.73 256.434 131.405C256.877 131.066 257.255 130.877 257.567 130.838C258.375 130.734 259.006 130.793 259.462 131.014C259.931 131.222 260.25 131.528 260.419 131.932C260.588 132.336 260.634 132.811 260.556 133.358C260.477 133.892 260.302 134.432 260.028 134.979C259.768 135.526 259.423 136.053 258.993 136.561C258.576 137.069 258.108 137.498 257.587 137.85C257.079 138.189 256.539 138.416 255.966 138.534C255.393 138.638 254.82 138.579 254.247 138.358ZM254.032 137.245C254.136 137.661 254.358 137.896 254.696 137.948C255.035 137.987 255.425 137.902 255.868 137.694C256.324 137.472 256.799 137.16 257.294 136.756C257.789 136.34 258.238 135.89 258.642 135.409C259.058 134.927 259.397 134.445 259.657 133.963C259.931 133.468 260.061 133.039 260.048 132.674C260.048 132.31 259.872 132.036 259.52 131.854C259.182 131.659 258.609 131.62 257.802 131.737C257.619 131.906 257.385 132.114 257.099 132.362C256.812 132.596 256.513 132.856 256.2 133.143C255.901 133.429 255.601 133.742 255.302 134.08C255.002 134.406 254.742 134.745 254.52 135.096C254.299 135.448 254.136 135.806 254.032 136.17C253.941 136.535 253.941 136.893 254.032 137.245ZM269.626 138.358C269.365 138.162 269.164 137.909 269.02 137.596C268.877 137.284 268.767 136.952 268.688 136.6C268.623 136.248 268.578 135.897 268.552 135.545C268.526 135.194 268.513 134.881 268.513 134.608C268.487 134.582 268.448 134.569 268.395 134.569C268.356 134.569 268.324 134.582 268.298 134.608C267.972 134.842 267.66 135.122 267.36 135.448C267.061 135.773 266.761 136.105 266.462 136.444C266.175 136.782 265.889 137.121 265.602 137.459C265.329 137.785 265.049 138.084 264.763 138.358C264.58 138.423 264.392 138.442 264.196 138.416C264.001 138.377 263.832 138.312 263.688 138.221C263.558 138.117 263.461 137.987 263.395 137.83C263.343 137.661 263.363 137.466 263.454 137.245C263.701 136.45 263.968 135.61 264.255 134.725C264.554 133.827 264.867 132.974 265.192 132.166C265.309 131.88 265.433 131.724 265.563 131.698C265.707 131.672 265.83 131.724 265.934 131.854C266.039 131.984 266.11 132.166 266.149 132.401C266.188 132.622 266.169 132.843 266.091 133.065C266.052 133.169 265.98 133.358 265.876 133.631C265.772 133.892 265.661 134.178 265.544 134.491C265.427 134.79 265.316 135.077 265.212 135.35C265.108 135.623 265.036 135.812 264.997 135.916V136.58C265.401 136.216 265.739 135.89 266.013 135.604C266.286 135.317 266.54 135.031 266.774 134.745C267.022 134.445 267.276 134.133 267.536 133.807C267.796 133.468 268.122 133.071 268.513 132.616C268.812 132.264 269.046 132.075 269.216 132.049C269.385 132.01 269.509 132.082 269.587 132.264C269.678 132.433 269.73 132.687 269.743 133.026C269.756 133.351 269.756 133.709 269.743 134.1C269.743 134.478 269.73 134.862 269.704 135.252C269.678 135.63 269.665 135.962 269.665 136.248C269.678 136.522 269.711 136.724 269.763 136.854C269.815 136.971 269.912 136.958 270.056 136.815C270.212 136.567 270.44 136.209 270.739 135.741C271.039 135.272 271.377 134.758 271.755 134.198C272.132 133.625 272.543 133.052 272.985 132.479C273.441 131.893 273.903 131.372 274.372 130.916C274.841 130.448 275.309 130.083 275.778 129.823C276.247 129.549 276.696 129.445 277.126 129.51C277.139 129.562 277.061 129.705 276.892 129.94C276.735 130.174 276.52 130.454 276.247 130.78C275.987 131.092 275.694 131.437 275.368 131.815C275.056 132.179 274.743 132.531 274.431 132.87C274.131 133.208 273.864 133.514 273.63 133.787C273.395 134.061 273.233 134.263 273.142 134.393C273.102 134.445 273.018 134.562 272.888 134.745C272.77 134.914 272.627 135.122 272.458 135.37C272.302 135.604 272.126 135.858 271.931 136.131C271.748 136.405 271.573 136.665 271.403 136.912C271.234 137.16 271.084 137.375 270.954 137.557C270.837 137.739 270.759 137.856 270.72 137.909C270.602 138.078 270.505 138.215 270.427 138.319C270.349 138.423 270.27 138.495 270.192 138.534C270.127 138.573 270.049 138.579 269.958 138.553C269.867 138.527 269.756 138.462 269.626 138.358ZM281.333 138.358C280.942 138.228 280.643 138.032 280.434 137.772C280.239 137.498 280.109 137.199 280.044 136.873C279.979 136.548 279.966 136.209 280.005 135.858C280.057 135.493 280.135 135.148 280.239 134.823C280.63 134.406 281.066 133.931 281.548 133.397C282.043 132.85 282.563 132.316 283.11 131.795C283.657 131.274 284.224 130.793 284.809 130.35C285.408 129.894 286.014 129.549 286.626 129.315C286.834 129.224 286.997 129.23 287.114 129.334C287.244 129.425 287.336 129.575 287.388 129.784C287.44 129.992 287.459 130.233 287.446 130.506C287.446 130.78 287.427 131.047 287.388 131.307C287.349 131.567 287.296 131.802 287.231 132.01C287.166 132.218 287.101 132.362 287.036 132.44C286.88 132.622 286.574 132.837 286.118 133.084C285.675 133.332 285.181 133.605 284.634 133.905C284.087 134.191 283.54 134.491 282.993 134.803C282.446 135.116 281.997 135.428 281.645 135.741C281.294 136.04 281.086 136.34 281.02 136.639C280.955 136.939 281.138 137.212 281.567 137.459C282.01 137.511 282.544 137.492 283.169 137.401C283.807 137.297 284.451 137.166 285.102 137.01C285.767 136.841 286.405 136.672 287.017 136.502C287.628 136.32 288.13 136.177 288.52 136.073L288.755 136.287C288.468 136.665 288 137.01 287.349 137.323C286.698 137.635 285.994 137.896 285.239 138.104C284.484 138.299 283.748 138.429 283.032 138.495C282.316 138.547 281.75 138.501 281.333 138.358ZM286.001 130.897C285.988 130.884 285.89 130.942 285.708 131.073C285.526 131.19 285.298 131.353 285.024 131.561C284.764 131.756 284.477 131.978 284.165 132.225C283.865 132.459 283.586 132.681 283.325 132.889C283.078 133.097 282.869 133.28 282.7 133.436C282.531 133.579 282.459 133.651 282.485 133.651C282.694 133.69 282.961 133.664 283.286 133.573C283.625 133.468 283.97 133.325 284.321 133.143C284.686 132.961 285.031 132.759 285.356 132.537C285.682 132.303 285.936 132.075 286.118 131.854C286.313 131.633 286.411 131.437 286.411 131.268C286.424 131.099 286.287 130.975 286.001 130.897ZM291.282 138.358C290.905 138.084 290.657 137.739 290.54 137.323C290.436 136.906 290.423 136.457 290.501 135.975C290.579 135.48 290.716 134.972 290.911 134.452C291.119 133.931 291.341 133.429 291.575 132.948C291.822 132.466 292.057 132.023 292.278 131.62C292.513 131.216 292.695 130.884 292.825 130.623C292.864 130.545 292.955 130.356 293.099 130.057C293.255 129.758 293.418 129.432 293.587 129.08C293.756 128.729 293.912 128.403 294.056 128.104C294.212 127.791 294.309 127.596 294.349 127.518C294.388 127.453 294.44 127.329 294.505 127.147C294.583 126.952 294.668 126.743 294.759 126.522C294.85 126.3 294.947 126.092 295.052 125.897C295.169 125.689 295.286 125.539 295.403 125.448C295.533 125.356 295.657 125.343 295.774 125.409C295.905 125.474 296.028 125.669 296.145 125.995C296.093 126.125 295.963 126.385 295.755 126.776C295.559 127.166 295.325 127.635 295.052 128.182C294.778 128.729 294.472 129.334 294.134 129.998C293.808 130.662 293.489 131.333 293.177 132.01C292.864 132.687 292.571 133.351 292.298 134.002C292.024 134.64 291.796 135.226 291.614 135.76C291.445 136.281 291.341 136.717 291.302 137.069C291.276 137.407 291.341 137.616 291.497 137.694C291.679 137.785 291.914 137.824 292.2 137.811C292.5 137.785 292.806 137.746 293.118 137.694C293.431 137.642 293.737 137.59 294.036 137.537C294.336 137.472 294.596 137.446 294.817 137.459C294.869 137.577 294.83 137.694 294.7 137.811C294.57 137.915 294.388 138.013 294.153 138.104C293.919 138.182 293.645 138.254 293.333 138.319C293.033 138.371 292.74 138.41 292.454 138.436C292.181 138.462 291.933 138.468 291.712 138.455C291.503 138.442 291.36 138.41 291.282 138.358ZM306.974 138.123C306.479 137.785 306.121 137.368 305.899 136.873C305.678 136.366 305.515 135.825 305.411 135.252H305.196C304.142 136.112 303.224 136.756 302.442 137.186C301.674 137.616 301.023 137.883 300.489 137.987C299.955 138.078 299.539 138.032 299.239 137.85C298.94 137.668 298.744 137.407 298.653 137.069C298.575 136.717 298.595 136.307 298.712 135.838C298.829 135.37 299.031 134.901 299.317 134.432C299.604 133.95 299.975 133.495 300.431 133.065C300.886 132.635 301.407 132.284 301.993 132.01C302.592 131.737 303.25 131.567 303.966 131.502C304.695 131.424 305.476 131.502 306.309 131.737L306.524 131.502L309.161 126.209C309.513 126.261 309.721 126.418 309.786 126.678C309.851 126.939 309.845 127.225 309.767 127.537C309.701 127.85 309.597 128.156 309.454 128.455C309.324 128.742 309.226 128.95 309.161 129.08C309.122 129.159 309.044 129.308 308.927 129.53C308.822 129.751 308.692 130.018 308.536 130.33C308.393 130.63 308.237 130.949 308.067 131.287C307.898 131.626 307.735 131.952 307.579 132.264C307.436 132.564 307.306 132.83 307.188 133.065C307.071 133.286 307 133.429 306.974 133.495C306.739 133.976 306.628 134.491 306.642 135.037C306.668 135.571 306.7 136.086 306.739 136.58C306.791 136.815 306.895 137.01 307.052 137.166C307.208 137.31 307.371 137.446 307.54 137.577C307.722 137.694 307.898 137.811 308.067 137.928C308.25 138.045 308.399 138.189 308.517 138.358C308.464 138.527 308.36 138.612 308.204 138.612C308.048 138.625 307.885 138.599 307.716 138.534C307.546 138.468 307.39 138.39 307.247 138.299C307.104 138.208 307.013 138.149 306.974 138.123ZM299.688 137.245C299.74 137.466 299.936 137.531 300.274 137.44C300.626 137.349 301.036 137.16 301.505 136.873C301.974 136.574 302.468 136.216 302.989 135.799C303.523 135.383 303.998 134.966 304.415 134.549C304.845 134.133 305.177 133.748 305.411 133.397C305.658 133.045 305.737 132.785 305.645 132.616C305.242 132.394 304.793 132.284 304.298 132.284C303.803 132.284 303.308 132.375 302.813 132.557C302.332 132.726 301.863 132.974 301.407 133.299C300.964 133.612 300.587 133.976 300.274 134.393C299.975 134.81 299.76 135.265 299.63 135.76C299.513 136.242 299.532 136.737 299.688 137.245ZM308.563 144.08C308.16 143.937 307.834 143.722 307.587 143.436C307.326 143.149 307.131 142.837 307.001 142.498C306.858 142.173 306.773 141.841 306.747 141.502C306.708 141.164 306.714 140.864 306.767 140.604C306.806 140.343 306.884 140.142 307.001 139.998C307.105 139.868 307.229 139.836 307.372 139.901C307.359 141.034 307.496 141.886 307.782 142.459C308.056 143.045 308.42 143.41 308.876 143.553C309.319 143.709 309.826 143.677 310.399 143.455C310.959 143.234 311.526 142.889 312.099 142.42C312.684 141.965 313.238 141.411 313.759 140.76C314.293 140.122 314.742 139.452 315.106 138.748C315.471 138.058 315.731 137.375 315.888 136.698C316.044 136.008 316.037 135.383 315.868 134.823C314.696 135.669 313.785 136.203 313.134 136.424C312.483 136.646 312.027 136.659 311.767 136.463C311.519 136.255 311.441 135.89 311.532 135.37C311.623 134.849 311.819 134.276 312.118 133.651C312.418 133.026 312.795 132.401 313.251 131.776C313.707 131.138 314.175 130.604 314.657 130.174C315.139 129.745 315.601 129.471 316.044 129.354C316.5 129.237 316.877 129.373 317.177 129.764C317.476 130.168 317.665 130.715 317.743 131.405C317.821 132.082 317.802 132.837 317.684 133.67C317.567 134.504 317.359 135.376 317.059 136.287C316.773 137.199 316.415 138.084 315.985 138.944C315.556 139.816 315.061 140.623 314.501 141.366C313.954 142.108 313.362 142.726 312.724 143.221C312.086 143.716 311.415 144.048 310.712 144.217C310.009 144.399 309.293 144.354 308.563 144.08ZM312.548 134.393C312.535 134.432 312.522 134.504 312.509 134.608C312.509 134.712 312.509 134.823 312.509 134.94C312.509 135.057 312.509 135.168 312.509 135.272C312.522 135.376 312.535 135.448 312.548 135.487C312.964 135.591 313.394 135.493 313.837 135.194C314.28 134.894 314.683 134.51 315.048 134.041C315.425 133.573 315.738 133.078 315.985 132.557C316.246 132.036 316.402 131.6 316.454 131.248C316.519 130.897 316.454 130.702 316.259 130.662C316.063 130.61 315.705 130.819 315.184 131.287C315.028 131.431 314.82 131.626 314.559 131.873C314.299 132.121 314.032 132.388 313.759 132.674C313.498 132.961 313.251 133.26 313.017 133.573C312.795 133.872 312.639 134.146 312.548 134.393ZM321.931 138.358C321.54 138.228 321.24 138.032 321.032 137.772C320.837 137.498 320.707 137.199 320.642 136.873C320.576 136.548 320.563 136.209 320.602 135.858C320.655 135.493 320.733 135.148 320.837 134.823C321.227 134.406 321.664 133.931 322.145 133.397C322.64 132.85 323.161 132.316 323.708 131.795C324.255 131.274 324.821 130.793 325.407 130.35C326.006 129.894 326.612 129.549 327.224 129.315C327.432 129.224 327.595 129.23 327.712 129.334C327.842 129.425 327.933 129.575 327.985 129.784C328.037 129.992 328.057 130.233 328.044 130.506C328.044 130.78 328.024 131.047 327.985 131.307C327.946 131.567 327.894 131.802 327.829 132.01C327.764 132.218 327.699 132.362 327.634 132.44C327.477 132.622 327.171 132.837 326.716 133.084C326.273 133.332 325.778 133.605 325.231 133.905C324.684 134.191 324.138 134.491 323.591 134.803C323.044 135.116 322.595 135.428 322.243 135.741C321.892 136.04 321.683 136.34 321.618 136.639C321.553 136.939 321.735 137.212 322.165 137.459C322.608 137.511 323.142 137.492 323.767 137.401C324.405 137.297 325.049 137.166 325.7 137.01C326.364 136.841 327.002 136.672 327.614 136.502C328.226 136.32 328.727 136.177 329.118 136.073L329.352 136.287C329.066 136.665 328.597 137.01 327.946 137.323C327.295 137.635 326.592 137.896 325.837 138.104C325.082 138.299 324.346 138.429 323.63 138.495C322.914 138.547 322.347 138.501 321.931 138.358ZM326.599 130.897C326.586 130.884 326.488 130.942 326.306 131.073C326.123 131.19 325.895 131.353 325.622 131.561C325.362 131.756 325.075 131.978 324.763 132.225C324.463 132.459 324.183 132.681 323.923 132.889C323.675 133.097 323.467 133.28 323.298 133.436C323.128 133.579 323.057 133.651 323.083 133.651C323.291 133.69 323.558 133.664 323.884 133.573C324.222 133.468 324.567 133.325 324.919 133.143C325.283 132.961 325.628 132.759 325.954 132.537C326.28 132.303 326.533 132.075 326.716 131.854C326.911 131.633 327.009 131.437 327.009 131.268C327.022 131.099 326.885 130.975 326.599 130.897Z" fill="black"/>
<path d="M183.767 87.7377C158.425 108.739 117.91 163.562 158.591 214.844" stroke="#F5F0EA" stroke-width="9"/>
<path d="M168.246 214.938L175.266 231.074L182.309 214.938H183.234V232H182.602V215.875L175.523 232H175.02L167.977 215.957V232H167.344V214.938H168.246ZM199.509 223.539H190.955V231.367H200.705V232H190.322V214.938H200.705V215.57H190.955V222.906H199.509V223.539Z" fill="white"/>
</svg>
