<svg width="301" height="329" viewBox="0 0 301 329" fill="none" xmlns="http://www.w3.org/2000/svg">
<g opacity="0.2" filter="url(#filter0_d)">
<path d="M37.1934 259.443C37.4928 257.946 39.3646 256.523 42.8086 255.176C46.2526 253.828 50.5202 252.406 55.6113 250.908C60.7025 249.411 66.3177 247.764 72.457 245.967C78.5964 244.17 84.5111 242.148 90.2012 239.902C95.8913 237.656 101.057 235.111 105.699 232.266C110.491 229.421 114.01 226.126 116.256 222.383C116.256 220.137 114.758 218.415 111.764 217.217C108.919 216.019 105.025 215.046 100.084 214.297C95.2923 213.398 89.752 212.725 83.4629 212.275C77.3236 211.676 70.9596 210.928 64.3711 210.029C57.9323 208.981 51.5684 207.783 45.2793 206.436C39.14 204.938 33.5996 202.917 28.6582 200.371C23.8665 197.676 19.9733 194.307 16.9785 190.264C14.1335 186.221 12.7109 181.279 12.7109 175.439C12.7109 169.6 13.9837 163.835 16.5293 158.145C19.0749 152.305 22.444 146.689 26.6367 141.299C30.9792 135.908 35.8457 130.892 41.2363 126.25C46.7767 121.608 52.5417 117.565 58.5312 114.121C64.5208 110.677 70.4355 107.982 76.2754 106.035C82.265 104.089 87.8053 103.115 92.8965 103.115C94.2441 103.115 95.6667 103.115 97.1641 103.115C98.6615 102.965 99.9342 103.04 100.982 103.34C102.18 103.49 103.154 104.014 103.902 104.912C104.651 105.811 105.025 107.158 105.025 108.955C105.025 113.298 103.603 116.442 100.758 118.389C97.9128 120.186 94.4688 121.084 90.4258 121.084L81.666 114.795C78.222 114.795 74.4036 115.768 70.2109 117.715C66.168 119.661 61.9753 122.282 57.6328 125.576C53.4401 128.721 49.3223 132.389 45.2793 136.582C41.2363 140.775 37.6426 145.117 34.498 149.609C31.5033 154.102 29.0326 158.594 27.0859 163.086C25.2891 167.578 24.3906 171.621 24.3906 175.215C24.3906 180.456 25.8132 184.723 28.6582 188.018C31.653 191.162 35.5462 193.708 40.3379 195.654C45.2793 197.451 50.8945 198.799 57.1836 199.697C63.4727 200.596 69.8366 201.344 76.2754 201.943C82.7142 202.542 89.0781 203.141 95.3672 203.74C101.656 204.189 107.197 205.088 111.988 206.436C116.93 207.783 120.823 209.58 123.668 211.826C126.663 214.072 128.16 217.142 128.16 221.035C129.807 223.431 129.433 226.201 127.037 229.346C124.791 232.34 121.197 235.41 116.256 238.555C111.464 241.549 105.699 244.619 98.9609 247.764C92.3724 250.758 85.5592 253.529 78.5215 256.074C71.4837 258.47 64.6706 260.566 58.082 262.363C51.4935 264.01 45.8783 265.059 41.2363 265.508C39.8887 265.508 38.6908 265.059 37.6426 264.16C36.7441 263.262 36.5944 261.689 37.1934 259.443ZM143.209 131.865C142.011 129.619 141.188 127.673 140.738 126.025C140.289 124.378 140.064 122.432 140.064 120.186C140.064 119.437 140.064 118.688 140.064 117.939C140.214 117.191 140.439 116.517 140.738 115.918C141.188 115.319 141.786 114.87 142.535 114.57C143.434 114.271 144.557 114.346 145.904 114.795C146.803 115.094 147.701 115.693 148.6 116.592C149.498 117.34 150.322 118.389 151.07 119.736C151.969 120.934 152.643 122.132 153.092 123.33C153.691 124.528 154.14 125.501 154.439 126.25C157.883 123.555 161.627 120.859 165.67 118.164C169.713 115.319 173.98 112.848 178.473 110.752C183.115 108.506 187.757 106.709 192.398 105.361C197.19 104.014 201.757 103.34 206.1 103.34C207.597 103.34 209.394 103.49 211.49 103.789C213.587 104.089 215.533 104.613 217.33 105.361C219.277 106.11 220.849 107.158 222.047 108.506C223.395 109.704 224.068 111.276 224.068 113.223C224.518 116.816 224.068 120.485 222.721 124.229C221.523 127.822 219.801 131.341 217.555 134.785C215.458 138.229 212.988 141.598 210.143 144.893C207.447 148.187 204.677 151.331 201.832 154.326C199.137 157.321 196.591 160.091 194.195 162.637C191.949 165.182 190.227 167.428 189.029 169.375C195.169 165.332 201.757 162.412 208.795 160.615C215.982 158.669 223.17 157.695 230.357 157.695C232.604 157.695 234.999 157.845 237.545 158.145C240.24 158.294 242.711 158.818 244.957 159.717C247.203 160.615 249.075 161.888 250.572 163.535C252.07 165.182 252.818 167.503 252.818 170.498C252.818 173.493 251.396 177.686 248.551 183.076C245.855 188.317 242.262 194.157 237.77 200.596C233.427 206.885 228.561 213.324 223.17 219.912C217.929 226.351 212.838 232.266 207.896 237.656C202.955 242.897 198.463 247.24 194.42 250.684C190.527 253.978 187.757 255.625 186.109 255.625L180.27 252.93C181.018 250.085 182.89 246.715 185.885 242.822C188.88 238.929 192.398 234.886 196.441 230.693C200.634 226.501 205.051 222.083 209.693 217.441C214.485 212.799 218.977 208.307 223.17 203.965C227.363 199.622 231.031 195.43 234.176 191.387C237.32 187.194 239.342 183.451 240.24 180.156C241.288 176.712 240.914 173.867 239.117 171.621C237.32 169.225 233.652 167.428 228.111 166.23C222.271 166.23 216.132 167.279 209.693 169.375C203.255 171.322 197.115 174.167 191.275 177.91C185.436 181.654 180.195 186.146 175.553 191.387C171.061 196.478 167.766 202.243 165.67 208.682C165.67 212.874 165.969 216.992 166.568 221.035C167.317 225.078 168.066 229.121 168.814 233.164C169.563 237.057 170.237 241.025 170.836 245.068C171.585 249.111 171.959 253.154 171.959 257.197C171.959 260.192 171.734 262.663 171.285 264.609C170.836 266.556 168.964 267.529 165.67 267.529C165.37 267.529 164.846 267.529 164.098 267.529C163.499 267.38 163.199 267.23 163.199 267.08L143.209 131.865ZM157.584 146.016C157.584 151.556 157.958 157.471 158.707 163.76C159.456 169.899 160.953 175.589 163.199 180.83C165.445 178.883 168.215 176.338 171.51 173.193C174.954 169.899 178.473 166.38 182.066 162.637C185.81 158.893 189.404 154.925 192.848 150.732C196.441 146.54 199.661 142.497 202.506 138.604C205.501 134.71 207.822 131.117 209.469 127.822C211.266 124.378 212.164 121.533 212.164 119.287C212.164 117.49 211.565 116.292 210.367 115.693C209.319 115.094 208.046 114.795 206.549 114.795C202.955 114.795 198.313 115.544 192.623 117.041C187.083 118.538 181.692 120.635 176.451 123.33C171.36 126.025 166.943 129.32 163.199 133.213C159.456 136.956 157.584 141.224 157.584 146.016Z" fill="#F5F0EA"/>
<path d="M54.6546 282.012C53.6215 283.307 53.834 285.195 55.1294 286.228C56.4247 287.261 58.3122 287.049 59.3454 285.753L54.6546 282.012ZM269.154 240.058C270.808 240.162 272.232 238.905 272.336 237.252C272.439 235.598 271.183 234.174 269.529 234.07L269.154 240.058ZM59.3454 285.753C70.2187 272.121 88.5311 262.272 110.361 255.268C132.126 248.286 157.007 244.251 180.583 241.988C204.142 239.727 226.297 239.244 242.57 239.328C250.703 239.37 257.36 239.553 261.979 239.725C264.288 239.812 266.087 239.895 267.307 239.957C267.917 239.988 268.381 240.014 268.692 240.031C268.847 240.04 268.964 240.047 269.042 240.052C269.08 240.054 269.109 240.056 269.128 240.057C269.137 240.057 269.144 240.058 269.149 240.058C269.151 240.058 269.152 240.058 269.153 240.058C269.154 240.058 269.154 240.058 269.342 237.064C269.529 234.07 269.528 234.07 269.526 234.07C269.525 234.07 269.522 234.07 269.52 234.069C269.514 234.069 269.506 234.069 269.495 234.068C269.473 234.067 269.441 234.065 269.4 234.062C269.317 234.057 269.194 234.05 269.032 234.041C268.71 234.022 268.233 233.996 267.611 233.965C266.366 233.902 264.54 233.817 262.203 233.73C257.528 233.555 250.807 233.37 242.601 233.328C226.195 233.243 203.828 233.73 180.01 236.016C156.209 238.3 130.859 242.391 108.528 249.555C86.2629 256.698 66.6155 267.016 54.6546 282.012L59.3454 285.753Z" fill="#F5F0EA"/>
</g>
<defs>
<filter id="filter0_d" x="0.710938" y="91.0403" width="299.812" height="237.089" filterUnits="userSpaceOnUse" color-interpolation-filters="sRGB">
<feFlood flood-opacity="0" result="BackgroundImageFix"/>
<feColorMatrix in="SourceAlpha" type="matrix" values="0 0 0 0 0 0 0 0 0 0 0 0 0 0 0 0 0 0 127 0"/>
<feOffset dx="8" dy="8"/>
<feGaussianBlur stdDeviation="10"/>
<feColorMatrix type="matrix" values="0 0 0 0 0 0 0 0 0 0 0 0 0 0 0 0 0 0 0.8 0"/>
<feBlend mode="normal" in2="BackgroundImageFix" result="effect1_dropShadow"/>
<feBlend mode="normal" in="SourceGraphic" in2="effect1_dropShadow" result="shape"/>
</filter>
</defs>
</svg>
