<svg width="60" height="60" viewBox="0 0 60 60" fill="none" xmlns="http://www.w3.org/2000/svg">
<path d="M57.6 0H2.4C1.0725 0 0 1.0725 0 2.4V57.6C0 58.9275 1.0725 60 2.4 60H57.6C58.9275 60 60 58.9275 60 57.6V2.4C60 1.0725 58.9275 0 57.6 0ZM50.67 17.5125H45.8775C42.12 17.5125 41.3925 19.2975 41.3925 21.9225V27.705H50.3625L49.1925 36.7575H41.3925V60H32.04V36.765H24.2175V27.705H32.04V21.03C32.04 13.2825 36.7725 9.06 43.6875 9.06C47.0025 9.06 49.845 9.3075 50.6775 9.42V17.5125H50.67Z" fill="white"/>
</svg>
