<svg width="60" height="60" viewBox="0 0 60 60" fill="none" xmlns="http://www.w3.org/2000/svg">
<path d="M57.6 0H2.4C1.0725 0 0 1.0725 0 2.4V57.6C0 58.9275 1.0725 60 2.4 60H57.6C58.9275 60 60 58.9275 60 57.6V2.4C60 1.0725 58.9275 0 57.6 0ZM17.7975 51.1275H8.895V22.4925H17.7975V51.1275ZM13.35 18.5775C12.3294 18.5775 11.3318 18.2749 10.4833 17.7079C9.6347 17.1409 8.97333 16.335 8.58278 15.3921C8.19223 14.4493 8.09005 13.4118 8.28915 12.4108C8.48825 11.4099 8.97969 10.4905 9.70133 9.76883C10.423 9.04719 11.3424 8.55575 12.3433 8.35665C13.3443 8.15755 14.3818 8.25973 15.3246 8.65028C16.2675 9.04083 17.0734 9.7022 17.6404 10.5508C18.2074 11.3993 18.51 12.3969 18.51 13.4175C18.5025 16.2675 16.1925 18.5775 13.35 18.5775ZM51.1275 51.1275H42.2325V37.2C42.2325 33.8775 42.1725 29.61 37.605 29.61C32.9775 29.61 32.265 33.225 32.265 36.96V51.1275H23.3775V22.4925H31.9125V26.4075H32.0325C33.2175 24.1575 36.12 21.78 40.455 21.78C49.47 21.78 51.1275 27.7125 51.1275 35.4225V51.1275Z" fill="white"/>
</svg>
