<svg width="75" height="60" viewBox="0 0 75 60" fill="none" xmlns="http://www.w3.org/2000/svg">
<path d="M73.2849 8.05994C72.3512 4.79227 70.0172 2.45822 66.7495 1.5246C56.9465 0.590976 47.1435 -0.342645 37.3405 0.124165C27.5375 0.124165 17.7345 0.590976 7.93145 1.5246C5.13059 2.45822 2.32973 5.25908 1.39611 8.05994C-0.465372 22.6274 -0.465372 37.3726 1.39611 51.9401C2.32973 55.2077 4.66378 57.5418 7.93145 58.4754C17.7345 59.409 27.5375 60.3426 37.3405 59.8758C47.1435 59.8758 56.9465 59.409 66.7495 58.4754C70.0172 57.5418 72.3512 55.2077 73.2849 51.9401C75.1463 37.3726 75.1463 22.6274 73.2849 8.05994ZM28.0043 44.0043V15.9957L52.2784 30L28.0043 44.0043Z" fill="white"/>
</svg>
